<?xml version="1.0" encoding="utf-8"?>
<!-- Generator: Adobe Illustrator 22.0.1, SVG Export Plug-In . SVG Version: 6.00 Build 0)  -->
<svg version="1.1" id="BLUEPRINT_TITLE" xmlns="http://www.w3.org/2000/svg" xmlns:xlink="http://www.w3.org/1999/xlink" x="0px"
	 y="0px" viewBox="0 0 1438.2 502.3" style="enable-background:new 0 0 1438.2 502.3;" xml:space="preserve">
<style type="text/css">
	.st0{fill:#FFFFFF;}
</style>
<path id="e_1_" class="st0" d="M810.5,319.4c21.9,0,43.5,0,65.4,0c0,4.5,0,8.6,0,13.1c-21.8,0-43.4,0-65.3,0c0,13.4,0,26.3,0,39.8
	c24.6,0,49.3,0,74.3,0c0,4.7,0,8.7,0,13.1c-29.7,0-59.1,0-88.7,0c0-40.3,0-80.4,0-120.7c29.6,0,59,0,88.6,0
	c0.8,4.1,0.4,8.2,0.2,12.8c-24.9,0-49.4,0-74.4,0C810.5,291.5,810.5,305,810.5,319.4z"/>
<path id="l_1_" class="st0" d="M705.3,372.5c24,0,47.1,0,70.5,0c0.7,4.4,0.4,8.4,0.2,12.8c-28.2,0-56.1,0-84.5,0
	c0-40.1,0-80.3,0-120.8c4.5,0,8.9,0,13.8,0C705.3,300.4,705.3,336.2,705.3,372.5z"/>
<path id="t_1_" class="st0" d="M628,277.6c0,36.4,0,72,0,107.8c-4.8,0.6-9.2,0.4-14.2,0.2c0-36,0-71.7,0-107.9
	c-14.3,0-28.1,0-42.2,0c0-4.6,0-8.6,0-13.1c32.8,0,65.7,0,98.9,0c0,4.1,0,8.2,0,13C656.4,277.6,642.4,277.6,628,277.6z"/>
<path id="i_1_" class="st0" d="M536.6,264.5c4.7,0,9.2,0,14,0c0,40.3,0,80.5,0,120.9c-4.6,0-9.2,0-14,0
	C536.6,345.2,536.6,305.1,536.6,264.5z"/>
<path id="t_2_" class="st0" d="M459.3,277.4c-14.7,0-28.5,0-42.5,0c0-4.5,0-8.5,0-12.8c33.1,0,65.8,0,99,0c0.8,4,0.4,8.1,0.2,12.7
	c-14,0-27.9,0-42.4,0c0,36.2,0,71.9,0,107.9c-4.9,0.9-9.3,0.5-14.3,0.3C459.3,349.6,459.3,313.9,459.3,277.4z"/>
<path id="t" class="st0" d="M1399.2,214.5c-8.6,0-16.3,0-24.7,0c0-33.3,0-66.3,0-99.7c-13.4,0-26.2,0-39.3,0c0-7.3,0-14.1,0-21.3
	c34.3,0,68.6,0,103.1,0c0,6.9,0,13.7,0,21.1c-12.8,0-25.7,0-39,0C1399.2,148.1,1399.2,181,1399.2,214.5z"/>
<path id="n" class="st0" d="M1230.4,214.4c-8.7,0-16.5,0-24.6,0c0-40.3,0-80.4,0-120.7c1.9-1.3,4-0.7,6.3-0.4
	c26.6,23.7,53.3,47.4,80.8,72c0-24.6,0-48,0-71.7c8.2,0,16,0,24.1,0c0,40.1,0,80.1,0,120.4c-1.7,1.2-3.7,0.5-5.9,0.5
	c-26.6-24.2-53.3-48.5-80.8-73.6C1230.4,166,1230.4,190,1230.4,214.4z"/>
<path id="i" class="st0" d="M1176.2,214.4c-8.2,0-15.9,0-23.9,0c0-40.3,0-80.4,0-120.8c7.9,0,15.8,0,23.9,0
	C1176.2,133.8,1176.2,173.9,1176.2,214.4z"/>
<path id="r" class="st0" d="M1103.3,172.8c10.3,13.7,20.3,27.1,31,41.5c-11,0-20.2,0-29.8,0c-8.8-12.1-17.7-24.3-26.6-36.5
	c-10.4,0-20.5,0-31.3,0c0,12.2,0,24.2,0,36.6c-8.4,0-16.1,0-24.3,0c0-40.2,0-80.4,0-120.6c1.9-1,4-0.5,5.9-0.5c18,0,36,0.1,54,0.1
	c4.2,0,8.3,0.7,12.3,1.7c16.8,4.2,28.4,13.9,31.4,31.6c3.4,19.3-3.6,34.2-19.9,44.2C1105.4,171.3,1104.8,171.8,1103.3,172.8z
	 M1046.7,156.8c6.6,0,12.6,0.1,18.6,0c7-0.1,14,0.7,20.9-1.1c9.7-2.6,14.9-9.1,15.1-19.2c0.2-10.3-4.7-17.7-14.3-20.2
	c-13.2-3.4-26.7-1-40.2-1.8C1046.7,129,1046.7,142.6,1046.7,156.8z"/>
<path id="p" class="st0" d="M923.1,178.4c0,12.3,0,24,0,35.9c-8.3,0-16.2,0-24.4,0c0-40.1,0-80.3,0-120.7c0.5-0.1,1.1-0.5,1.8-0.5
	c20,0.1,39.9,0.1,59.9,0.3c3.3,0,6.6,0.7,9.9,1.4c21.1,4.8,32.9,19.1,33,39.8c0.1,21.3-12.2,36.7-33.7,41.7c-6,1.4-12.1,2-18.3,2
	C942.1,178.3,933,178.4,923.1,178.4z M923.3,157.3c12.8-0.5,25.1,0.9,37.3-0.9c10.9-1.6,16.8-8.6,17.3-19.9
	c0.4-10.4-5.3-18.5-15.7-20.7c-12.8-2.7-25.7-0.8-38.8-1.4C923.3,129,923.3,142.8,923.3,157.3z"/>
<path id="e" class="st0" d="M876.6,214.4c-31.7,0-62.6,0-93.9,0c0-40.3,0-80.4,0-120.9c31.2,0,62.4,0,93.9,0c0,6.8,0,13.7,0,21.1
	c-23,0-45.9,0-69.2,0c0,9.9,0,19.3,0,29.4c18.9,0,37.8,0,56.7,0c0,7.1,0,13.6,0,20.5c-19,0-37.8,0-56.8,0c0,9.6,0,18.7,0,28.3
	c23,0,45.9,0,69.2,0C876.6,200.3,876.6,207.3,876.6,214.4z"/>
<path id="u" class="st0" d="M730.4,93.4c8.4,0,16.3,0,24.1,0c1,1.8,0.6,3.5,0.6,5.1c0,21.3,0.1,42.7,0,64
	c-0.1,20.3-6.7,37.8-25.3,47.8c-19.7,10.6-40.2,10.2-59.6-1.2c-15.1-8.9-22.7-23.3-23.2-40.3c-0.9-24.9-0.2-49.9-0.2-75.3
	c8,0,15.9,0,23.8,0c1.2,1.7,0.6,3.6,0.6,5.4c0,20.3,0,40.7,0.1,61c0,3.2,0,6.4,0.5,9.5c2.8,16.4,14.9,25.4,32.3,24.3
	c15.2-1,25.8-11.8,26.2-28.1c0.5-22.1,0.2-44.3,0.2-66.5C730.4,97.2,730.4,95.4,730.4,93.4z"/>
<path id="l" class="st0" d="M634.3,214.4c-29.7,0-59.1,0-88.8,0c0-40.4,0-80.5,0-121c7.9,0,15.8,0,24.3,0c0,33,0,65.9,0,99.4
	c21.8,0,43,0,64.5,0C634.3,200.3,634.3,207,634.3,214.4z"/>
<path id="b" class="st0" d="M416.8,214.1c0-40.1,0-80.2,0-120.5c0.6-0.2,1.2-0.5,1.8-0.5c21.5,0.1,43-0.6,64.5,0.4
	c6.9,0.3,13.5,2,19.7,5.1c15.3,7.7,21.3,27.7,12.7,41.9c-2.1,3.5-4.9,6.2-8.4,8.4c-1.2,0.7-2.9,1-3,2.8c0.1,1.4,1.1,1.8,2,2.2
	c22.9,8.9,20.9,41.5,2.9,52.8c-7.6,4.7-15.8,7.5-24.5,7.6c-22,0.4-44,0.3-66,0.3C418,214.6,417.6,214.4,416.8,214.1z M441.5,193.1
	c14-0.4,27.7,0.7,41.5-0.7c2.5-0.2,4.8-1.4,6.9-2.8c9-5.9,8.9-18.4-0.3-24.1c-3.9-2.5-8.3-3.3-12.9-3.3c-10.5,0-21,0-31.4,0
	c-1.3,0-2.7-0.4-3.8,0.9C441.5,172.9,441.5,182.7,441.5,193.1z M441.4,144.3c13-0.5,25.4,0.6,37.9-0.6c2.9-0.3,5.5-1.3,7.9-2.9
	c4.3-3,6.3-7.3,5.9-12.5c-0.4-5.2-2.9-9.2-7.7-11.4c-2.9-1.4-6-2-9.2-2c-11-0.1-22-0.1-33-0.1c-0.6,0-1.2,0.4-1.8,0.6
	C441.4,124.8,441.4,134.1,441.4,144.3z"/>
<path id="bulb_line" class="st0" d="M116.5,488.3c34.7,0,68.4,0,102.4,0c0.7,4.9,0.4,9.3,0.3,14.1c-34.1,0-68,0-102.2,0
	C116,497.5,116.7,492.9,116.5,488.3z"/>
<path id="blub_line" class="st0" d="M269.9,460.8c0,4.9,0,9.3,0,14c-68.1,0-136.1,0-204.1,0c-1.1-4.1-1.3-8.9-0.4-14
	C133.5,460.8,201.6,460.8,269.9,460.8z"/>
<path id="bulb_line_1_" class="st0" d="M65.4,447.2c-1-4.7-0.3-9.1-0.5-13.8c68.5,0,136.6,0,205,0c0,4.8,0,9.1,0,13.8
	C201.8,447.2,133.7,447.2,65.4,447.2z"/>
<path id="bulb" class="st0" d="M80.1,405.7c63.1,0,126.3,0,189.8,0c0,4.9,0,9.3,0,14c-68.1,0-136.3,0-204.9,0c0-11.7,0-22.8,0-33.9
	c0-15.7-1.6-31.3-5.6-46.5c-2.6-10-6.1-19.7-10.4-29.1c-12.1-26.5-25.2-52.6-36.3-79.5C-29.3,129,37.6,15.1,146.6,1.3
	c107-13.5,199.1,76.8,187.5,183.9c-2.1,19.7-7.9,38.4-16.3,56.4c-11.2,23.8-22.2,47.7-33,71.7c-9.7,21.6-14.2,44.3-14.5,67.9
	c0,1.3-0.1,2.6-0.2,4.3c-21.6,0-43,0-65,0c0-20.8,0-41.4,0-62c-12.8-9.7-25.2-19.1-38.1-28.8c-12,8.6-23.9,17-36.1,25.7
	c0,21.6,0,43.2,0,65c-4.9,0.7-9.3,0.5-14.1,0.2c0-24.3,0-48.4,0-72.9c16.5-11.8,33.3-23.7,50.4-35.9c17.4,13.2,34.7,26.2,52.1,39.4
	c0,18.2,0,36.3,0,54.8c12.3,0,24.2,0,36.4,0c1-7.1,1.8-14.3,2.9-21.5c2.8-17,8.5-33.2,15.7-48.8c10.7-23.1,21.4-46.2,32-69.4
	c45.3-99.6-24-211.8-132.1-216.6c-80.8-3.6-149,54.8-158.9,135c-3.5,28.8,1.2,56.4,13.4,82.8c10.7,23.1,21.2,46.3,32,69.4
	c12.6,26.9,18.6,55.1,18.2,84.8c-0.1,5.8,0,11.7,0.1,17.5C79.4,404.3,79.6,404.6,80.1,405.7z"/>
</svg>
