<?xml version="1.0" encoding="utf-8"?>
<!-- Generator: Adobe Illustrator 22.0.1, SVG Export Plug-In . SVG Version: 6.00 Build 0)  -->
<svg version="1.1" id="Layer_1" xmlns="http://www.w3.org/2000/svg" xmlns:xlink="http://www.w3.org/1999/xlink" x="0px" y="0px"
	 viewBox="0 0 371 58" style="enable-background:new 0 0 371 58;" xml:space="preserve">
<style type="text/css">
	.st0{fill:#FFFFFF;}
	.st1{fill:#FFFFFF;stroke:#FFFFFF;stroke-width:3.8523;}
	.st2{fill:#0D0D0D;}
	.st3{fill:#171718;}
</style>
<path id="e" class="st0" d="M355.1,15.4c13.2,0,15.8,10.4,15.8,16c0,2.4,0,5.3-3.3,5.3h-24.1c0,8.1,4.7,13.4,12.5,13.4
	c4.8,0,7.6-1.8,9.9-3.6c0.5-0.3,0.8-0.5,1.5-0.5c1.4,0,2.4,1.1,2.4,2.4c0,1-0.4,1.4-1,1.9c-1.2,1.3-5.6,4.6-12.9,4.6
	c-11,0-17.8-6-17.8-19.8C338,22.5,344.3,15.4,355.1,15.4z M355.1,20.2c-7.1,0-11.1,4.6-11.6,11.9h22.2
	C365.6,26.3,363.5,20.2,355.1,20.2z"/>
<path id="v" class="st0" d="M318.7,52.9l-14.1-33.2c-0.1-0.3-0.3-0.6-0.3-1.1c0-1.5,1.2-2.6,2.6-2.6c1.5,0,2.2,1,2.5,1.7L321.2,46
	l11.6-28.3c0.3-0.8,1-1.7,2.5-1.7c1.5,0,2.6,1.1,2.6,2.6c0,0.6-0.1,1-0.3,1.1l-14.1,33.2c-0.5,1.1-1.4,1.6-2.5,1.6
	C320.1,54.5,319.2,53.9,318.7,52.9z"/>
<path id="o" class="st0" d="M305.6,35.1c0,13.4-6.6,19.8-17.4,19.8c-10.7,0-17.4-6.3-17.4-19.8c0-13.4,6.7-19.7,17.4-19.7
	C299,15.4,305.6,21.7,305.6,35.1z M300.2,35.1c0-10.3-4.4-14.9-12-14.9s-12,4.6-12,14.9c0,10.5,4.4,15.1,12,15.1
	C295.8,50.2,300.2,45.7,300.2,35.1z"/>
<path id="d" class="st0" d="M261.4,20.7v-6.6c0-1.5-0.2-2.6,1.3-2.6c1.5,0,4,1.1,4,2.6v24.6c0,10.8-6.8,16.2-16.2,16.2
	c-10.7,0-17-6.3-17-19.8c0-13.4,6-19.7,16.6-19.7C255.5,15.4,259.6,18.2,261.4,20.7z M261.4,27.4c0,0-3.1-7.3-10.9-7.3
	c-7.5,0-11.6,4.9-11.6,14.9c0,10.3,4,15.1,11.6,15.1c6.4,0,10.9-3.6,10.9-11.4V27.4z"/>
<path id="k" class="st0" d="M227.8,53.3l-14.6-18.7l-5,4v13.3c0,1.5-1.2,2.7-2.6,2.7s-2.6-1.1-2.6-2.7V14.2c0-1.5-0.2-2.6,1.3-2.6
	c1.5,0,4,1.1,4,2.6v18.2l19.5-15.9c0.7-0.6,1.3-0.7,1.8-0.7c1.5,0,2.7,1.1,2.7,2.6c0,0.7-0.3,1.5-1.1,2.2l-13.5,10.7l14.7,18.8
	c0.5,0.6,0.6,1.1,0.6,1.6c0,1.5-1.2,2.7-2.6,2.7C229.2,54.5,228.4,54.2,227.8,53.3z"/>
<path id="c" class="st0" d="M185.9,15.4c7.4,0,11.4,3.9,12.7,5.6c0.4,0.6,0.6,1,0.6,1.5c0,1.4-1.1,2.4-2.4,2.4c-0.8,0-1.4-0.3-2-1
	c-1.2-1.4-3.5-3.9-8.9-3.9c-7.6,0-11.6,4.9-11.6,14.9c0,10.3,4.1,15.1,11.6,15.1c4.8,0,7.7-2.2,9.6-3.6c0.6-0.4,1-0.6,1.5-0.6
	c1.3,0,2.4,1.1,2.4,2.4c0,0.7-0.3,1.3-1.1,2.1c-1.8,1.5-5.8,4.4-12.5,4.4c-10.7,0-17-6.3-17-19.8C168.8,21.7,175.2,15.4,185.9,15.4z
	"/>
<path id="a" class="st0" d="M141.1,24.5c-0.8,1-1.4,1.1-2.2,1.1c-1.3,0-2.4-1.1-2.4-2.4c0-0.6,0.1-1,0.4-1.4
	c2.3-3.6,6.8-6.5,13.7-6.5c9.6,0,14.9,5.6,14.9,14V52c0,1.4-1.2,2.6-2.6,2.6c-1.4,0-2.6-1.1-2.6-2.6v-2.9c-2.1,3.9-6.8,6-11.8,6
	c-8.8,0-14.3-4.2-14.3-11.7c0-7.3,5.6-11.5,14.5-11.5h11.7v-2.2c0-5.6-3.7-9.1-9.7-9.1C146.3,20.4,143.6,21.7,141.1,24.5z
	 M160.4,39.6v-3.4h-11.6c-5.3,0-9.1,2.2-9.1,7c0,4.2,3,7,9.4,7C154.9,50.2,160.4,46.6,160.4,39.6z"/>
<path id="l" class="st0" d="M128.1,14.2v30.7c0,3.3,1.1,4.7,3.3,4.7c1.4,0,2.5,1.1,2.5,2.5c0,1.4-1.2,2.5-2.5,2.5
	c-5.6,0-8.6-3.3-8.6-9.6V14.3c0-1.4-0.1-2.6,1.3-2.6C125.6,11.6,128.1,12.8,128.1,14.2z"/>
<path id="b" class="st0" d="M119.5,35.1c0,13.4-6.3,19.8-17,19.8c-9.4,0-16.2-5.3-16.2-16.2V14.2c0-1.5-0.2-2.6,1.3-2.6s4,1.1,4,2.6
	v6.6c1.9-2.6,6-5.3,11.2-5.3C113.6,15.4,119.5,21.7,119.5,35.1z M91.7,38.8c0,7.8,4.6,11.4,10.9,11.4c7.6,0,11.6-4.8,11.6-15.1
	c0-10.1-4.1-14.9-11.6-14.9c-7.8,0-10.9,7.3-10.9,7.3V38.8z"/>
<path id="white-outline-dove_2_" class="st1" d="M2.3,24.5c0-1.2,0-2.4,0.1-3.6c0.3-3.4,0.9-7,2-10.7C4.8,8.7,5.2,7.4,5.8,6l0.7-1.8
	l1.3,1.5c0,0,0.3,0.3,1,1c1.6,1.5,4.9,4.6,9.7,7.7c4.9,3.3,9.9,5.8,14.9,7.6c8.4-6.5,16-9.8,22.6-9.8c10.3,0,14.3,7.9,14.5,8.2
	l1.4,2.7L69,21.9c0,0-0.6-0.2-1.6-0.2c-2.9,0-8.3,1.8-11.8,13.7C52.2,46.7,39.4,55.9,27,55.9c-6.2,0-11.6-2.3-15.8-6.5
	c-4.8-5-7.8-12.3-8.9-21.8C2.3,27.4,2.3,24.5,2.3,24.5z"/>
<path id="back-wing-dove" class="st2" d="M12.9,48.3c0,0-10.7-9.4-9.5-27.1c0.2-3.2,0.8-6.7,1.9-10.4c0.4-1.3,0.8-2.7,1.4-4.1
	c0,0,0.3,0.3,1,1c1.6,1.5,5,4.6,9.8,7.8c7.6,5.1,18.9,10.7,31.7,10.7c1.7,0,3.1,0.1,4,0.3c0.3,0.1,0.4,0.1,0.6,0.2
	c0.5,0.2,0.8,0.5,1,0.8c0.7,1.7-4.3,4.8-11.1,8.1c-7,3.4-15.9,7-22.4,9.5c-3.6,1.4-6.4,2.4-7.7,2.9C13.2,48.2,12.9,48.3,12.9,48.3z"
	/>
<path id="front-dove" class="st3" d="M3.5,27.8c0,0,10.4,11,29.9-4.4C60,2.4,69.4,20.9,69.4,20.9s-9.8-3.5-15,14.3
	C48.2,56.3,8.3,69,3.5,27.8z"/>
</svg>
