<?xml version="1.0" encoding="utf-8"?>
<!-- Generator: Adobe Illustrator 26.2.1, SVG Export Plug-In . SVG Version: 6.00 Build 0)  -->
<svg version="1.1" id="Layer_1" xmlns="http://www.w3.org/2000/svg" xmlns:xlink="http://www.w3.org/1999/xlink" x="0px" y="0px"
	 viewBox="0 0 770.5 826.4" style="enable-background:new 0 0 770.5 826.4;" xml:space="preserve">
<style type="text/css">
	.st0{fill:#FA476F;}
	.st1{fill:#45D0EB;}
	.st2{fill:#664277;}
	.st3{fill:#172546;}
</style>
<g>
	<path class="st0" d="M276.8,276.8l108.5-108.6L262.1,45c-60-60-157.2-60-217.1,0s-60,157.2,0,217.1l231.7,231.7
		C216.8,433.9,216.8,336.7,276.8,276.8z"/>
	<path class="st1" d="M725.6,45c-60-60-157.2-60-217.1,0L385.3,168.2l108.6,108.6c60,60,60,157.2,0,217.1l231.7-231.7
		C785.5,202.2,785.5,105,725.6,45z"/>
	<path class="st2" d="M493.9,276.8L385.3,168.2L276.8,276.8c-60,60-60,157.2,0,217.1c60,60,157.2,60,217.1,0
		C553.8,433.9,553.8,336.7,493.9,276.8z"/>
	<g>
		<path class="st3" d="M102.9,673.9v35.2H71.5v114.4H27.3V709.1H0.1v-35.2h27.2v-57.3h44.2v57.3H102.9z"/>
		<path class="st3" d="M158.6,823.5h-44.5v-231h44.5v104.7c6.1-18.6,27.9-26.6,42-26.6c39.4,0,59.9,26.3,59.9,71.4v81.4
			c-7.4,0-37.2,0-44.5,0v-79.8c0-19.5-14.1-29.8-27.5-29.8c-14.1,0-29.8,7.7-29.8,30.4v79.3H158.6z"/>
		<path class="st3" d="M323.3,823.5h-44.5V673.9h44.5v36.2c7.7-27.9,26.9-39.4,42.3-39.4c10.6,0,18.6,1.9,25.6,5.4l-8,40
			c-8-3.8-15.7-4.5-22.7-4.5c-25.6,0-37.2,20.2-37.2,59.6L323.3,823.5L323.3,823.5z"/>
		<path class="st3" d="M421.9,592.5c15.1,0,27.2,11.2,27.2,25.9s-12.2,26.3-27.2,26.3c-15.1,0-27.9-11.5-27.9-26.3
			C394,603.7,406.9,592.5,421.9,592.5z M444,823.5h-44.2V673.9H444V823.5z"/>
		<path class="st3" d="M452.7,673.9h47.4l34.9,92.9l34.6-92.9h47.7l-63.4,149.6c0,0,0,0-38.1,0L452.7,673.9z"/>
		<path class="st3" d="M724.3,806.5c-9.6,14.4-32,19.9-43.6,19.9c-38.1,0-76.2-29.8-76.2-77.8s38.1-77.8,76.2-77.8
			c9.6,0,32,3.2,43.6,19.9V674h44.2v149.6h-44.2V806.5z M688.1,784.1c18.3,0,36.2-13.1,36.2-35.6c0-22.4-17.9-35.6-36.2-35.6
			c-18.6,0-37.5,14.1-37.5,35.6C650.6,770,669.5,784.1,688.1,784.1z"/>
	</g>
</g>
</svg>
