<?xml version="1.0" encoding="utf-8"?>
<!-- Generator: Adobe Illustrator 26.2.1, SVG Export Plug-In . SVG Version: 6.00 Build 0)  -->
<svg version="1.1" id="Layer_1" xmlns="http://www.w3.org/2000/svg" xmlns:xlink="http://www.w3.org/1999/xlink" x="0px" y="0px"
	 viewBox="0 0 454 139.8" style="enable-background:new 0 0 454 139.8;" xml:space="preserve">
<style type="text/css">
	.st0{fill:#24272C;}
</style>
<path class="st0" d="M315.4,135.3c-0.2-3.1-0.4-5.7-0.7-8.8c-0.9,0.7-1.5,0.9-1.8,1.4c-11.9,16.6-45.8,17.8-57.4-8.6
	c-9.2-21.1-8.1-42.6,3.3-62.7c13.1-23,42.3-23,55.4-8.7c0.2,0.2,0.6,0.2,0.8,0.3c4.6-13.9-4.2-21.6-14.8-28.6
	c17.6-6.7,34-13,51.3-19.6c0,2.7,0,4.8,0,6.9c0,35.2,0,70.3,0,105.5c0,1.2,0,2.3,0,3.5c0.3,10.1,1.9,12.1,11.6,14.4c0,1.5,0,3.1,0,5
	C347.3,135.3,331.6,135.3,315.4,135.3z M289.3,88.1c0.7,8.1,1,16.9,2.4,25.5c1.1,7.1,5,10.1,10.9,10.1c6,0,10.2-3.4,11.2-10.5
	c2.5-16.6,2.5-33.4,0.1-50c-1.1-7.5-5.2-10.8-11.5-10.8c-6,0-9.9,3.3-11,10.7C290.3,71.2,290,79.3,289.3,88.1z"/>
<path class="st0" d="M26.9,31.4c0,1.6,0,3.2,0,4.8c0,23.1,0,46.1,0.1,69.2c0,3.8,0.3,7.6,0.9,11.4c1,6.8,4.7,11.3,11.7,12.4
	c4.1,0.6,4.2,2.9,2.9,6.5c-12.2,0-24.5,0.1-36.7-0.1c-0.9,0-2.4-1.7-2.5-2.7c-0.1-1.1,1.1-3.1,1.9-3.2c11.9-1.8,14.1-10.4,14.1-20.1
	c0.2-29.9,0.2-59.7,0.1-89.6c0-1.6-1-3.8-2.2-4.6C11.9,11.9,6.4,9,1,6C0.7,6.4,0.3,6.8,0,7.1c0-1.7,0-3.4,0-5.7c4.4,0,8.5,0,12.6,0
	c13.8,0,27.6,0.2,41.4-0.1c3.9-0.1,5.9,1.3,7.8,4.6C75.9,32,90.3,58,104.6,84c0.3,0.6,0.7,1.1,1.5,2.6c0.2-2,0.4-3.2,0.4-4.3
	c0-17.1,0.1-34.2,0-51.3c0-3.5-0.4-6.9-0.9-10.4c-0.9-6.8-4.5-11.4-11.5-12.6c-3.9-0.6-4.5-2.7-3.3-6.1c0.7-0.2,1.5-0.5,2.3-0.5
	c11.1,0,22.3-0.1,33.4,0.1c1.3,0,2.6,1.6,3.9,2.4c-0.9,1.2-1.7,3.4-2.8,3.6c-9,1.8-12.7,7.8-13.2,16.3c-0.2,3-0.4,6-0.4,8.9
	c0,32.5-0.1,65,0.1,97.6c0,4.1-1.1,5.6-5.3,5.3c-6.1-0.3-12.3-0.3-18.5,0c-3.6,0.2-5.6-1.1-7.4-4.3c-17.4-32-35.1-64-52.6-96
	c-0.8-1.4-1.6-2.8-2.4-4.3C27.6,31.2,27.2,31.3,26.9,31.4z"/>
<path class="st0" d="M183.7,60.1c16.4-7.5,32.5-14.9,49.5-22.6c0.1,2.5,0.3,4.4,0.3,6.2c0,24.1,0,48.1,0,72.2
	c0,9.9,2,12.2,11.7,14.2c0,1.5,0,3.1,0,5.5c-4.2,0-8.3,0-12.4,0c-8.6,0-17.3,0-25.9,0c-6.6,0-6.6,0-6.6-6.3c0-1,0-2,0-3.6
	c-1,0.8-1.7,1.1-2.2,1.7c-10.6,11.7-24,14.3-38.7,11c-11.2-2.5-18.3-11.9-18.9-24.6c-0.5-10.4-0.7-20.9-0.4-31.3
	c0.2-6.5-2-11.1-7.6-14.5c-3.1-1.8-5.9-4.2-9.1-6.5c17.8-8,35.1-15.8,53.2-23.9c0,2.6,0,4.4,0,6.2c0,21.4,0,42.8,0,64.2
	c0,3,0.2,6,0.9,8.8c1.4,5.5,4.3,7.5,9.7,7.4c5.1-0.1,8.4-2.6,9-8.1c0.8-7.2,0.7-14.5,1-21.8c0.1-1.8-0.2-3.7,0-5.5
	c1.4-10.9-1.2-20-11.4-25.9c-0.7-0.4-1.2-1.1-1.8-1.7C183.9,61,183.9,60.6,183.7,60.1z"/>
<path class="st0" d="M399.9,80.1c1,15,6.5,26.6,19.1,34.1c11.4,6.8,21.3,5.9,34-2.8c1.2,4.7,0.8,8.4-2.9,12.1
	c-21,21-52.7,21.6-71.5,1.2c-16.3-17.8-17.3-45.8-2.5-67.2c11.4-16.5,34.3-23.7,53.1-16.7c16.4,6.1,23.6,20.4,24.6,35.9
	c0.3,3.7-2,3.5-4.5,3.5c-14.5,0-28.9,0-43.4,0C404.3,80.1,402.5,80.1,399.9,80.1z M398.6,72.7c6.4,0,11.1,0.2,15.7,0
	c10.5-0.5,12.5-2.9,11.8-13.6c-0.1-1.2-0.1-2.3-0.4-3.4c-1.2-5.8-4.3-9-9.2-9.6c-6.3-0.8-11.4,1.3-13.4,6.9
	C401,59,400.1,65.5,398.6,72.7z"/>
</svg>
