<?xml version="1.0" encoding="utf-8"?>
<!-- Generator: Adobe Illustrator 22.0.1, SVG Export Plug-In . SVG Version: 6.00 Build 0)  -->
<svg version="1.1" id="Layer_1" xmlns="http://www.w3.org/2000/svg" xmlns:xlink="http://www.w3.org/1999/xlink" x="0px" y="0px"
	 viewBox="0 0 534 693" style="enable-background:new 0 0 534 693;" xml:space="preserve">
<style type="text/css">
	.st0{fill:#FFFFFF;}
	.st1{fill:#FFFFFF;stroke:#FFFFFF;stroke-width:1.9997;}
	.st2{fill:#1A202E;stroke:#FFFFFF;stroke-width:12.18;}
</style>
<path id="Shape" class="st0" d="M403.7,191.3c40.9,23.1,72.7,54.9,95.7,95.9C522.5,327.7,534,374,534,424.8s-11.5,96.5-34.6,137.6
	c-23.1,41-54.8,72.8-95.7,95.9S317.2,693,267,693c-50.7,0-96.3-11.6-137.2-34.7c-40.4-23.1-72.1-55.5-95.2-95.9
	C11.5,521.3,0,475.7,0,424.8s11.5-96.5,34.6-137.6c23.1-40.5,54.8-72.8,95.2-95.9s86.5-34.7,137.2-34.7
	C317.2,156.6,362.7,168.2,403.7,191.3z M156.3,235.3C123.4,254.3,98,280.9,79,313.9c-18.5,33.5-28.3,70.5-28.3,111
	c0,41,9.2,78,28.3,111.5c18.5,33.5,44.4,59.5,77.3,78.6s69.8,28.9,110.7,28.9c40.4,0,77.3-9.8,110.1-28.9s58.2-45.7,77.3-78.6
	c18.5-33.5,28.3-70.5,28.3-111.5c0-40.5-9.2-77.4-28.3-111c-18.5-33.5-44.4-59.5-77.3-78.6s-69.2-28.9-110.1-28.9
	S189.1,215.6,156.3,235.3z"/>
<path id="Path" class="st1" d="M154,109.6L154,109.6c0,5.1,5.2,9.1,10.9,9.1c6.3,0,10.9-4,10.9-9.1V98.2c0-14.9,4-28,12-40
	c8-12,18.9-21.7,33.2-28.6s29.8-10.3,47.6-10.3c17.2,0,33.2,3.4,47,10.3c14.3,6.9,25.2,16.6,33.2,28.6s12,25.7,12,40v11.4
	c0,5.1,5.2,9.1,10.9,9.1s10.9-4,10.9-9.1V98.2c0-18.3-5.2-34.9-14.9-49.7s-23.5-26.3-41.2-34.9S289.2,1,268.1,1
	c-21.8,0-41.2,4-59,12.6c-17.2,8.6-30.9,20-40.7,34.9s-14.9,31.4-14.9,49.7L154,109.6z"/>
<ellipse id="Oval" class="st2" cx="268.1" cy="422.7" rx="103" ry="103.1"/>
<path class="st0" d="M271,274.4c1,0.9,1.8,2.2,2.4,3.9c0.5,1.7,0.8,3.7,0.8,6.1s-0.3,4.4-0.8,6.1c-0.5,1.7-1.3,3-2.4,3.9
	c-1,0.9-2.3,1.4-3.7,1.4c-2.2,0-3.9-1-5.1-3c-1.2-2-1.8-4.8-1.8-8.4c0-3.6,0.6-6.4,1.8-8.4c1.2-2,2.9-3,5.1-3
	C268.8,273,270,273.5,271,274.4z M264.4,278.3c-0.7,1.5-1,3.6-1,6c0,2.5,0.3,4.5,1,6c0.7,1.5,1.7,2.3,2.9,2.3c1.3,0,2.3-0.8,2.9-2.3
	s1-3.5,1-6c0-2.5-0.3-4.5-1-6c-0.7-1.5-1.7-2.3-2.9-2.3C266,276,265,276.8,264.4,278.3z"/>
<path class="st0" d="M162.5,310.5c-1-0.6-1.8-1.4-2.4-2.5c-0.6-1-0.9-2.2-0.9-3.6c0-1.3,0.3-2.5,0.9-3.5c0.6-1,1.4-1.9,2.4-2.5
	c1-0.6,2.2-0.9,3.5-0.9c1.3,0,2.5,0.3,3.6,0.9c1,0.6,1.8,1.4,2.4,2.5c0.6,1,0.9,2.2,0.9,3.5c0,1.5-0.4,2.8-1.1,4l-6.6,11
	c-0.3,0.5-0.8,0.8-1.3,0.8c-0.4,0-0.8-0.1-1.1-0.4c-0.3-0.3-0.4-0.6-0.4-1c0-0.3,0.1-0.6,0.2-0.8l4-6.6H166
	C164.7,311.3,163.5,311,162.5,310.5z M163.1,301.4c-0.8,0.8-1.1,1.8-1.1,3.1s0.4,2.3,1.1,3.1c0.8,0.8,1.7,1.2,2.9,1.2
	c1.2,0,2.1-0.4,2.9-1.2c0.8-0.8,1.1-1.8,1.1-3.1s-0.4-2.3-1.1-3.1c-0.7-0.8-1.7-1.2-2.9-1.2S163.9,300.6,163.1,301.4z"/>
<path class="st0" d="M186.9,298.9c1,0.9,1.8,2.2,2.4,3.9c0.5,1.7,0.8,3.7,0.8,6.1s-0.3,4.4-0.8,6.1c-0.5,1.7-1.3,3-2.4,3.9
	c-1,0.9-2.3,1.4-3.7,1.4c-2.2,0-3.9-1-5.1-3c-1.2-2-1.8-4.8-1.8-8.4c0-3.6,0.6-6.4,1.8-8.4c1.2-2,2.9-3,5.1-3
	C184.6,297.6,185.8,298,186.9,298.9z M180.2,302.9c-0.7,1.5-1,3.6-1,6c0,2.5,0.3,4.5,1,6c0.7,1.5,1.7,2.3,2.9,2.3
	c1.3,0,2.3-0.8,2.9-2.3s1-3.5,1-6c0-2.5-0.3-4.5-1-6c-0.7-1.5-1.7-2.3-2.9-2.3C181.8,300.6,180.9,301.3,180.2,302.9z"/>
<path class="st0" d="M346,302.2c-0.4,0-0.8-0.1-1.1-0.4c-0.3-0.3-0.4-0.6-0.4-1c0-0.3,0.1-0.6,0.2-0.9c0.2-0.2,0.4-0.4,0.7-0.5
	l4.5-1.6c0.2-0.1,0.4-0.1,0.6-0.1c0.4,0,0.8,0.1,1,0.4c0.3,0.3,0.4,0.6,0.4,1.1v19.7c0,0.4-0.1,0.8-0.4,1s-0.6,0.4-1.1,0.4
	c-0.4,0-0.7-0.1-1-0.4s-0.4-0.6-0.4-1v-17.7l-2.1,0.9C346.6,302.1,346.3,302.2,346,302.2z"/>
<path class="st0" d="M367,298.9c1,0.9,1.8,2.2,2.4,3.9c0.5,1.7,0.8,3.7,0.8,6.1s-0.3,4.4-0.8,6.1c-0.5,1.7-1.3,3-2.4,3.9
	c-1,0.9-2.3,1.4-3.7,1.4c-2.2,0-3.9-1-5.1-3c-1.2-2-1.8-4.8-1.8-8.4c0-3.6,0.6-6.4,1.8-8.4c1.2-2,2.9-3,5.1-3
	C364.7,297.6,366,298,367,298.9z M360.3,302.9c-0.7,1.5-1,3.6-1,6c0,2.5,0.3,4.5,1,6c0.7,1.5,1.7,2.3,2.9,2.3c1.3,0,2.3-0.8,2.9-2.3
	s1-3.5,1-6c0-2.5-0.3-4.5-1-6c-0.7-1.5-1.7-2.3-2.9-2.3C362,300.6,361,301.3,360.3,302.9z"/>
<path class="st0" d="M262.8,563.9c1.1,0.6,2,1.5,2.7,2.7c0.6,1.1,1,2.4,1,3.8c0,1.4-0.3,2.6-1,3.8c-0.6,1.1-1.5,2-2.7,2.7
	c-1.1,0.6-2.4,1-3.8,1c-1.4,0-2.6-0.3-3.8-1c-1.1-0.6-2-1.5-2.7-2.7c-0.6-1.1-1-2.4-1-3.8c0-0.4,0.1-0.8,0.4-1.1
	c0.3-0.3,0.6-0.4,1-0.4s0.8,0.1,1.1,0.4c0.3,0.3,0.4,0.6,0.4,1.1c0,0.8,0.2,1.6,0.6,2.3c0.4,0.7,0.9,1.2,1.6,1.6s1.4,0.6,2.2,0.6
	c0.8,0,1.6-0.2,2.3-0.6c0.7-0.4,1.2-0.9,1.6-1.6c0.4-0.7,0.6-1.4,0.6-2.3c0-0.8-0.2-1.6-0.6-2.3c-0.4-0.7-0.9-1.2-1.6-1.6
	c-0.7-0.4-1.4-0.6-2.3-0.6h-4.8c-0.4,0-0.8-0.1-1-0.4c-0.3-0.3-0.4-0.6-0.4-1.1v-7.8c0-0.4,0.1-0.8,0.4-1.1c0.3-0.3,0.6-0.4,1-0.4
	h9.7c0.4,0,0.8,0.2,1,0.5c0.3,0.3,0.4,0.7,0.4,1.1c0,0.4-0.1,0.7-0.4,1c-0.3,0.3-0.6,0.4-1.1,0.4h-8.2v4.9h3.4
	C260.4,562.9,261.7,563.3,262.8,563.9z"/>
<path class="st0" d="M280.2,556.4c1,0.9,1.8,2.2,2.4,3.9c0.5,1.7,0.8,3.7,0.8,6.1c0,2.3-0.3,4.4-0.8,6.1c-0.5,1.7-1.3,3-2.4,3.9
	s-2.3,1.4-3.7,1.4c-2.2,0-3.9-1-5.1-3c-1.2-2-1.8-4.8-1.8-8.4c0-3.6,0.6-6.4,1.8-8.4c1.2-2,2.9-3,5.1-3
	C277.9,555.1,279.1,555.5,280.2,556.4z M273.5,560.3c-0.7,1.5-1,3.6-1,6c0,2.5,0.3,4.5,1,6c0.7,1.5,1.7,2.3,2.9,2.3
	c1.3,0,2.3-0.8,2.9-2.3s1-3.5,1-6c0-2.5-0.3-4.5-1-6c-0.7-1.5-1.7-2.3-2.9-2.3C275.1,558,274.2,558.8,273.5,560.3z"/>
<path class="st0" d="M170.2,535.8c1,0.6,1.8,1.4,2.4,2.5c0.6,1,0.9,2.2,0.9,3.6c0,1.3-0.3,2.5-0.9,3.5c-0.6,1-1.4,1.9-2.4,2.5
	c-1,0.6-2.2,0.9-3.5,0.9c-1.3,0-2.5-0.3-3.6-0.9c-1-0.6-1.8-1.4-2.4-2.5s-0.9-2.2-0.9-3.5c0-1.5,0.4-2.8,1.1-4l6.6-11
	c0.3-0.5,0.8-0.8,1.3-0.8c0.4,0,0.8,0.1,1.1,0.4s0.4,0.6,0.4,1c0,0.3-0.1,0.6-0.2,0.8l-4,6.6h0.5C168,534.9,169.1,535.2,170.2,535.8
	z M169.5,544.9c0.8-0.8,1.1-1.8,1.1-3.1s-0.4-2.3-1.1-3.1c-0.8-0.8-1.7-1.2-2.9-1.2c-1.2,0-2.1,0.4-2.9,1.2
	c-0.8,0.8-1.1,1.8-1.1,3.1s0.4,2.3,1.1,3.1c0.7,0.8,1.7,1.2,2.9,1.2C167.8,546,168.8,545.7,169.5,544.9z"/>
<path class="st0" d="M186.9,527.3c1,0.9,1.8,2.2,2.4,3.9c0.5,1.7,0.8,3.7,0.8,6.1s-0.3,4.4-0.8,6.1c-0.5,1.7-1.3,3-2.4,3.9
	c-1,0.9-2.3,1.4-3.7,1.4c-2.2,0-3.9-1-5.1-3c-1.2-2-1.8-4.8-1.8-8.4c0-3.6,0.6-6.4,1.8-8.4c1.2-2,2.9-3,5.1-3
	C184.6,526,185.8,526.4,186.9,527.3z M180.2,531.3c-0.7,1.5-1,3.6-1,6c0,2.5,0.3,4.5,1,6c0.7,1.5,1.7,2.3,2.9,2.3
	c1.3,0,2.3-0.8,2.9-2.3s1-3.5,1-6c0-2.5-0.3-4.5-1-6c-0.7-1.5-1.7-2.3-2.9-2.3C181.8,529,180.9,529.7,180.2,531.3z"/>
<path class="st0" d="M110.5,457.4c-0.3-0.3-0.4-0.6-0.4-1.1c0-0.4,0.1-0.8,0.4-1.1c0.3-0.3,0.6-0.4,1.1-0.4h11c0.4,0,0.8,0.1,1,0.4
	s0.4,0.6,0.4,1c0,0.2-0.1,0.5-0.2,0.8l-9.3,19.6c-0.1,0.3-0.3,0.4-0.6,0.6c-0.3,0.1-0.5,0.2-0.8,0.2c-0.4,0-0.7-0.1-1-0.4
	s-0.4-0.6-0.4-1c0-0.3,0.1-0.6,0.3-0.9l8.3-17.3h-8.8C111.2,457.8,110.8,457.7,110.5,457.4z"/>
<path class="st0" d="M136.5,456.2c1,0.9,1.8,2.2,2.4,3.9c0.5,1.7,0.8,3.7,0.8,6.1s-0.3,4.4-0.8,6.1c-0.5,1.7-1.3,3-2.4,3.9
	c-1,0.9-2.3,1.4-3.7,1.4c-2.2,0-3.9-1-5.1-3c-1.2-2-1.8-4.8-1.8-8.4c0-3.6,0.6-6.4,1.8-8.4c1.2-2,2.9-3,5.1-3
	C134.2,454.8,135.5,455.3,136.5,456.2z M129.9,460.1c-0.7,1.5-1,3.6-1,6c0,2.5,0.3,4.5,1,6c0.7,1.5,1.7,2.3,2.9,2.3
	c1.3,0,2.3-0.8,2.9-2.3s1-3.5,1-6c0-2.5-0.3-4.5-1-6c-0.7-1.5-1.7-2.3-2.9-2.3C131.5,457.8,130.5,458.6,129.9,460.1z"/>
<path class="st0" d="M406.2,455.6c0.9,0.5,1.7,1.2,2.2,2c0.5,0.9,0.8,1.8,0.8,2.8s-0.3,1.9-1,2.7s-1.5,1.4-2.5,1.8
	c1.5,0.5,2.6,1.3,3.3,2.3c0.7,1,1.1,2.3,1.1,3.7c0,1.2-0.3,2.4-1,3.4c-0.6,1-1.5,1.8-2.6,2.4c-1.1,0.6-2.2,0.9-3.5,0.9
	c-1.4,0-2.7-0.3-3.8-0.9c-1.1-0.6-2-1.4-2.7-2.5s-1-2.2-1-3.6c0-0.4,0.1-0.8,0.4-1.1s0.6-0.4,1-0.4s0.7,0.1,1,0.4
	c0.3,0.3,0.4,0.6,0.4,1.1c0,0.8,0.2,1.5,0.6,2.2c0.4,0.7,1,1.2,1.7,1.6c0.7,0.4,1.5,0.6,2.3,0.6c1.3,0,2.3-0.4,3.1-1.1
	c0.8-0.7,1.2-1.7,1.2-3c0-0.8-0.2-1.5-0.5-2.2c-0.3-0.7-0.8-1.2-1.4-1.6c-0.6-0.4-1.3-0.6-2-0.6c-0.4,0-0.8-0.1-1.1-0.4
	s-0.4-0.6-0.4-1.1c0-0.4,0.1-0.8,0.4-1.1s0.6-0.4,1.1-0.4c0.5,0,1.1-0.1,1.6-0.4c0.5-0.3,0.9-0.7,1.2-1.1c0.3-0.5,0.5-1,0.5-1.6
	c0-0.9-0.3-1.6-0.9-2.1c-0.6-0.6-1.4-0.9-2.4-0.9c-0.7,0-1.4,0.1-2,0.4c-0.6,0.3-1.1,0.7-1.5,1.2c-0.4,0.5-0.5,1-0.5,1.6
	c0,0.4-0.1,0.8-0.4,1.1c-0.3,0.3-0.6,0.5-1,0.5c-0.4,0-0.7-0.1-1-0.4c-0.3-0.3-0.4-0.6-0.4-1.1c0-1.1,0.3-2.1,0.9-3
	c0.6-0.9,1.4-1.6,2.4-2.1c1-0.5,2.1-0.8,3.4-0.8C404.2,454.8,405.2,455.1,406.2,455.6z"/>
<path class="st0" d="M423.5,456.2c1,0.9,1.8,2.2,2.4,3.9c0.5,1.7,0.8,3.7,0.8,6.1s-0.3,4.4-0.8,6.1c-0.5,1.7-1.3,3-2.4,3.9
	c-1,0.9-2.3,1.4-3.7,1.4c-2.2,0-3.9-1-5.1-3c-1.2-2-1.8-4.8-1.8-8.4c0-3.6,0.6-6.4,1.8-8.4c1.2-2,2.9-3,5.1-3
	C421.2,454.8,422.4,455.3,423.5,456.2z M416.8,460.1c-0.7,1.5-1,3.6-1,6c0,2.5,0.3,4.5,1,6c0.7,1.5,1.7,2.3,2.9,2.3
	c1.3,0,2.3-0.8,2.9-2.3s1-3.5,1-6c0-2.5-0.3-4.5-1-6s-1.7-2.3-2.9-2.3C418.4,457.8,417.5,458.6,416.8,460.1z"/>
<path class="st0" d="M122.6,377.7c0.6,1,0.8,2.1,0.8,3.3c0,1.3-0.3,2.5-0.9,3.6c-0.6,1.1-1.4,1.9-2.4,2.5c-1,0.6-2.2,0.9-3.4,0.9
	c-1.3,0-2.4-0.3-3.4-0.9c-1-0.6-1.8-1.4-2.4-2.5s-0.9-2.2-0.9-3.6c0-1.2,0.3-2.3,0.8-3.3c0.6-1,1.3-1.8,2.3-2.4
	c-0.7-0.5-1.2-1.1-1.6-1.9s-0.6-1.6-0.6-2.5c0-1.1,0.3-2.1,0.8-2.9c0.5-0.9,1.2-1.6,2.1-2.1c0.9-0.5,1.9-0.8,3-0.8
	c1.1,0,2,0.2,2.9,0.7c0.9,0.5,1.5,1.2,2,2c0.5,0.9,0.7,1.8,0.7,2.9c0,0.9-0.2,1.7-0.6,2.5s-0.9,1.4-1.6,1.9
	C121.3,376,122.1,376.8,122.6,377.7z M119.5,378.2c-0.7-0.8-1.6-1.1-2.7-1.1c-1.1,0-2,0.4-2.7,1.2c-0.7,0.8-1.1,1.8-1.1,2.9
	c0,0.8,0.2,1.5,0.5,2.1c0.3,0.6,0.8,1.2,1.4,1.5s1.2,0.6,1.9,0.6c0.7,0,1.4-0.2,1.9-0.6c0.6-0.4,1-0.9,1.3-1.6s0.5-1.4,0.5-2.2
	C120.6,379.9,120.2,379,119.5,378.2z M114.7,373.2c0.6,0.6,1.2,0.9,2,0.9s1.5-0.3,2-0.9c0.5-0.6,0.8-1.4,0.8-2.3
	c0-0.9-0.3-1.6-0.8-2.1c-0.5-0.6-1.2-0.8-2-0.8c-0.8,0-1.5,0.3-2.1,0.9c-0.5,0.6-0.8,1.3-0.8,2.2
	C113.9,371.9,114.2,372.6,114.7,373.2z"/>
<path class="st0" d="M137.3,366.8c1,0.9,1.8,2.2,2.4,3.9c0.5,1.7,0.8,3.7,0.8,6.1s-0.3,4.4-0.8,6.1c-0.5,1.7-1.3,3-2.4,3.9
	c-1,0.9-2.3,1.4-3.7,1.4c-2.2,0-3.9-1-5.1-3c-1.2-2-1.8-4.8-1.8-8.4c0-3.6,0.6-6.4,1.8-8.4c1.2-2,2.9-3,5.1-3
	C135,365.4,136.3,365.9,137.3,366.8z M130.6,370.7c-0.7,1.5-1,3.6-1,6c0,2.5,0.3,4.5,1,6c0.7,1.5,1.7,2.3,2.9,2.3
	c1.3,0,2.3-0.8,2.9-2.3s1-3.5,1-6c0-2.5-0.3-4.5-1-6c-0.7-1.5-1.7-2.3-2.9-2.3C132.3,368.4,131.3,369.2,130.6,370.7z"/>
<path class="st0" d="M409.3,385.6c0.3,0.3,0.4,0.6,0.4,1c0,0.4-0.1,0.8-0.4,1s-0.6,0.4-1.1,0.4h-10.7c-0.4,0-0.8-0.1-1.1-0.4
	c-0.3-0.3-0.4-0.6-0.4-1c0-0.4,0.1-0.8,0.4-1l8.2-9.6c1.2-1.4,1.8-2.6,1.8-3.6c0-1.3-0.3-2.3-1-3c-0.6-0.8-1.5-1.1-2.7-1.1
	c-0.7,0-1.4,0.2-2,0.6s-1.1,0.9-1.4,1.5c-0.3,0.6-0.5,1.3-0.5,2.1c0,0.4-0.1,0.7-0.4,1s-0.6,0.4-1.1,0.4c-0.4,0-0.8-0.1-1-0.4
	s-0.4-0.6-0.4-1c0-1.3,0.3-2.5,0.9-3.5c0.6-1,1.4-1.9,2.5-2.5c1-0.6,2.2-0.9,3.5-0.9c1.3,0,2.4,0.3,3.4,0.8c1,0.6,1.7,1.4,2.3,2.4
	s0.8,2.2,0.8,3.6c0,0.9-0.2,1.7-0.7,2.7c-0.5,0.9-1.1,1.8-1.8,2.6l-6.6,7.5h8.1C408.7,385.2,409,385.3,409.3,385.6z"/>
<path class="st0" d="M423.3,366.8c1,0.9,1.8,2.2,2.4,3.9c0.5,1.7,0.8,3.7,0.8,6.1s-0.3,4.4-0.8,6.1c-0.5,1.7-1.3,3-2.4,3.9
	c-1,0.9-2.3,1.4-3.7,1.4c-2.2,0-3.9-1-5.1-3c-1.2-2-1.8-4.8-1.8-8.4c0-3.6,0.6-6.4,1.8-8.4c1.2-2,2.9-3,5.1-3
	C421,365.4,422.3,365.9,423.3,366.8z M416.6,370.7c-0.7,1.5-1,3.6-1,6c0,2.5,0.3,4.5,1,6c0.7,1.5,1.7,2.3,2.9,2.3
	c1.3,0,2.3-0.8,2.9-2.3s1-3.5,1-6c0-2.5-0.3-4.5-1-6c-0.7-1.5-1.7-2.3-2.9-2.3C418.3,368.4,417.3,369.2,416.6,370.7z"/>
<path class="st0" d="M357.1,541.2c0.3,0.2,0.4,0.6,0.4,1c0,0.4-0.1,0.7-0.4,0.9c-0.3,0.3-0.6,0.4-1,0.4h-1.7v3.7
	c0,0.4-0.1,0.8-0.4,1c-0.3,0.3-0.6,0.4-1,0.4c-0.4,0-0.7-0.1-1-0.4c-0.3-0.3-0.4-0.6-0.4-1v-3.7h-9.7c-0.4,0-0.8-0.1-1.1-0.4
	c-0.3-0.3-0.4-0.6-0.4-1c0-0.3,0.1-0.6,0.3-0.9l11.1-14.6c0.3-0.4,0.7-0.6,1.2-0.6c0.4,0,0.7,0.1,1,0.4c0.3,0.3,0.4,0.6,0.4,1.1
	v13.3h1.7C356.5,540.9,356.8,541,357.1,541.2z M351.5,540.9v-9.6l-7.3,9.6H351.5z"/>
<path class="st0" d="M370.8,527.4c1,0.9,1.8,2.2,2.4,3.9c0.5,1.7,0.8,3.7,0.8,6.1c0,2.3-0.3,4.4-0.8,6.1c-0.5,1.7-1.3,3-2.4,3.9
	c-1,0.9-2.3,1.4-3.7,1.4c-2.2,0-3.9-1-5.1-3c-1.2-2-1.8-4.8-1.8-8.4s0.6-6.4,1.8-8.4c1.2-2,2.9-3,5.1-3
	C368.5,526,369.8,526.5,370.8,527.4z M364.1,531.3c-0.7,1.5-1,3.6-1,6c0,2.5,0.3,4.5,1,6c0.7,1.5,1.7,2.3,2.9,2.3
	c1.3,0,2.3-0.8,2.9-2.3s1-3.5,1-6c0-2.5-0.3-4.5-1-6c-0.7-1.5-1.7-2.3-2.9-2.3C365.8,529,364.8,529.8,364.1,531.3z"/>
</svg>
