<?xml version="1.0" encoding="utf-8"?>
<!-- Generator: Adobe Illustrator 22.0.1, SVG Export Plug-In . SVG Version: 6.00 Build 0)  -->
<svg version="1.1" id="Layer_1" xmlns="http://www.w3.org/2000/svg" xmlns:xlink="http://www.w3.org/1999/xlink" x="0px" y="0px"
	 viewBox="0 0 348 61" style="enable-background:new 0 0 348 61;" xml:space="preserve">
<style type="text/css">
	.st0{fill:#FFFFFF;}
	.st1{fill:#1A202E;}
</style>
<path id="d_1_" class="st0" d="M347.1,0.8c0.5,0.5,0.8,1.3,0.8,2.2v27.1c0,3.1-0.7,5.9-2.2,8.4c-1.4,2.5-3.4,4.5-5.9,5.9
	c-2.5,1.4-5.3,2.2-8.3,2.2c-3.1,0-5.8-0.7-8.4-2.2c-2.5-1.4-4.5-3.4-5.9-5.9c-1.4-2.5-2.1-5.3-2.1-8.4s0.7-5.9,2-8.4
	c1.3-2.5,3.1-4.5,5.5-5.9s4.9-2.1,7.8-2.1c2.3,0,4.5,0.5,6.4,1.4c2,0.9,3.7,2.3,5.1,4V3c0-0.9,0.3-1.6,0.9-2.2
	c0.5-0.5,1.3-0.8,2.2-0.8C345.9,0,346.6,0.3,347.1,0.8z M336.9,39.9c1.6-1,2.9-2.3,3.8-4c0.9-1.7,1.4-3.6,1.4-5.7s-0.4-4-1.4-5.7
	c-0.9-1.7-2.2-3-3.8-4c-1.6-1-3.4-1.5-5.4-1.5c-2,0-3.8,0.5-5.4,1.5s-2.9,2.3-3.8,4s-1.4,3.6-1.4,5.7s0.4,4,1.4,5.7
	c0.9,1.7,2.2,3,3.8,4s3.4,1.5,5.4,1.5C333.6,41.4,335.4,40.9,336.9,39.9z"/>
<path id="n_2_" class="st0" d="M299.8,15.4c2.2,1.2,3.9,2.9,5.1,5.2c1.2,2.3,1.9,5.1,1.9,8.2v14.6c0,0.9-0.3,1.6-0.9,2.2
	c-0.5,0.5-1.3,0.9-2.2,0.9c-0.9,0-1.6-0.3-2.2-0.9c-0.5-0.5-0.9-1.3-0.9-2.2V28.9c0-3.2-0.9-5.7-2.6-7.3c-1.7-1.6-4-2.5-6.9-2.5
	c-1.6,0-3.2,0.3-4.6,1c-1.4,0.7-2.4,1.6-3.2,2.7c-0.8,1.2-1.2,2.4-1.2,3.8v16.8c0,0.9-0.3,1.6-0.8,2.2c-0.5,0.5-1.3,0.9-2.2,0.9
	c-0.9,0-1.6-0.3-2.2-0.9c-0.5-0.5-0.9-1.3-0.9-2.2V17c0-0.9,0.3-1.6,0.9-2.2c0.5-0.5,1.3-0.8,2.2-0.8c0.9,0,1.6,0.3,2.2,0.8
	c0.5,0.5,0.8,1.3,0.8,2.2v0.7c1.3-1.3,2.8-2.3,4.5-3c1.8-0.7,3.6-1,5.6-1C295.1,13.6,297.6,14.2,299.8,15.4z"/>
<path id="u" class="st0" d="M264.7,14.7c0.5,0.5,0.8,1.3,0.8,2.2v26.5c0,0.9-0.3,1.6-0.8,2.2c-0.5,0.5-1.3,0.9-2.2,0.9
	c-0.9,0-1.6-0.3-2.2-0.9c-0.5-0.5-0.9-1.3-0.9-2.2v-0.7c-1.3,1.3-2.8,2.3-4.5,3c-1.8,0.7-3.6,1-5.6,1c-2.7,0-5.2-0.6-7.4-1.8
	c-2.2-1.2-3.9-2.9-5.1-5.2c-1.2-2.3-1.9-5.1-1.9-8.2V16.9c0-0.9,0.3-1.6,0.9-2.2c0.5-0.5,1.3-0.9,2.2-0.9s1.6,0.3,2.2,0.9
	c0.5,0.5,0.9,1.3,0.9,2.2v14.6c0,3.2,0.9,5.7,2.6,7.3c1.7,1.6,4,2.5,6.9,2.5c1.6,0,3.2-0.3,4.6-1s2.4-1.6,3.2-2.7
	c0.8-1.2,1.2-2.4,1.2-3.8V16.9c0-0.9,0.3-1.6,0.9-2.2c0.5-0.5,1.3-0.8,2.2-0.8C263.3,13.8,264.1,14.1,264.7,14.7z"/>
<path id="f" class="st0" d="M222.4,7.7c-1.4,1.5-2,3.4-2,5.8v1.6h6c0.8,0,1.5,0.2,2,0.7c0.5,0.5,0.8,1.1,0.8,1.9
	c0,0.7-0.3,1.3-0.8,1.8c-0.5,0.5-1.2,0.7-2,0.7h-6v23.2c0,0.9-0.3,1.6-0.8,2.2c-0.5,0.5-1.3,0.8-2.3,0.8c-0.8,0-1.5-0.3-2-0.8
	c-0.5-0.5-0.9-1.3-0.9-2.2V20.2h-2.6c-0.8,0-1.5-0.2-2-0.7c-0.5-0.5-0.8-1-0.8-1.8c0-0.8,0.3-1.4,0.8-1.9c0.5-0.5,1.2-0.7,2-0.7h2.6
	v-1c0-2.8,0.5-5.3,1.7-7.4c1.2-2.1,2.7-3.8,4.8-4.9c2-1.2,4.4-1.8,7-1.8c0.9,0,1.6,0.3,2.2,0.8c0.5,0.5,0.9,1.2,0.9,2
	c0,0.8-0.3,1.4-0.9,2c-0.5,0.5-1.3,0.8-2.2,0.8C225.6,5.5,223.8,6.2,222.4,7.7z"/>
<path id="_x2E_" class="st0" d="M204.2,40.4c0.8,0.8,1.2,1.8,1.2,3c0,1.1-0.4,2.1-1.2,2.9c-0.8,0.8-1.8,1.2-2.9,1.2
	c-1.1,0-2.1-0.4-2.9-1.2s-1.2-1.8-1.2-2.9s0.4-2.1,1.2-3s1.8-1.2,2.9-1.2C202.4,39.2,203.4,39.6,204.2,40.4z"/>
<path id="y" class="st1" d="M194.2,16.5c0,0.4-0.1,0.9-0.3,1.4l-18.2,40.9c-0.5,1.2-1.3,1.9-2.3,1.9c-0.4,0-0.9-0.1-1.4-0.4
	c-1.2-0.5-1.8-1.3-1.8-2.3c0-0.5,0.1-0.9,0.4-1.4l5.9-13.4l-13.4-25.4c-0.2-0.3-0.3-0.8-0.3-1.3s0.2-1,0.5-1.4
	c0.3-0.4,0.7-0.8,1.3-1c0.4-0.2,0.8-0.2,1.2-0.2c1.1,0,1.9,0.5,2.5,1.6l10.9,21.7l9.6-21.6c0.5-1.2,1.3-1.7,2.3-1.7
	c0.5,0,1,0.1,1.4,0.3C193.6,14.7,194.2,15.5,194.2,16.5z"/>
<path id="n_1_" class="st1" d="M150.4,15.4c2.2,1.2,3.9,2.9,5.1,5.2c1.2,2.3,1.9,5.1,1.9,8.2v14.6c0,0.9-0.3,1.6-0.9,2.2
	c-0.5,0.5-1.3,0.9-2.2,0.9s-1.6-0.3-2.2-0.9c-0.5-0.5-0.9-1.3-0.9-2.2V28.9c0-3.2-0.9-5.7-2.6-7.3c-1.7-1.6-4-2.5-6.9-2.5
	c-1.6,0-3.2,0.3-4.6,1c-1.4,0.7-2.4,1.6-3.2,2.7c-0.8,1.2-1.2,2.4-1.2,3.8v16.8c0,0.9-0.3,1.6-0.8,2.2c-0.5,0.5-1.3,0.9-2.2,0.9
	c-0.9,0-1.6-0.3-2.2-0.9c-0.5-0.5-0.9-1.3-0.9-2.2V17c0-0.9,0.3-1.6,0.9-2.2c0.5-0.5,1.3-0.8,2.2-0.8c0.9,0,1.6,0.3,2.2,0.8
	c0.5,0.5,0.8,1.3,0.8,2.2v0.7c1.3-1.3,2.8-2.3,4.5-3c1.8-0.7,3.6-1,5.6-1C145.8,13.6,148.3,14.2,150.4,15.4z"/>
<path id="n" class="st1" d="M109.8,15.4c2.2,1.2,3.9,2.9,5.1,5.2s1.9,5.1,1.9,8.2v14.6c0,0.9-0.3,1.6-0.9,2.2
	c-0.5,0.5-1.3,0.9-2.2,0.9s-1.6-0.3-2.2-0.9c-0.5-0.5-0.9-1.3-0.9-2.2V28.9c0-3.2-0.9-5.7-2.6-7.3c-1.7-1.6-4-2.5-6.9-2.5
	c-1.6,0-3.2,0.3-4.6,1c-1.4,0.7-2.4,1.6-3.2,2.7c-0.8,1.2-1.2,2.4-1.2,3.8v16.8c0,0.9-0.3,1.6-0.8,2.2c-0.5,0.5-1.3,0.9-2.2,0.9
	c-0.9,0-1.6-0.3-2.2-0.9c-0.5-0.5-0.9-1.3-0.9-2.2V17c0-0.9,0.3-1.6,0.9-2.2c0.5-0.5,1.3-0.8,2.2-0.8c0.9,0,1.6,0.3,2.2,0.8
	c0.5,0.5,0.8,1.3,0.8,2.2v0.7c1.3-1.3,2.8-2.3,4.5-3c1.8-0.7,3.6-1,5.6-1C105.2,13.6,107.6,14.2,109.8,15.4z"/>
<path id="o" class="st1" d="M69.2,15.8c2.5,1.4,4.5,3.4,5.8,5.9c1.4,2.5,2.1,5.3,2.1,8.6c0,3.2-0.7,6-2.1,8.5
	c-1.4,2.5-3.3,4.5-5.8,5.9c-2.5,1.4-5.3,2.1-8.5,2.1c-3.2,0-6-0.7-8.5-2.1c-2.5-1.4-4.5-3.4-5.8-5.9c-1.3-2.5-2-5.4-2-8.6
	s0.7-6,2.1-8.6c1.4-2.5,3.4-4.5,5.8-5.9s5.3-2.1,8.5-2.1C63.9,13.7,66.7,14.4,69.2,15.8z M55.4,20.5c-1.6,0.9-2.9,2.3-3.8,4
	s-1.4,3.6-1.4,5.8s0.4,4.1,1.4,5.8c0.9,1.7,2.2,3,3.8,4s3.4,1.4,5.4,1.4s3.8-0.5,5.4-1.4s2.9-2.3,3.7-4c0.9-1.7,1.3-3.6,1.3-5.8
	s-0.4-4.1-1.3-5.8c-0.9-1.7-2.1-3-3.7-4c-1.6-0.9-3.4-1.4-5.4-1.4S57,19.5,55.4,20.5z"/>
<path id="d" class="st1" d="M25.8,3c3.5,2,6.2,4.7,8.1,8.2c1.9,3.5,2.9,7.5,2.9,12c0,4.5-1,8.5-2.9,12c-1.9,3.5-4.7,6.3-8.1,8.3
	c-3.5,2-7.5,3-12,3H3.1c-0.9,0-1.6-0.3-2.2-0.9C0.3,45,0,44.3,0,43.4V3.1c0-0.9,0.3-1.6,0.9-2.3C1.5,0.3,2.2,0,3.1,0h10.8
	C18.4,0,22.4,1,25.8,3z M22.7,38.7c2.6-1.5,4.6-3.6,6-6.3c1.4-2.7,2.2-5.8,2.2-9.2s-0.7-6.5-2.2-9.2c-1.4-2.7-3.5-4.8-6-6.3
	s-5.6-2.3-8.9-2.3H6.2v35.6h7.7C17.2,41,20.1,40.3,22.7,38.7z"/>
</svg>
