<?xml version="1.0" encoding="utf-8"?>
<!-- Generator: Adobe Illustrator 25.4.1, SVG Export Plug-In . SVG Version: 6.00 Build 0)  -->
<svg version="1.1" id="Layer_1" xmlns="http://www.w3.org/2000/svg" xmlns:xlink="http://www.w3.org/1999/xlink" x="0px" y="0px"
	 viewBox="0 0 292 43" style="enable-background:new 0 0 292 43;" xml:space="preserve">
<style type="text/css">
	.st0{fill-rule:evenodd;clip-rule:evenodd;fill:#FFFFFF;}
</style>
<g>
	<path class="st0" d="M78.7,7.5c4.5,0,8.1,1.5,11.1,4.6l0.2,0.2l4-3.9l-0.1-0.2C90.2,4.2,84.8,2,78.5,2C66,2,57,10.6,57,22.5
		S66,43,78.4,43c6.3,0,11.8-2.2,15.5-6.3l0.1-0.2l-4-3.9l-0.2,0.2c-3,3.1-6.7,4.7-11.1,4.7c-9,0-15.5-6.3-15.5-15S69.7,7.5,78.7,7.5
		 M111,37.8c-5.9,0-10-4.3-10-10.3c0-6.1,4.1-10.3,10-10.3c5.9,0,10,4.2,10,10.3C121,33.6,116.9,37.8,111,37.8 M111,12
		c-9.3,0-16,6.5-16,15.5c0,9,6.7,15.5,16,15.5c9.3,0,16-6.5,16-15.5C127,18.5,120.3,12,111,12 M145.1,37.8
		c-5.9,0-10.1-4.3-10.1-10.4c0-6.1,4.1-10.4,10.1-10.4c5.9,0,10,4.3,10,10.4C155.1,33.5,151,37.8,145.1,37.8z M155,16.2
		c-2.5-2.9-6.1-4.4-10.4-4.4c-9.2,0-15.6,6.4-15.6,15.6c0,9.2,6.4,15.6,15.6,15.6c4.4,0,8.2-1.7,10.6-4.7v4.3h5.7V0h-6L155,16.2
		L155,16.2z M180.1,17c4.9,0,8.6,3.3,9.3,8.1h-18.5C171.5,20.3,175.2,17,180.1,17 M180.1,12c-8.8,0-15.1,6.5-15.1,15.5
		c0,9.1,6.6,15.5,16.2,15.5c5,0,9.1-1.7,11.9-4.9l0.1-0.1l-3.3-3.8l-0.2,0.2c-2.1,2.3-4.9,3.5-8.4,3.5c-5.6,0-9.7-3.2-10.5-8.3h24
		l0-0.2c0.1-0.5,0.1-1.2,0.1-1.7C195,18.4,188.9,12,180.1,12 M222.3,33.6c-1.8,2.7-4.6,4.2-8.1,4.2c-6.1,0-10.2-4.2-10.2-10.3
		c0-6.1,4.2-10.3,10.2-10.3c3.5,0,6.3,1.4,8.1,4.2l0.1,0.2l4.6-2.9l-0.1-0.2c-2.4-4.1-7-6.5-12.6-6.5c-9.4,0-16.3,6.5-16.3,15.5
		c0,9,6.9,15.5,16.3,15.5c5.6,0,10.2-2.4,12.6-6.6l0.1-0.2l-4.6-2.8L222.3,33.6L222.3,33.6z M245,37.8c-5.9,0-10-4.3-10-10.3
		c0-6.1,4.1-10.3,10-10.3c5.9,0,10,4.2,10,10.3C255,33.6,250.9,37.8,245,37.8 M245,12c-9.3,0-16,6.5-16,15.5c0,9,6.7,15.5,16,15.5
		c9.3,0,16-6.5,16-15.5C261,18.5,254.3,12,245,12 M286.3,12l-10.2,23.4l-10-23.4H260l13.1,29.9l0.1,0.1h5.8L292,12H286.3z M22.5,0
		C10.1,0,0,10,0,22.2v0.1l3.8,2.2l0.1,0c2.4-1.6,5.3-2.2,8.2-1.7c2,0.4,3.9,1.3,5.4,2.7l0.7,0.6l0.4-0.8c0.4-0.8,0.8-1.5,1.2-2.2
		c0.2-0.3,0.4-0.5,0.6-0.8l0.4-0.5l-0.5-0.4c-2.1-1.7-4.6-2.9-7.3-3.4c-2.5-0.5-5.1-0.3-7.5,0.4c1.8-7.9,8.8-13.5,17.1-13.5
		c4.7,0,9.1,1.8,12.4,5.1c2.4,2.3,4,5.2,4.7,8.4c-1.5-0.5-3.1-0.7-4.7-0.7l-0.3,0c-0.6,0-1.2,0.1-1.9,0.1l-0.1,0
		c-0.2,0-0.5,0.1-0.7,0.1c-0.4,0.1-0.7,0.1-1.1,0.2l-0.3,0.1c-0.3,0.1-0.6,0.2-0.9,0.3l-0.1,0c-0.7,0.2-1.3,0.5-2,0.8l0,0
		c-0.3,0.1-0.6,0.3-0.9,0.5l-0.1,0c-1.5,0.9-2.9,2-4,3.4l-0.1,0.2c-0.3,0.4-0.5,0.7-0.7,0.9c-0.2,0.2-0.3,0.5-0.5,0.8l-0.1,0.2
		c-0.2,0.3-0.3,0.6-0.4,0.8l0,0.1c-0.3,0.6-0.6,1.3-0.8,2l0,0.1c-0.5,1.6-0.8,3.3-0.8,5.1l0,0.2c0,0.2,0,0.5,0,0.7
		c0,0.1,0,0.2,0,0.3c0,0.1,0,0.3,0,0.4l0,0.1l0,0.2c0,0.2,0.1,0.5,0.1,0.7c0.5,2.4,1.6,4.7,3.3,6.8l0.1,0.1l0.1-0.1
		c0.7-0.8,2.3-3.3,2.5-4.8l0,0l0,0c-0.8-1.5-1.2-3.2-1.2-4.8c0-5.6,4.4-10.3,10.1-10.6l0.4,0c2.3-0.1,4.6,0.6,6.5,1.9l0.1,0l3.8-2.2
		l0,0v-0.1c0-5.9-2.3-11.5-6.6-15.7C34.2,2.3,28.5,0,22.5,0"/>
</g>
</svg>
