<?xml version="1.0" encoding="utf-8"?>
<!-- Generator: Adobe Illustrator 22.0.1, SVG Export Plug-In . SVG Version: 6.00 Build 0)  -->
<svg version="1.1" id="Layer_1" xmlns="http://www.w3.org/2000/svg" xmlns:xlink="http://www.w3.org/1999/xlink" x="0px" y="0px"
	 viewBox="0 0 1007.2 543.2" style="enable-background:new 0 0 1007.2 543.2;" xml:space="preserve">
<style type="text/css">
	.st0{fill:#FFFFFF;}
	.st1{fill:#FFFFFF;stroke:#FFFFFF;stroke-width:1.0481;}
	.st2{fill:#1A202E;stroke:#FFFFFF;stroke-width:6.3841;}
</style>
<path id="Shape" class="st0" d="M442.5,100.3c21.4,12.1,38.1,28.8,50.2,50.3c12.1,21.2,18.1,45.5,18.1,72.1s-6,50.6-18.1,72.1
	c-12.1,21.5-28.7,38.2-50.2,50.3c-21.4,12.1-45.3,18.2-71.7,18.2c-26.6,0-50.5-6.1-71.9-18.2c-21.2-12.1-37.8-29.1-49.9-50.3
	c-12.1-21.5-18.1-45.4-18.1-72.1s6-50.6,18.1-72.1c12.1-21.2,28.7-38.2,49.9-50.3s45.3-18.2,71.9-18.2
	C397.1,82.1,421,88.2,442.5,100.3z M312.8,123.3c-17.2,10-30.6,23.9-40.5,41.2c-9.7,17.6-14.8,37-14.8,58.2
	c0,21.5,4.8,40.9,14.8,58.4c9.7,17.6,23.3,31.2,40.5,41.2s36.6,15.1,58,15.1c21.2,0,40.5-5.1,57.7-15.1c17.2-10,30.5-24,40.5-41.2
	c9.7-17.6,14.8-37,14.8-58.4c0-21.2-4.8-40.6-14.8-58.2c-9.7-17.6-23.3-31.2-40.5-41.2c-17.2-10-36.3-15.1-57.7-15.1
	S330,113,312.8,123.3z"/>
<path id="Path" class="st1" d="M311.6,57.4L311.6,57.4c0,2.7,2.7,4.8,5.7,4.8c3.3,0,5.7-2.1,5.7-4.8v-6c0-7.8,2.1-14.7,6.3-21
	c4.2-6.3,9.9-11.4,17.4-15c7.5-3.6,15.6-5.4,24.9-5.4c9,0,17.4,1.8,24.6,5.4c7.5,3.6,13.2,8.7,17.4,15s6.3,13.5,6.3,21v6
	c0,2.7,2.7,4.8,5.7,4.8s5.7-2.1,5.7-4.8v-6c0-9.6-2.7-18.3-7.8-26.1c-5.1-7.8-12.3-13.8-21.6-18.3s-19.6-6.6-30.6-6.6
	c-11.4,0-21.6,2.1-30.9,6.6c-9,4.5-16.2,10.5-21.3,18.3c-5.1,7.8-7.8,16.5-7.8,26.1L311.6,57.4z"/>
<ellipse id="Oval" class="st2" cx="371.4" cy="221.6" rx="54" ry="54"/>
<path class="st0" d="M372.9,143.8c0.5,0.5,0.9,1.2,1.3,2c0.3,0.9,0.4,1.9,0.4,3.2c0,1.3-0.2,2.3-0.4,3.2c-0.3,0.9-0.7,1.6-1.3,2
	c-0.5,0.5-1.2,0.7-1.9,0.7c-1.2,0-2-0.5-2.7-1.6c-0.6-1-0.9-2.5-0.9-4.4s0.3-3.4,0.9-4.4c0.6-1,1.5-1.6,2.7-1.6
	C371.7,143.1,372.4,143.4,372.9,143.8z M369.4,145.9c-0.4,0.8-0.5,1.9-0.5,3.1c0,1.3,0.2,2.4,0.5,3.1s0.9,1.2,1.5,1.2
	c0.7,0,1.2-0.4,1.5-1.2s0.5-1.8,0.5-3.1s-0.2-2.4-0.5-3.1s-0.9-1.2-1.5-1.2C370.3,144.7,369.8,145.1,369.4,145.9z"/>
<path class="st0" d="M316,162.7c-0.5-0.3-0.9-0.7-1.3-1.3c-0.3-0.5-0.5-1.2-0.5-1.9c0-0.7,0.2-1.3,0.5-1.8c0.3-0.5,0.7-1,1.3-1.3
	c0.5-0.3,1.2-0.5,1.8-0.5s1.3,0.2,1.9,0.5c0.5,0.3,0.9,0.7,1.3,1.3c0.3,0.5,0.5,1.2,0.5,1.8c0,0.8-0.2,1.5-0.6,2.1l-3.5,5.8
	c-0.2,0.3-0.4,0.4-0.7,0.4c-0.2,0-0.4-0.1-0.6-0.2c-0.2-0.2-0.2-0.3-0.2-0.5c0-0.2,0.1-0.3,0.1-0.4l2.1-3.5h-0.3
	C317.2,163.2,316.6,163,316,162.7z M316.3,158c-0.4,0.4-0.6,0.9-0.6,1.6c0,0.7,0.2,1.2,0.6,1.6c0.4,0.4,0.9,0.6,1.5,0.6
	s1.1-0.2,1.5-0.6c0.4-0.4,0.6-0.9,0.6-1.6c0-0.7-0.2-1.2-0.6-1.6c-0.4-0.4-0.9-0.6-1.5-0.6S316.8,157.6,316.3,158z"/>
<path class="st0" d="M328.8,156.7c0.5,0.5,0.9,1.2,1.3,2c0.3,0.9,0.4,1.9,0.4,3.2c0,1.3-0.2,2.3-0.4,3.2c-0.3,0.9-0.7,1.6-1.3,2
	c-0.5,0.5-1.2,0.7-1.9,0.7c-1.2,0-2-0.5-2.7-1.6c-0.6-1-0.9-2.5-0.9-4.4c0-1.9,0.3-3.4,0.9-4.4c0.6-1,1.5-1.6,2.7-1.6
	C327.6,156,328.2,156.2,328.8,156.7z M325.3,158.8c-0.4,0.8-0.5,1.9-0.5,3.1c0,1.3,0.2,2.4,0.5,3.1c0.4,0.8,0.9,1.2,1.5,1.2
	c0.7,0,1.2-0.4,1.5-1.2c0.3-0.8,0.5-1.8,0.5-3.1c0-1.3-0.2-2.4-0.5-3.1s-0.9-1.2-1.5-1.2C326.1,157.6,325.7,157.9,325.3,158.8z"/>
<path class="st0" d="M412.2,158.4c-0.2,0-0.4-0.1-0.6-0.2c-0.2-0.2-0.2-0.3-0.2-0.5c0-0.2,0.1-0.3,0.1-0.5c0.1-0.1,0.2-0.2,0.4-0.3
	l2.4-0.8c0.1-0.1,0.2-0.1,0.3-0.1c0.2,0,0.4,0.1,0.5,0.2c0.2,0.2,0.2,0.3,0.2,0.6v10.3c0,0.2-0.1,0.4-0.2,0.5
	c-0.2,0.1-0.3,0.2-0.6,0.2c-0.2,0-0.4-0.1-0.5-0.2c-0.2-0.2-0.2-0.3-0.2-0.5v-9.3l-1.1,0.5C412.5,158.3,412.4,158.4,412.2,158.4z"/>
<path class="st0" d="M423.2,156.7c0.5,0.5,0.9,1.2,1.3,2c0.3,0.9,0.4,1.9,0.4,3.2c0,1.3-0.2,2.3-0.4,3.2c-0.3,0.9-0.7,1.6-1.3,2
	c-0.5,0.5-1.2,0.7-1.9,0.7c-1.2,0-2-0.5-2.7-1.6s-0.9-2.5-0.9-4.4c0-1.9,0.3-3.4,0.9-4.4c0.6-1,1.5-1.6,2.7-1.6
	C422,156,422.7,156.2,423.2,156.7z M419.7,158.8c-0.4,0.8-0.5,1.9-0.5,3.1c0,1.3,0.2,2.4,0.5,3.1c0.4,0.8,0.9,1.2,1.5,1.2
	c0.7,0,1.2-0.4,1.5-1.2c0.3-0.8,0.5-1.8,0.5-3.1c0-1.3-0.2-2.4-0.5-3.1s-0.9-1.2-1.5-1.2S420.1,157.9,419.7,158.8z"/>
<path class="st0" d="M368.6,295.6c0.6,0.3,1,0.8,1.4,1.4c0.3,0.6,0.5,1.3,0.5,2c0,0.7-0.2,1.4-0.5,2c-0.3,0.6-0.8,1-1.4,1.4
	c-0.6,0.3-1.3,0.5-2,0.5c-0.7,0-1.4-0.2-2-0.5c-0.6-0.3-1-0.8-1.4-1.4c-0.3-0.6-0.5-1.3-0.5-2c0-0.2,0.1-0.4,0.2-0.6
	c0.2-0.2,0.3-0.2,0.5-0.2s0.4,0.1,0.6,0.2c0.2,0.2,0.2,0.3,0.2,0.6c0,0.4,0.1,0.8,0.3,1.2s0.5,0.6,0.8,0.8c0.4,0.2,0.7,0.3,1.2,0.3
	c0.4,0,0.8-0.1,1.2-0.3s0.6-0.5,0.8-0.8c0.2-0.4,0.3-0.7,0.3-1.2c0-0.4-0.1-0.8-0.3-1.2s-0.5-0.6-0.8-0.8c-0.4-0.2-0.7-0.3-1.2-0.3
	H364c-0.2,0-0.4-0.1-0.5-0.2c-0.2-0.2-0.2-0.3-0.2-0.6v-4.1c0-0.2,0.1-0.4,0.2-0.6c0.2-0.2,0.3-0.2,0.5-0.2h5.1
	c0.2,0,0.4,0.1,0.5,0.3c0.2,0.2,0.2,0.4,0.2,0.6s-0.1,0.4-0.2,0.5c-0.2,0.2-0.3,0.2-0.6,0.2h-4.3v2.6h1.8
	C367.3,295,368,295.3,368.6,295.6z"/>
<path class="st0" d="M377.7,291.6c0.5,0.5,0.9,1.2,1.3,2c0.3,0.9,0.4,1.9,0.4,3.2c0,1.2-0.2,2.3-0.4,3.2c-0.3,0.9-0.7,1.6-1.3,2
	s-1.2,0.7-1.9,0.7c-1.2,0-2-0.5-2.7-1.6c-0.6-1-0.9-2.5-0.9-4.4s0.3-3.4,0.9-4.4c0.6-1,1.5-1.6,2.7-1.6
	C376.5,291,377.1,291.2,377.7,291.6z M374.2,293.7c-0.4,0.8-0.5,1.9-0.5,3.1c0,1.3,0.2,2.4,0.5,3.1c0.4,0.8,0.9,1.2,1.5,1.2
	c0.7,0,1.2-0.4,1.5-1.2c0.3-0.8,0.5-1.8,0.5-3.1c0-1.3-0.2-2.4-0.5-3.1s-0.9-1.2-1.5-1.2C375,292.5,374.6,292.9,374.2,293.7z"/>
<path class="st0" d="M320.1,280.8c0.5,0.3,0.9,0.7,1.3,1.3c0.3,0.5,0.5,1.2,0.5,1.9c0,0.7-0.2,1.3-0.5,1.8c-0.3,0.5-0.7,1-1.3,1.3
	c-0.5,0.3-1.2,0.5-1.8,0.5s-1.3-0.2-1.9-0.5c-0.5-0.3-0.9-0.7-1.3-1.3c-0.3-0.6-0.5-1.2-0.5-1.8c0-0.8,0.2-1.5,0.6-2.1l3.5-5.8
	c0.2-0.3,0.4-0.4,0.7-0.4c0.2,0,0.4,0.1,0.6,0.2c0.2,0.2,0.2,0.3,0.2,0.5c0,0.2-0.1,0.3-0.1,0.4l-2.1,3.5h0.3
	C318.9,280.4,319.5,280.5,320.1,280.8z M319.7,285.6c0.4-0.4,0.6-0.9,0.6-1.6c0-0.7-0.2-1.2-0.6-1.6c-0.4-0.4-0.9-0.6-1.5-0.6
	c-0.6,0-1.1,0.2-1.5,0.6s-0.6,0.9-0.6,1.6c0,0.7,0.2,1.2,0.6,1.6c0.4,0.4,0.9,0.6,1.5,0.6C318.8,286.2,319.3,286,319.7,285.6z"/>
<path class="st0" d="M328.8,276.4c0.5,0.5,0.9,1.2,1.3,2c0.3,0.9,0.4,1.9,0.4,3.2s-0.2,2.3-0.4,3.2c-0.3,0.9-0.7,1.6-1.3,2
	c-0.5,0.5-1.2,0.7-1.9,0.7c-1.2,0-2-0.5-2.7-1.6c-0.6-1-0.9-2.5-0.9-4.4c0-1.9,0.3-3.4,0.9-4.4c0.6-1,1.5-1.6,2.7-1.6
	C327.6,275.7,328.2,275.9,328.8,276.4z M325.3,278.5c-0.4,0.8-0.5,1.9-0.5,3.1c0,1.3,0.2,2.4,0.5,3.1s0.9,1.2,1.5,1.2
	c0.7,0,1.2-0.4,1.5-1.2s0.5-1.8,0.5-3.1c0-1.3-0.2-2.4-0.5-3.1s-0.9-1.2-1.5-1.2C326.1,277.3,325.7,277.6,325.3,278.5z"/>
<path class="st0" d="M288.8,239.7c-0.2-0.2-0.2-0.3-0.2-0.6c0-0.2,0.1-0.4,0.2-0.6c0.2-0.2,0.3-0.2,0.6-0.2h5.8
	c0.2,0,0.4,0.1,0.5,0.2s0.2,0.3,0.2,0.5c0,0.1-0.1,0.3-0.1,0.4l-4.9,10.3c-0.1,0.2-0.2,0.2-0.3,0.3c-0.2,0.1-0.3,0.1-0.4,0.1
	c-0.2,0-0.4-0.1-0.5-0.2c-0.2-0.2-0.2-0.3-0.2-0.5c0-0.2,0.1-0.3,0.2-0.5l4.4-9.1h-4.6C289.1,240,288.9,239.9,288.8,239.7z"/>
<path class="st0" d="M302.4,239.1c0.5,0.5,0.9,1.2,1.3,2c0.3,0.9,0.4,1.9,0.4,3.2c0,1.3-0.2,2.3-0.4,3.2c-0.3,0.9-0.7,1.6-1.3,2
	c-0.5,0.5-1.2,0.7-1.9,0.7c-1.2,0-2-0.5-2.7-1.6c-0.6-1-0.9-2.5-0.9-4.4c0-1.9,0.3-3.4,0.9-4.4c0.6-1,1.5-1.6,2.7-1.6
	C301.2,238.4,301.9,238.6,302.4,239.1z M298.9,241.2c-0.4,0.8-0.5,1.9-0.5,3.1c0,1.3,0.2,2.4,0.5,3.1s0.9,1.2,1.5,1.2
	c0.7,0,1.2-0.4,1.5-1.2s0.5-1.8,0.5-3.1c0-1.3-0.2-2.4-0.5-3.1c-0.4-0.8-0.9-1.2-1.5-1.2C299.8,240,299.3,240.4,298.9,241.2z"/>
<path class="st0" d="M443.8,238.8c0.5,0.3,0.9,0.6,1.2,1c0.3,0.5,0.4,0.9,0.4,1.5s-0.2,1-0.5,1.4c-0.4,0.4-0.8,0.7-1.3,0.9
	c0.8,0.3,1.4,0.7,1.7,1.2c0.4,0.5,0.6,1.2,0.6,1.9c0,0.6-0.2,1.3-0.5,1.8c-0.3,0.5-0.8,0.9-1.4,1.3s-1.2,0.5-1.8,0.5
	c-0.7,0-1.4-0.2-2-0.5c-0.6-0.3-1-0.7-1.4-1.3s-0.5-1.2-0.5-1.9c0-0.2,0.1-0.4,0.2-0.6c0.2-0.2,0.3-0.2,0.5-0.2s0.4,0.1,0.5,0.2
	c0.2,0.2,0.2,0.3,0.2,0.6c0,0.4,0.1,0.8,0.3,1.2c0.2,0.4,0.5,0.6,0.9,0.8s0.8,0.3,1.2,0.3c0.7,0,1.2-0.2,1.6-0.6
	c0.4-0.4,0.6-0.9,0.6-1.6c0-0.4-0.1-0.8-0.3-1.2c-0.2-0.4-0.4-0.6-0.7-0.8c-0.3-0.2-0.7-0.3-1-0.3c-0.2,0-0.4-0.1-0.6-0.2
	c-0.2-0.2-0.2-0.3-0.2-0.6c0-0.2,0.1-0.4,0.2-0.6c0.2-0.2,0.3-0.2,0.6-0.2c0.3,0,0.6-0.1,0.8-0.2c0.3-0.2,0.5-0.4,0.6-0.6
	c0.2-0.3,0.3-0.5,0.3-0.8c0-0.5-0.2-0.8-0.5-1.1c-0.3-0.3-0.7-0.5-1.3-0.5c-0.4,0-0.7,0.1-1,0.2c-0.3,0.2-0.6,0.4-0.8,0.6
	c-0.2,0.3-0.3,0.5-0.3,0.8c0,0.2-0.1,0.4-0.2,0.6c-0.2,0.2-0.3,0.3-0.5,0.3c-0.2,0-0.4-0.1-0.5-0.2c-0.2-0.2-0.2-0.3-0.2-0.6
	c0-0.6,0.2-1.1,0.5-1.6c0.3-0.5,0.7-0.8,1.3-1.1c0.5-0.3,1.1-0.4,1.8-0.4C442.7,238.4,443.2,238.5,443.8,238.8z"/>
<path class="st0" d="M452.8,239.1c0.5,0.5,0.9,1.2,1.3,2c0.3,0.9,0.4,1.9,0.4,3.2c0,1.3-0.2,2.3-0.4,3.2c-0.3,0.9-0.7,1.6-1.3,2
	c-0.5,0.5-1.2,0.7-1.9,0.7c-1.2,0-2-0.5-2.7-1.6c-0.6-1-0.9-2.5-0.9-4.4c0-1.9,0.3-3.4,0.9-4.4c0.6-1,1.5-1.6,2.7-1.6
	C451.6,238.4,452.3,238.6,452.8,239.1z M449.3,241.2c-0.4,0.8-0.5,1.9-0.5,3.1c0,1.3,0.2,2.4,0.5,3.1s0.9,1.2,1.5,1.2
	c0.7,0,1.2-0.4,1.5-1.2c0.3-0.8,0.5-1.8,0.5-3.1c0-1.3-0.2-2.4-0.5-3.1s-0.9-1.2-1.5-1.2C450.2,240,449.7,240.4,449.3,241.2z"/>
<path class="st0" d="M295.1,198c0.3,0.5,0.4,1.1,0.4,1.7c0,0.7-0.2,1.3-0.5,1.9c-0.3,0.6-0.7,1-1.3,1.3c-0.5,0.3-1.2,0.5-1.8,0.5
	c-0.7,0-1.3-0.2-1.8-0.5c-0.5-0.3-0.9-0.7-1.3-1.3s-0.5-1.2-0.5-1.9c0-0.6,0.2-1.2,0.4-1.7c0.3-0.5,0.7-0.9,1.2-1.3
	c-0.4-0.3-0.6-0.6-0.8-1c-0.2-0.4-0.3-0.8-0.3-1.3c0-0.6,0.2-1.1,0.4-1.5c0.3-0.5,0.6-0.8,1.1-1.1s1-0.4,1.6-0.4s1,0.1,1.5,0.4
	c0.5,0.3,0.8,0.6,1,1c0.3,0.5,0.4,0.9,0.4,1.5c0,0.5-0.1,0.9-0.3,1.3s-0.5,0.7-0.8,1C294.4,197.1,294.9,197.5,295.1,198z
	 M293.5,198.2c-0.4-0.4-0.8-0.6-1.4-0.6s-1,0.2-1.4,0.6c-0.4,0.4-0.6,0.9-0.6,1.5c0,0.4,0.1,0.8,0.3,1.1c0.2,0.3,0.4,0.6,0.7,0.8
	s0.6,0.3,1,0.3s0.7-0.1,1-0.3c0.3-0.2,0.5-0.5,0.7-0.8c0.2-0.4,0.3-0.7,0.3-1.2C294.1,199.1,293.9,198.7,293.5,198.2z M291,195.6
	c0.3,0.3,0.6,0.5,1,0.5c0.4,0,0.8-0.2,1-0.5c0.3-0.3,0.4-0.7,0.4-1.2c0-0.5-0.2-0.8-0.4-1.1c-0.3-0.3-0.6-0.4-1-0.4
	c-0.4,0-0.8,0.2-1.1,0.5c-0.3,0.3-0.4,0.7-0.4,1.2C290.6,194.9,290.7,195.3,291,195.6z"/>
<path class="st0" d="M302.8,192.3c0.5,0.5,0.9,1.2,1.3,2c0.3,0.9,0.4,1.9,0.4,3.2c0,1.3-0.2,2.3-0.4,3.2c-0.3,0.9-0.7,1.6-1.3,2
	c-0.5,0.5-1.2,0.7-1.9,0.7c-1.2,0-2-0.5-2.7-1.6c-0.6-1-0.9-2.5-0.9-4.4c0-1.9,0.3-3.4,0.9-4.4c0.6-1,1.5-1.6,2.7-1.6
	C301.6,191.5,302.3,191.8,302.8,192.3z M299.3,194.3c-0.4,0.8-0.5,1.9-0.5,3.1c0,1.3,0.2,2.4,0.5,3.1c0.4,0.8,0.9,1.2,1.5,1.2
	c0.7,0,1.2-0.4,1.5-1.2c0.3-0.8,0.5-1.8,0.5-3.1c0-1.3-0.2-2.4-0.5-3.1c-0.4-0.8-0.9-1.2-1.5-1.2
	C300.2,193.1,299.7,193.5,299.3,194.3z"/>
<path class="st0" d="M445.4,202.1c0.2,0.2,0.2,0.3,0.2,0.5s-0.1,0.4-0.2,0.5c-0.2,0.1-0.3,0.2-0.6,0.2h-5.6c-0.2,0-0.4-0.1-0.6-0.2
	c-0.2-0.2-0.2-0.3-0.2-0.5s0.1-0.4,0.2-0.5l4.3-5c0.6-0.7,0.9-1.4,0.9-1.9c0-0.7-0.2-1.2-0.5-1.6c-0.3-0.4-0.8-0.6-1.4-0.6
	c-0.4,0-0.7,0.1-1,0.3c-0.3,0.2-0.6,0.5-0.7,0.8c-0.2,0.3-0.3,0.7-0.3,1.1c0,0.2-0.1,0.4-0.2,0.5c-0.2,0.2-0.3,0.2-0.6,0.2
	c-0.2,0-0.4-0.1-0.5-0.2c-0.1-0.2-0.2-0.3-0.2-0.5c0-0.7,0.2-1.3,0.5-1.8c0.3-0.5,0.7-1,1.3-1.3c0.5-0.3,1.2-0.5,1.8-0.5
	s1.3,0.2,1.8,0.4c0.5,0.3,0.9,0.7,1.2,1.3s0.4,1.2,0.4,1.9c0,0.5-0.1,0.9-0.4,1.4c-0.3,0.5-0.6,0.9-0.9,1.4l-3.5,3.9h4.2
	C445.1,201.9,445.2,202,445.4,202.1z"/>
<path class="st0" d="M452.7,192.3c0.5,0.5,0.9,1.2,1.3,2c0.3,0.9,0.4,1.9,0.4,3.2c0,1.3-0.2,2.3-0.4,3.2s-0.7,1.6-1.3,2
	c-0.5,0.5-1.2,0.7-1.9,0.7c-1.2,0-2-0.5-2.7-1.6c-0.6-1-0.9-2.5-0.9-4.4c0-1.9,0.3-3.4,0.9-4.4c0.6-1,1.5-1.6,2.7-1.6
	C451.5,191.5,452.2,191.8,452.7,192.3z M449.2,194.3c-0.4,0.8-0.5,1.9-0.5,3.1c0,1.3,0.2,2.4,0.5,3.1c0.4,0.8,0.9,1.2,1.5,1.2
	c0.7,0,1.2-0.4,1.5-1.2c0.3-0.8,0.5-1.8,0.5-3.1c0-1.3-0.2-2.4-0.5-3.1c-0.4-0.8-0.9-1.2-1.5-1.2
	C450.1,193.1,449.6,193.5,449.2,194.3z"/>
<path class="st0" d="M418,283.7c0.2,0.1,0.2,0.3,0.2,0.5c0,0.2-0.1,0.4-0.2,0.5c-0.2,0.2-0.3,0.2-0.5,0.2h-0.9v1.9
	c0,0.2-0.1,0.4-0.2,0.5c-0.2,0.2-0.3,0.2-0.5,0.2s-0.4-0.1-0.5-0.2c-0.2-0.2-0.2-0.3-0.2-0.5v-1.9h-5.1c-0.2,0-0.4-0.1-0.6-0.2
	c-0.2-0.2-0.2-0.3-0.2-0.5c0-0.2,0.1-0.3,0.2-0.5l5.8-7.7c0.2-0.2,0.4-0.3,0.6-0.3c0.2,0,0.4,0.1,0.5,0.2c0.2,0.2,0.2,0.3,0.2,0.6v7
	h0.9C417.7,283.5,417.9,283.6,418,283.7z M415.1,283.5v-5l-3.8,5H415.1z"/>
<path class="st0" d="M425.2,276.4c0.5,0.5,0.9,1.2,1.3,2c0.3,0.9,0.4,1.9,0.4,3.2c0,1.2-0.2,2.3-0.4,3.2s-0.7,1.6-1.3,2
	c-0.5,0.5-1.2,0.7-1.9,0.7c-1.2,0-2-0.5-2.7-1.6c-0.6-1-0.9-2.5-0.9-4.4c0-1.9,0.3-3.4,0.9-4.4c0.6-1,1.5-1.6,2.7-1.6
	C424,275.7,424.7,276,425.2,276.4z M421.7,278.5c-0.4,0.8-0.5,1.9-0.5,3.1c0,1.3,0.2,2.4,0.5,3.1s0.9,1.2,1.5,1.2
	c0.7,0,1.2-0.4,1.5-1.2c0.3-0.8,0.5-1.8,0.5-3.1c0-1.3-0.2-2.4-0.5-3.1s-0.9-1.2-1.5-1.2S422.1,277.7,421.7,278.5z"/>
<path id="s" class="st0" d="M145.7,96.1c13.9,8.1,25.1,18.8,32.7,31.7c1.5,2.8,2.5,5.3,2.5,8.4c0,4.6-2,7.9-6.3,10.6
	c-1.8,1-3.8,1.5-6.3,1.5c-2.8,0-4.8-0.5-7.4-1.8c-2-1.3-3.8-3-5.3-5.3c-12.9-20.8-32.7-30.9-59.1-31.2c-19,0-33.7,3.8-44.6,11.7
	S35.7,141,35.7,155.4c0,27.1,22.1,43.6,65.9,49.7c28.9,4.3,50.2,12.9,64.4,26.4c14.2,13.4,21.3,31.2,21.3,53.2
	c0,16.2-3.8,30.4-11.7,42.1c-7.9,11.7-18.8,20.8-32.4,27.1c-13.9,6.1-29.1,9.4-46.1,9.4c-22.1,0-41.8-4.8-58.8-14.2
	C21,339.4,8.9,326.7,1.5,310.8c-1-1.5-1.5-3.5-1.5-5.8c0-3.3,1.3-6.1,3.5-8.1s5.8-3.3,9.9-3.3c2.8,0,5.3,1,7.9,2.3s4.3,3.5,5.3,6.3
	c5.3,10.6,14.2,19,26.9,25.3c12.4,6.3,26.9,9.6,43.3,9.6c19,0,34.2-4.6,46.1-13.9c11.9-9.4,17.5-22.1,17.5-38.5
	c0-14.7-5.3-27.1-16.2-37s-27.1-16.2-48.7-19.3c-27.1-3.3-48.2-11.7-63.9-25.3c-15.5-13.4-23.1-30.4-23.1-49.9
	c0-13.9,3.8-26.1,11.4-36.8S38,97.6,51.5,92s28.6-8.4,45.4-8.4C115.6,83.7,131.8,87.7,145.7,96.1z"/>
<path id="c" class="st0" d="M727.2,91c13.9,4.8,27.1,12.7,39.8,23.6c2.5,1.8,3.8,4.6,3.8,8.1c0,1.8-0.5,3.5-1.5,5.1s-2,2.8-3.8,3.3
	c-0.5,1.5-1.5,3-3,3.8s-3.3,1.5-5.1,1.5c-3.5,0-6.3-1-8.6-3c-9.1-8.1-19-14.2-29.9-17.7s-23.1-5.8-37.3-5.8
	c-19.5,0-37.8,5.1-54.5,15.7c-17,10.1-30.2,24.3-40,41.8c-9.9,17.5-14.7,36.5-14.7,56.5c0,20.8,4.8,39.8,14.7,57
	c9.6,17.5,22.8,31.2,39.8,41.6c17,10.1,35,15.5,54.7,15.5c25.3,0,48.2-8.1,68.7-24.3c2.5-1.8,5.1-2.8,7.6-2.8c3.5,0,6.6,1.3,9.1,3.5
	s3.8,5.8,3.8,9.6c0,3.5-1.3,6.8-3.8,9.6c-22.1,19.8-50.2,30.2-85.4,30.2c-24.6,0-47.4-6.3-68.2-19s-37-29.4-49.4-50.9
	c-12.4-21.3-18.2-44.9-18.2-70.2c0-25.1,6.1-48.4,18-69.7c12.2-21.3,28.6-38.5,49.2-50.9c20.8-12.7,43.3-19,68.4-19
	C698.3,83.7,713.7,86.2,727.2,91z"/>
<path id="k" class="st0" d="M851.6,355.4c-2.8,2.8-5.8,3.8-9.6,3.8c-3.5,0-6.8-1.3-9.6-3.8c-2.8-2.5-3.8-6.1-3.8-9.6V100.9
	c0-3.5,1.3-6.8,3.8-9.6c2.8-2.8,6.1-3.8,9.6-3.8c3.8,0,7.4,1.3,9.6,3.8c2.5,2.8,3.8,5.8,3.8,9.6v118.6L982.9,92.3
	c3.3-3.3,6.8-4.8,10.9-4.8c3.8,0,6.8,1.3,9.4,3.5c2,2.3,3.3,5.1,3.3,8.6c0,4.3-1.5,7.9-4.6,11.2l-95.8,95.6l96.6,131.8
	c1.8,3,2.8,5.8,2.8,8.4c0,3.5-1.3,6.6-3.5,9.4c-2.3,2.8-5.3,3.8-9.1,3.8c-5.1,0-9.1-2-11.4-6.1l-94.8-128.5l-30.9,31.2v89.2
	C855.4,349.5,854.1,353.1,851.6,355.4z"/>
<path id="s_1_" class="st0" d="M62.6,462.6c4.8,2.3,8.6,5.3,11.7,9.4c1,1.3,1.3,2.3,1.3,3.3c0,1.8-1,3-2.5,4.3
	c-0.5,0.5-1.5,0.5-3,0.5c-2,0-3.8-0.5-5.3-2.3c-4.8-5.8-11.7-8.4-20.3-8.4c-5.3,0-9.9,1.3-13.2,3.3c-3.3,2.3-5.1,5.1-5.1,8.4
	c0,3.5,1.5,6.6,4.8,8.6c3,2,8.6,3.8,16.5,5.1c10.9,1.8,18.2,4.8,22.8,8.6c4.6,3.8,6.8,9.1,6.8,15c0,4.6-1.5,8.6-4.3,12.4
	c-2.8,3.5-6.6,6.3-11.4,8.4s-10.6,3-17,3s-12.2-1-17.7-3c-5.8-2-10.1-5.1-13.9-9.1c-1-1.3-1.5-2.3-1.5-3.5c0-1.8,1-3.3,2.5-4.6
	c1.3-1,2.5-1.3,3.5-1.3c1.8,0,3.3,0.5,4.6,2c2.5,2.8,5.8,5.1,9.6,6.6s8.4,2.3,13.2,2.3c6.8,0,12.4-1.3,15.7-3.5
	c3.5-2.3,5.3-5.3,5.3-9.4c0-3.5-1.8-6.6-5.3-9.1c-3.5-2.3-9.1-4.3-17-5.3c-9.9-1.5-17.2-4.6-22.1-8.4c-4.8-3.8-7.4-8.6-7.4-14.4
	c0-7.1,2.8-12.9,8.4-16.7s12.7-6.1,21.3-6.1C52,459,57.8,460.3,62.6,462.6z"/>
<path id="e" class="st0" d="M166.5,464.4c5.8,3.5,10.1,8.1,13.2,14.4c3,6.3,4.8,12.9,4.8,20.8c0,1.5-0.5,3-1.5,3.8
	c-1,1-2.5,1.5-3.8,1.5h-60.8c1,8.1,3.8,15,9.6,20.3s12.7,7.6,21,7.6c3.5,0,7.4-0.5,10.9-1.8c3.5-1.3,6.6-2.8,8.6-4.8
	c1.3-1,2.8-1.5,3.8-1.5c1.3,0,2,0.3,3.3,1.3c1.3,1.3,1.8,2.3,1.8,3.8c0,1.3-0.5,2.3-1.5,3.5c-3.3,2.8-7.6,5.1-12.7,6.8
	s-9.9,2.8-14.7,2.8c-8.1,0-15-1.8-21.3-5.3c-6.3-3.5-11.2-8.4-14.7-14.7c-3.5-6.3-5.3-13.4-5.3-21.5c0-8.1,1.8-15.5,5.1-21.5
	s8.1-11.4,13.9-15c6.1-3.5,12.7-5.3,20.5-5.3C154.1,459,160.7,461.1,166.5,464.4z M127.7,476.5c-5.1,4.8-8.1,10.9-9.4,18.8h55
	c-1-7.9-3.5-13.9-8.4-18.8c-4.8-4.8-10.9-7.1-18.2-7.1C139.4,469.4,132.8,471.7,127.7,476.5z"/>
<path id="c_1_" class="st0" d="M280.3,473.5c1,1,1.3,1.8,1.3,3c0,1.5-1,3-2.8,4.3c-1,0.5-1.8,1-2.8,1c-1.5,0-3-0.5-4.6-2.3
	c-3-3.3-6.3-5.8-9.9-7.6c-3.5-1.5-7.6-2.3-12.2-2.3c-5.3,0-10.6,1.3-14.7,3.8c-4.1,2.5-7.6,6.3-9.9,11.2c-2.5,4.8-3.5,10.1-3.5,16.2
	c0,6.1,1.3,11.2,3.5,16c2.5,4.8,6.1,8.4,10.6,11.2s9.6,3.8,15.7,3.8c8.1,0,14.4-2,19.3-6.6c1.3-1.3,2.8-1.5,4.3-1.5
	c1.3,0,2.5,0.3,3.3,1.3c1.5,1.3,2,2.3,2,3.8c0,1.3-0.5,2.3-1.5,3.3c-7.4,6.6-16.2,9.9-27.4,9.9c-7.9,0-14.7-1.8-21-5.3
	c-6.3-3.5-11.2-8.6-14.7-15s-5.3-13.4-5.3-21.3c0-8.1,1.8-15.5,5.1-21.5c3.3-6.3,8.1-11.4,14.2-15s12.7-5.3,20.5-5.3
	C262.3,459,272.5,463.9,280.3,473.5z"/>
<path id="u" class="st0" d="M391.1,461.6c1.3,1.3,1.8,2.3,1.8,4.3v70.7c0,1.8-0.5,3-1.8,4.3s-2.5,1.5-4.3,1.5s-3-0.5-4.3-1.5
	c-1.3-1.3-1.5-2.3-1.5-4.3v-5.1c-3.3,3.5-7.4,6.6-12.2,8.6c-4.8,2-9.9,3-15.5,3c-7.4,0-13.4-1.5-19.3-4.6c-5.8-3-10.1-7.6-13.2-13.2
	c-3.3-5.8-4.8-12.7-4.8-20.8v-39c0-1.5,0.5-3,1.5-3.8c1.3-1.3,2.5-1.5,4.3-1.5s3,0.5,4.3,1.5c1.3,1.3,1.8,2.3,1.8,3.8v39
	c0,9.1,2.5,15.7,7.6,20.5c4.8,4.6,11.4,6.8,19.5,6.8c4.8,0,9.4-1,13.2-3c3.8-1.8,7.4-4.6,9.4-7.9c2.5-3.3,3.3-7.1,3.3-11.2v-44.6
	c0-1.8,0.5-3,1.5-4.3c1.3-1,2.5-1.5,4.3-1.5C388.3,459.8,389.8,460.3,391.1,461.6z"/>
<path id="r" class="st0" d="M480.5,460.6c2.5,1.3,3.5,2.8,3.5,4.6c0,0.5,0,1,0,1.5c-0.3,1.5-1,2.3-1.8,2.8c-1,0.5-2,0.5-3.5,0.5
	c-1,0-2.5,0-4.6-0.3c-1,0-2,0-3.5,0c-7.6,0-13.4,2-18.2,6.1c-4.8,3.8-7.4,9.4-7.4,15.7v44.9c0,1.8-0.5,3.3-1.5,4.3
	c-1,1-2.5,1.5-4.3,1.5s-3.3-0.5-4.3-1.5c-1-1-1.5-2.3-1.5-4.3v-70.7c0-1.8,0.5-3.3,1.5-4.3c1-1,2.5-1.5,4.3-1.5s3.3,0.5,4.3,1.5
	c1,1,1.5,2.3,1.5,4.3v6.6c3-4.3,6.6-7.6,11.2-9.6c4.6-2.3,9.4-3.5,14.7-3.5C474.7,458.8,478,459.5,480.5,460.6z"/>
<path id="e_1_" class="st0" d="M564.4,464.4c5.8,3.5,10.1,8.1,13.2,14.4c3,6.3,4.8,12.9,4.8,20.8c0,1.5-0.5,3-1.5,3.8
	c-1,0.8-2.5,1.5-3.8,1.5h-60.8c1,8.1,3.8,15,9.6,20.3c5.8,5.1,12.7,7.6,21,7.6c3.5,0,7.4-0.5,10.9-1.8s6.6-2.8,8.6-4.8
	c1.3-1,2.8-1.5,3.8-1.5s2,0.3,3.3,1.3c1.3,1.3,1.8,2.3,1.8,3.8c0,1.3-0.5,2.3-1.5,3.5c-3.3,2.8-7.6,5.1-12.7,6.8s-9.9,2.8-14.7,2.8
	c-8.1,0-15-1.8-21.8-5.3c-6.3-3.5-11.2-8.4-14.7-14.7c-3.5-6.3-5.3-13.4-5.3-21.5c0-8.1,1.8-15.5,5.1-21.5s8.1-11.4,13.9-15
	c6.1-3.5,12.7-5.3,20.5-5.3C552.3,459,558.9,461.1,564.4,464.4z M525.9,476.5c-5.1,4.8-8.1,10.9-9.4,18.8h55
	c-1-7.9-3.5-13.9-8.4-18.8c-4.8-4.8-10.9-7.1-18.2-7.1C537.1,469.4,530.7,471.7,525.9,476.5z"/>
<path id="l" class="st0" d="M672.2,426.3c1.3-1,2.5-1.5,4.3-1.5c1.8,0,3,0.5,4.3,1.5c1,1.3,1.5,2.3,1.5,4.3v85.7
	c0,4.3,1,7.9,2.8,10.6c1.8,2.8,3.8,4.3,6.6,4.3h3.5c1.5,0,2.8,0.5,3.5,1.5c1,1.3,1.3,2.3,1.3,4.3s-0.5,3-1.8,4.3s-3,1.5-4.8,1.5
	h-1.8c-6.1,0-11.2-2.3-15-7.1s-5.8-11.2-5.8-18.8v-85.7C670.6,428.9,671.1,427.4,672.2,426.3z"/>
<path id="o_1_" class="st0" d="M783.7,464.6c6.3,3.5,11.4,8.6,15,15c3.5,6.3,5.3,13.4,5.3,21.3c0,7.9-1.8,15-5.3,21.3
	c-3.5,6.3-8.6,11.4-15,15c-6.3,3.5-13.4,5.3-21.3,5.3s-15-1.8-21.3-5.3c-6.3-3.5-11.4-8.6-15-15c-3.5-6.3-5.3-13.4-5.3-21.3
	c0-7.9,1.8-15,5.3-21.3c3.5-6.3,8.6-11.4,15-15c6.3-3.5,13.4-5.3,21.3-5.3C770.5,459,777.3,461.1,783.7,464.6z M746.9,473.5
	c-4.6,2.8-8.4,6.3-10.9,11.2c-2.8,4.8-3.8,10.1-3.8,16.2c0,6.1,1.3,11.2,3.8,16c2.8,4.8,6.3,8.4,10.9,11.2c4.8,2.8,9.9,3.8,15.7,3.8
	c5.8,0,11.2-1.5,15.7-3.8c4.6-2.8,8.1-6.3,10.9-11.2c2.8-4.8,3.8-10.1,3.8-16c0-6.1-1.3-11.4-3.8-16.2c-2.8-4.8-6.3-8.4-10.9-11.2
	c-4.6-2.8-9.9-3.8-15.7-3.8C756.6,469.7,751.5,471,746.9,473.5z"/>
<path id="c_2_" class="st0" d="M906.4,473.5c1,1,1.3,1.8,1.3,3c0,1.5-1,3-2.5,4.3c-1,0.5-1.8,1-3,1c-1.5,0-3-0.5-4.6-2.3
	c-3-3.3-6.3-5.8-9.9-7.6c-3.5-1.5-7.6-2.3-12.2-2.3c-5.3,0-10.6,1.3-14.7,3.8c-4.3,2.8-7.6,6.3-9.9,11.2c-2.5,4.8-3.5,10.1-3.5,16.2
	c0,6.1,1.3,11.2,3.5,16c2.3,4.8,6.1,8.4,10.6,11.2c4.6,2.8,9.6,3.8,15.7,3.8c8.1,0,14.4-2,19.5-6.6c1.3-1.3,2.8-1.5,3.8-1.5
	s2.5,0.3,3.3,1.3c1.5,1.3,2,2.3,2,3.8c0,1.3-0.5,2.3-1.5,3.3c-7.4,6.6-16.2,9.9-27.4,9.9c-7.9,0-14.7-1.8-21-5.3
	c-6.3-3.5-11.2-8.6-14.7-15s-5.3-13.4-5.3-21.3c0-8.1,1.8-15.5,5.1-21.5c3.3-6.3,8.1-11.4,14.2-15s12.7-5.3,20.5-5.3
	C888.4,459,898.5,463.9,906.4,473.5z"/>
<path id="k_1_" class="st0" d="M1007.2,537.4c0,1.5-0.5,2.8-2,3.8c-1.3,1-2.5,1.5-3.5,1.5c-1.5,0-3-0.5-3.8-2l-30.9-38.3l-11.4,10.1
	v23.6c0,1.8-0.5,3-1.5,4.3c-1.3,1.3-2.5,1.5-4.3,1.5c-1.8,0-3-0.5-4.3-1.5c-1.3-1-1.5-2.3-1.5-4.3V430.4c0-1.8,0.5-3,1.5-4.3
	c1-1,2.5-1.5,4.3-1.5c1.8,0,3,0.5,4.3,1.5c1,1.3,1.5,2.3,1.5,4.3v68.4l42.6-38.5c1.3-1,2.5-1.5,3.5-1.5c1.5,0,2.8,0.5,3.5,1.8
	c1.3,1.3,1.5,2.3,1.5,3.5c0,1.5-0.5,2.8-2,3.5l-30.2,27.1l31.4,38.5C1007,535.1,1007.2,536.1,1007.2,537.4z"/>
</svg>
