<?xml version="1.0" encoding="utf-8"?>
<!-- Generator: Adobe Illustrator 22.0.1, SVG Export Plug-In . SVG Version: 6.00 Build 0)  -->
<svg version="1.1" id="Logo_x2B_Wordmark" xmlns="http://www.w3.org/2000/svg" xmlns:xlink="http://www.w3.org/1999/xlink" x="0px"
	 y="0px" viewBox="0 0 1986 581.5" style="enable-background:new 0 0 1986 581.5;" xml:space="preserve">
<style type="text/css">
	.st0{fill:#1C2F7E;}
	.st1{fill:#FFA20D;}
</style>
<path id="n" class="st0" d="M1676.6,246.1c5.9-1.5,13.9-3.1,23.7-4.7c9.9-1.7,21.2-2.5,34-2.5c11.5,0,21.1,1.6,28.7,4.9
	c7.6,3.3,13.7,7.8,18.3,13.7c4.6,5.9,7.8,12.9,9.6,21.1c1.9,8.2,2.8,17.2,2.8,27.1V387h-25.9v-75.9c0-8.9-0.6-16.6-1.8-22.9
	c-1.2-6.3-3.2-11.4-6-15.3c-2.8-3.9-6.5-6.7-11.2-8.5c-4.6-1.8-10.4-2.7-17.3-2.7c-2.8,0-5.7,0.1-8.6,0.3c-3,0.2-5.8,0.4-8.5,0.7
	c-2.7,0.3-5.1,0.6-7.3,1c-2.1,0.4-3.7,0.7-4.6,0.8V387h-25.9V246.1z"/>
<path id="i" class="st0" d="M1618.9,215.7c-4.7,0-8.6-1.5-11.9-4.6c-3.3-3.1-4.9-7.2-4.9-12.4c0-5.2,1.6-9.3,4.9-12.4
	c3.2-3.1,7.2-4.6,11.9-4.6c4.6,0,8.6,1.5,11.9,4.6c3.2,3.1,4.9,7.2,4.9,12.4c0,5.2-1.6,9.3-4.9,12.4
	C1627.5,214.2,1623.5,215.7,1618.9,215.7z M1632,387H1606V241.9h25.9V387z"/>
<path id="a" class="st0" d="M1507.3,238.3c10.4,0,19.2,1.4,26.4,4c7.2,2.7,12.9,6.5,17.3,11.4c4.4,4.9,7.5,10.8,9.3,17.6
	c1.9,6.8,2.8,14.3,2.8,22.5v90.7c-2.2,0.4-5.3,0.9-9.3,1.5c-4,0.7-8.5,1.3-13.5,1.8c-5,0.6-10.5,1.1-16.3,1.5
	c-5.9,0.5-11.7,0.7-17.4,0.7c-8.2,0-15.7-0.8-22.6-2.5c-6.9-1.7-12.8-4.3-17.9-8c-5-3.6-8.9-8.4-11.7-14.4
	c-2.8-5.9-4.2-13.1-4.2-21.5c0-8,1.6-14.9,4.9-20.6c3.3-5.8,7.7-10.4,13.3-14c5.6-3.5,12.1-6.1,19.5-7.8c7.4-1.7,15.2-2.5,23.4-2.5
	c2.6,0,5.3,0.1,8.1,0.4c2.8,0.3,5.4,0.7,8,1.1c2.5,0.5,4.7,0.9,6.6,1.3c1.9,0.4,3.2,0.7,3.9,0.8v-7.3c0-4.3-0.5-8.5-1.4-12.7
	c-0.9-4.2-2.6-7.9-5-11.2c-2.4-3.2-5.7-5.9-9.9-7.8c-4.2-2-9.6-2.9-16.3-2.9c-8.6,0-16,0.6-22.5,1.8c-6.4,1.2-11.2,2.5-14.4,3.8
	l-3.1-21.5c3.3-1.5,8.9-2.9,16.7-4.3C1489.7,239,1498.2,238.3,1507.3,238.3z M1509.5,368.3c6.1,0,11.6-0.1,16.3-0.4
	c4.7-0.3,8.7-0.8,11.9-1.5v-43.2c-1.9-0.9-4.9-1.7-9.1-2.4c-4.2-0.6-9.3-1-15.2-1c-3.9,0-8,0.3-12.4,0.8c-4.4,0.6-8.4,1.7-12,3.5
	c-3.6,1.8-6.6,4.2-9.1,7.3c-2.4,3.1-3.6,7.1-3.6,12.1c0,9.3,3,15.8,8.9,19.4C1491.2,366.5,1499.3,368.3,1509.5,368.3z"/>
<path id="r_1_" class="st0" d="M1406.3,238.9c2.2,0,4.8,0.1,7.7,0.4c2.9,0.3,5.7,0.7,8.5,1.1c2.8,0.5,5.3,0.9,7.7,1.4
	c2.3,0.5,4,0.9,5.2,1.3l-4.5,22.6c-2-0.7-5.4-1.6-10.2-2.7c-4.7-1-10.8-1.5-18.3-1.5c-4.8,0-9.6,0.5-14.4,1.5
	c-4.7,1-7.9,1.7-9.3,2.1V387h-25.9V248.1c6.1-2.2,13.8-4.3,22.9-6.3C1384.7,239.8,1394.9,238.9,1406.3,238.9z"/>
<path id="g" class="st0" d="M1282.4,372.5c-2.2,1.5-6.6,3.4-13,5.7c-6.4,2.3-13.9,3.5-22.5,3.5c-8.7,0-17-1.4-24.7-4.2
	c-7.7-2.8-14.5-7.1-20.2-13c-5.8-5.9-10.3-13.2-13.7-21.9c-3.3-8.7-5-19.2-5-31.3c0-10.6,1.6-20.3,4.7-29.2
	c3.2-8.8,7.8-16.5,13.8-22.9c6-6.4,13.4-11.4,22.2-15.1c8.7-3.6,18.6-5.4,29.6-5.4c12.1,0,22.6,0.9,31.7,2.7
	c9,1.8,16.6,3.4,22.7,4.9v129.5c0,22.3-5.8,38.5-17.3,48.6c-11.5,10-29,15.1-52.5,15.1c-9.1,0-17.7-0.7-25.8-2.2
	c-8.1-1.5-15.1-3.3-21.1-5.3l4.7-22.6c5.2,2,11.6,3.9,19.1,5.4c7.5,1.6,15.4,2.4,23.6,2.4c15.4,0,26.5-3.1,33.3-9.2
	c6.8-6.1,10.2-15.9,10.2-29.3V372.5z M1282.1,264.8c-2.6-0.7-6.1-1.4-10.5-2.1c-4.4-0.6-10.3-1-17.7-1c-14,0-24.7,4.6-32.2,13.7
	c-7.5,9.1-11.3,21.2-11.3,36.3c0,8.4,1.1,15.5,3.2,21.5c2.1,6,5,10.9,8.7,14.8c3.6,3.9,7.8,6.8,12.6,8.6c4.7,1.9,9.6,2.8,14.6,2.8
	c6.9,0,13.2-1,19-2.9c5.8-2,10.3-4.2,13.7-6.8V264.8z"/>
<path id="r" class="st0" d="M1137.3,238.9c2.2,0,4.8,0.1,7.7,0.4c2.9,0.3,5.7,0.7,8.5,1.1c2.8,0.5,5.3,0.9,7.7,1.4
	c2.3,0.5,4,0.9,5.2,1.3l-4.5,22.6c-2-0.7-5.4-1.6-10.2-2.7c-4.7-1-10.8-1.5-18.3-1.5c-4.8,0-9.6,0.5-14.4,1.5
	c-4.7,1-7.9,1.7-9.4,2.1V387h-25.9V248.1c6.1-2.2,13.8-4.3,22.9-6.3C1115.7,239.8,1126,238.9,1137.3,238.9z"/>
<path id="e" class="st0" d="M919.7,314.7c0-12.8,1.9-24,5.6-33.6c3.7-9.6,8.6-17.5,14.8-23.9c6.1-6.3,13.2-11.1,21.2-14.2
	c8-3.2,16.2-4.7,24.6-4.7c19.5,0,34.5,6.1,44.9,18.3c10.4,12.2,15.6,30.7,15.6,55.7c0,1.1,0,2.6,0,4.3c0,1.8-0.1,3.4-0.3,4.9h-99.3
	c1.1,15.1,5.5,26.5,13.1,34.3c7.6,7.8,19.5,11.7,35.7,11.7c9.1,0,16.8-0.8,23-2.4c6.2-1.6,10.9-3.1,14.1-4.6l3.6,21.8
	c-3.2,1.7-8.7,3.4-16.6,5.3c-7.9,1.9-16.9,2.8-26.9,2.8c-12.7,0-23.6-1.9-32.8-5.7c-9.2-3.8-16.8-9.1-22.7-15.8
	c-6-6.7-10.4-14.6-13.3-23.9C921.1,335.8,919.7,325.7,919.7,314.7z M1019.3,300.5c0.2-11.7-2.7-21.3-8.8-28.9
	c-6-7.5-14.4-11.3-25-11.3c-6,0-11.2,1.2-15.8,3.5c-4.6,2.3-8.4,5.3-11.6,9.1c-3.2,3.7-5.6,8-7.4,12.8c-1.8,4.8-2.9,9.8-3.5,14.8
	H1019.3z"/>
<path id="p" class="st0" d="M891.2,314.7c0,11-1.4,21.1-4.3,30.4c-2.9,9.3-7.1,17.3-12.7,24c-5.6,6.7-12.4,11.9-20.5,15.6
	c-8.1,3.7-17.3,5.6-27.8,5.6c-8.4,0-15.8-1.1-22.2-3.3c-6.4-2.2-11.2-4.4-14.4-6.4v58h-25.9V246.4c6.1-1.5,13.8-3.1,23-4.9
	c9.2-1.8,19.9-2.7,31.9-2.7c11.2,0,21.2,1.8,30.1,5.3c8.9,3.5,16.6,8.6,22.9,15.1c6.3,6.5,11.2,14.5,14.6,23.9
	C889.5,292.5,891.2,303,891.2,314.7z M864.2,314.7c0-16.9-4.2-29.9-12.6-39.1c-8.4-9.1-19.5-13.7-33.5-13.7
	c-7.8,0-13.9,0.3-18.3,0.8c-4.4,0.6-7.9,1.2-10.5,2v91.5c3.2,2.6,7.7,5.1,13.7,7.5c5.9,2.4,12.5,3.6,19.5,3.6c7.4,0,13.8-1.3,19.1-4
	c5.3-2.7,9.6-6.4,13-11.2c3.3-4.7,5.8-10.3,7.3-16.7C863.4,329.1,864.2,322.2,864.2,314.7z"/>
<path id="u" class="st0" d="M718.8,382.8c-6,1.5-13.8,3.1-23.6,4.7c-9.8,1.7-21.1,2.5-33.9,2.5c-11.2,0-20.6-1.6-28.2-4.9
	c-7.6-3.3-13.8-7.9-18.4-13.8c-4.6-5.9-8-13-10-21.1c-2-8.1-3.1-17.1-3.1-26.9v-81.5h25.9v75.9c0,17.7,2.8,30.3,8.4,37.9
	c5.6,7.6,15,11.4,28.2,11.4c2.8,0,5.7-0.1,8.6-0.3c3-0.2,5.8-0.4,8.4-0.7c2.6-0.3,5-0.6,7.1-0.8c2.1-0.3,3.7-0.6,4.6-1V241.9h25.9
	V382.8z"/>
<path id="s" class="st0" d="M501.4,367.8c28.3,0,42.4-9.7,42.4-29c0-6-1.3-11-3.8-15.2c-2.5-4.2-5.9-7.8-10.2-10.9
	c-4.3-3.1-9.2-5.7-14.6-8c-5.5-2.2-11.3-4.5-17.4-6.7c-7.1-2.4-13.8-5.2-20.1-8.2c-6.3-3.1-11.8-6.7-16.5-10.9
	c-4.7-4.2-8.3-9.2-11-14.9c-2.7-5.8-4-12.7-4-20.9c0-16.9,5.8-30.1,17.3-39.6c11.5-9.5,27.4-14.2,47.7-14.2
	c11.7,0,22.4,1.3,31.9,3.8c9.6,2.5,16.6,5.3,21.1,8.2l-8.6,22c-3.9-2.4-9.7-4.8-17.4-7.1c-7.7-2.3-16.7-3.5-26.9-3.5
	c-5.2,0-10,0.6-14.5,1.7s-8.4,2.8-11.7,5c-3.3,2.2-6,5.1-8,8.5c-2,3.4-2.9,7.5-2.9,12.1c0,5.2,1,9.6,3.1,13.1c2,3.5,4.9,6.7,8.6,9.3
	c3.7,2.7,8,5.2,13,7.4c4.9,2.2,10.4,4.5,16.3,6.7c8.4,3.3,16,6.7,23,10c7,3.3,13,7.3,18.1,12c5.1,4.7,9.1,10.2,11.9,16.6
	c2.8,6.4,4.2,14.2,4.2,23.3c0,16.9-6.2,30-18.6,39.1c-12.4,9.1-29.8,13.7-52.3,13.7c-7.6,0-14.6-0.5-21.1-1.5
	c-6.4-1-12.1-2.2-17.2-3.6c-5-1.4-9.3-2.9-13-4.5c-3.6-1.6-6.5-2.9-8.5-4l8.1-22.3c4.3,2.4,10.8,5.1,19.5,8.1
	C478.1,366.3,488.8,367.8,501.4,367.8z"/>
<path id="blue-glyph" class="st0" d="M271.6,469.1c0,0,6.2-56.5,0.9-82.9c-5.3-23.3-23.3-48.8-37.3-64.9
	c-39.4-45-39.4-60.9-39.4-60.9s-15.5,82.9,18,127.3C247.6,432.4,271.6,469.1,271.6,469.1z"/>
<path id="blue-glyph_1_" class="st0" d="M282.4,469.1c0,0-6.2-56.5-0.9-82.9c5.3-23.3,23.3-48.8,37.3-64.9
	c39.4-45,39.4-60.9,39.4-60.9s15.5,82.9-18,127.3C306.3,432.4,282.4,469.1,282.4,469.1z"/>
<path id="orange-glyph" class="st1" d="M276.5,112.4c0,0-37.6,95.3-29.8,107.8c7.8,12.1,29.8,55.9,29.8,55.9s22-43.5,29.8-55.9
	C314.4,207.7,276.5,112.4,276.5,112.4z"/>
<path id="orange-glyph_1_" class="st1" d="M274.4,368.3c0,0-1.2-38.8,0-70.5c0.6-17.1-33.2-79.8-55.3-107.1c0,0-14.9,68.6,0,91.9
	C233.7,305.5,266,348.4,274.4,368.3z"/>
<path id="orange-glyph_2_" class="st1" d="M279.6,368.6c0,0,1.2-38.8,0-70.5C279,281,312.9,218.3,334.9,191c0,0,14.9,68.6,0,91.9
	C320,305.8,288,348.7,279.6,368.6z"/>
</svg>
