<?xml version="1.0" encoding="utf-8"?>
<!-- Generator: Adobe Illustrator 22.0.1, SVG Export Plug-In . SVG Version: 6.00 Build 0)  -->
<svg version="1.1" id="Layer_1" xmlns="http://www.w3.org/2000/svg" xmlns:xlink="http://www.w3.org/1999/xlink" x="0px" y="0px"
	 viewBox="0 0 1083.5 1083.5" style="enable-background:new 0 0 1083.5 1083.5;" xml:space="preserve">
<style type="text/css">
	.st0{fill:none;stroke:#010202;stroke-width:30;stroke-miterlimit:10;}
</style>
<circle class="st0" cx="541.8" cy="541.8" r="526.8"/>
<path d="M368.3,667.6c-0.3,5.6-1.7,11.5-0.7,16.8c7.3,37,42.3,70.7,79.5,77c33.7,5.7,54.7-19,48.6-55.9c12.3-4.2,24.5-8.4,36.4-12.5
	c1.1,34.8-5.8,74.3,36.3,93.1c1.9-0.6,3.9-1.3,5.8-1.9c-2.7-11.2-4.2-22.9-8.3-33.6c-9.9-25.5-7-49.5,6.4-72.6
	c18.3-31.7,44.7-54,79.1-66.8c7.6-2.8,15.4-5.3,22.3-9.3c3.4-1.9,7.7-7.4,7-10.2c-1.1-4.8-4.9-10.9-9.2-12.6c-6.3-2.6-13.9-2-21-2.5
	c-29.9-2.1-59.9-2.7-89.5-6.6c-20.7-2.7-39-12-48-33.6c-8.8-21.1-1.8-37.1,19.6-36.8c66.2,1,132.3,4.1,195.2,28.1
	c16.6,6.3,27,17.8,29.5,35.4c12.6,92.5-6.7,174.9-80.8,237.2c-85.3,71.7-242.9,71.2-323-39.3c-24.8-34.3-35.7-72.1-29.1-114.4
	c0.7-4.2,1.6-8.5,3.4-12.3c18.6-39.5,38.7-41.1,66.2-19c28.1,22.6,52.1,48.8,68.1,81.6c8.1,16.6,2.3,28.1-15.9,27.7
	c-9.8-0.2-21.1-3.7-28.9-9.4c-11.3-8.3-20.3-19.8-29.9-30.2c-5.3-5.8-10-12.2-15-18.3C371.1,667,369.7,667.3,368.3,667.6z"/>
<path d="M484.9,495.5c-20.1-8.8-27-25.9-32.6-44.5c-13.2-43.6-27.9-86.7-40.8-130.4c-7-23.8-3.1-47.2,9.6-68.6
	c13.9-23.2,38.7-25,54.5-2.4c15.1,21.7,30.1,44.4,39.9,68.8c20.1,50.2,36.7,101.7,54.7,152.7c0.4,1.2,0.1,2.8,0.1,5.8
	c-10.9-0.7-21.7-0.6-32.3-2.1C515.7,471.8,495.7,473.5,484.9,495.5z"/>
<path d="M693.3,492c-36.1-4.5-71-8.7-107.4-13.2c2.6-8.1,4.4-15.8,7.4-23c18.9-46.6,36.7-93.7,57.9-139.3
	c9.2-19.8,23.2-38.5,38.9-53.7c22-21.3,44.8-14.6,54.8,14.6c3.8,11.2,4.8,24.5,3.1,36.2C738.9,375.7,712.4,432.4,693.3,492z"/>
<path d="M384.6,544.8c-0.2-22.6,15.3-40.2,36.2-47.5c15.7-5.5,26.1-3.5,36.6,13c23,35.9,44.5,72.8,65.9,109.7
	c7.1,12.3,6.7,25.2-2.7,37.3c-15.9,20.4-31.1,22.5-48.2,3.2c-25.3-28.3-49.8-57.4-73.4-87.1C391.4,563.8,387.6,551.1,384.6,544.8z"
	/>
<path d="M598.8,605.5c-14.6,13.4-27.8,25.5-40.4,37.1c-3.3-14.2-6.9-29.8-10.5-45.2C563.2,599.8,580.4,602.6,598.8,605.5z"/>
</svg>
