<?xml version="1.0" encoding="utf-8"?>
<!-- Generator: Adobe Illustrator 22.0.1, SVG Export Plug-In . SVG Version: 6.00 Build 0)  -->
<svg version="1.1" id="Layer_1" xmlns="http://www.w3.org/2000/svg" xmlns:xlink="http://www.w3.org/1999/xlink" x="0px" y="0px"
	 viewBox="0 0 1083.5 1083.5" style="enable-background:new 0 0 1083.5 1083.5;" xml:space="preserve">
<style type="text/css">
	.st0{fill:none;stroke:#010202;stroke-width:30;stroke-miterlimit:10;}
</style>
<circle class="st0" cx="541.8" cy="541.8" r="526.8"/>
<path d="M848.9,506.2c4.1,27.1-15.3,58.5-44.3,87.2c-86.1,85.2-172.1,170.6-256.8,257.2c-33.6,34.4-70.7,30.8-100.5,1.9
	c-69-66.8-136.8-134.9-203.8-203.8c-28.2-29-34.5-66.3,1.7-101.7c88.9-86.9,176.1-175.5,264-263.3c23.4-23.4,50.6-36.8,85.1-36.1
	c61,1.3,121.8,7.2,182.7,10.4c33.1,1.7,57.9,26.5,60.4,59.5C841.8,375.1,844.5,432.9,848.9,506.2z M534.8,411.7
	c-6.8,0-13.6,0.1-20.4,0c-6.6-0.1-9,2.4-8.5,9.5c2,23.9,3.1,47.8,5,71.7c0.5,6.1,0.8,11.8-4.8,15.3c-5.2,3.3-9.9,0.6-14.4-2.4
	c-18.7-12.4-37.8-24.3-56.3-36.9c-9.2-6.3-15.6-9-21,4.4c-4,10.1-10,19.5-16.1,28.6c-5.6,8.4-3.5,12.5,5.2,16.5
	c20.9,9.5,41.5,19.7,62.2,29.7c5,2.4,11,3.7,11.6,11.1c0.6,8.4-6.1,10.2-11.5,12.9c-20.5,10.3-40.9,20.9-61.8,30.4
	c-10.5,4.8-11.3,9.7-4.8,18.5c6.8,9.2,12.8,19.1,18.4,29.1c4.4,7.9,8.5,8.6,15.9,3.4c18.7-13.3,37.9-25.9,57-38.8
	c4.9-3.3,10.3-5.8,16.1-2.5c6.1,3.4,6,9.7,4.7,15.3c-4.4,20.1-1.4,40.6-4.1,60.8c-2.6,19.1-0.9,19.6,19.2,19.7
	c8.9,0,17.8-0.5,26.6,0.1c10.9,0.7,13.2-4.5,12.3-14.3c-2-22.8-3.4-45.7-4.7-68.6c-0.8-13.7,6.2-18.3,18.2-11.5
	c11.3,6.4,21.5,15,32.9,21.1c12.9,6.9,24.9,25.6,37.6,19.7c11.2-5.2,15.6-24.7,23.6-37.6c4.8-7.7,3.1-11.7-5-15.3
	c-21-9.4-41.7-19.3-62.4-29.2c-5.6-2.7-11.9-5.3-12-13c-0.1-7.3,6.4-8.8,11.4-11.3c21-10.6,41.9-21.4,63.1-31.4
	c8.4-4,11.1-7.6,4.9-16c-7.1-9.7-13.7-19.8-19.2-30.4c-5.3-10.2-10.2-8.6-18-3c-18.7,13.3-38,25.8-57,38.7c-4.5,3.1-9.4,5.3-14.5,2
	c-4.6-3-4.1-7.9-3.8-12.7c1-18.2,2.1-36.5,2.7-54.7C564.2,411.6,564.1,411.6,534.8,411.7z M736.1,326.2c-22-0.4-38.1,14.7-38.3,36.1
	c-0.3,20.9,15.8,38.2,36.4,39.1c19.9,0.8,38.2-16.7,38.7-36.9C773.2,343.4,757.1,326.6,736.1,326.2z"/>
</svg>
