<?xml version="1.0" encoding="utf-8"?>
<!-- Generator: Adobe Illustrator 18.0.0, SVG Export Plug-In . SVG Version: 6.00 Build 0)  -->
<!DOCTYPE svg PUBLIC "-//W3C//DTD SVG 1.1//EN" "http://www.w3.org/Graphics/SVG/1.1/DTD/svg11.dtd">
<svg version="1.1" id="Layer_1" xmlns="http://www.w3.org/2000/svg" xmlns:xlink="http://www.w3.org/1999/xlink" x="0px" y="0px"
	 viewBox="-1.8 -1.8 1083.5 1083.5" enable-background="new -1.8 -1.8 1083.5 1083.5" xml:space="preserve">
<g id="Circle_flat">
	<circle fill="none" stroke="#010202" stroke-width="30" stroke-miterlimit="10" cx="540" cy="540" r="526.8"/>
	<path id="Dribbble_10_" d="M244.5,548.6c-0.9-161,132-297.3,298.4-295.4c160.7,1.8,292.3,131.2,292.5,295.8
		c0.2,165-136.3,300.6-306,295.2C373.8,839.3,243.8,709.6,244.5,548.6z M541.2,800.3c7.7-0.5,15.4-1,23-1.7
		c23.2-2.1,45.5-7.6,67.2-16c5-1.9,5.7-3.3,4.7-8.5c-5.4-29.8-12.7-59.2-20.9-88.4c-8.5-30-18-59.7-29.2-88.9
		c-1.8-4.8-3.1-5.4-7.4-3.9c-31.7,11.3-61.6,26.5-89.4,45.3c-22.7,15.3-43.8,32.7-62.2,53.1c-14.2,15.8-27.1,32.5-37.8,50.9
		c-2.5,4.3-2.1,6.1,2.1,9c4.7,3.3,9.6,6.4,14.5,9.5C447.1,787,492.3,799.8,541.2,800.3z M304.6,542.6c-3.2,0-6.4,0-9.6,0
		c-4.5,0.1-5.5,1-5.5,5.4c0,7.6,0,15.1,0.6,22.7c2,25.3,8.2,49.6,17.6,73.1c6.3,15.8,14.6,30.6,23.8,44.8c5.2,8,10.7,15.7,17.2,22.7
		c3.6,4,4.4,3.7,7.3-0.7c3.7-5.7,7.6-11.3,11.6-16.8c18.6-25.9,40.5-48.7,64-70.1c23.2-21.1,49-38.6,76.7-53.1
		c16.1-8.4,33.1-14.7,50.2-20.5c6.9-2.3,7.2-2.7,4.2-9.1c-4.2-9.3-8.6-18.6-13.1-27.9c-2.8-5.8-3.7-6-9.9-4.3
		c-18.3,5.1-36.7,9.7-55.3,13.7c-40.1,8.5-80.6,13.9-121.5,17C343.5,541.1,324.1,541.8,304.6,542.6z M313.7,496.4
		c5.5-0.1,11.7-0.3,18-0.6c24.1-1.1,48.1-3.3,72-6.3c38.6-4.7,76.9-11.7,114.6-21.4c5.7-1.5,6.1-2.6,3.2-7.7
		c-20.9-36.8-43.6-72.6-67.5-107.6c-6-8.8-12.3-17.4-18.4-26.1c-1.7-2.5-3.7-3.6-6.8-2.1c-22,10.9-42.2,24.4-60.1,41.2
		c-29.3,27.6-50.4,60.6-64.5,98.2c-3.2,8.5-5.7,17.3-7.8,26.2c-1.2,4.8-0.1,6.1,4.8,6.1C304.9,496.4,308.9,496.4,313.7,496.4z
		 M532.9,298.6c-10.1-0.2-26.7,1.8-43.1,5c-6,1.2-6.5,2.7-3,7.6c6.2,8.8,12.4,17.6,18.6,26.5c24.2,34.2,45.7,70.1,66.2,106.6
		c3.2,5.8,4.2,6.2,10.4,3.7c19.7-8,38.7-17.3,56.7-28.6c23.6-14.8,45.6-31.6,63.1-53.5c3.3-4.1,3.3-5.5-0.8-8.9
		c-8.2-7-17-13.2-26.1-19C633.5,312,588.4,298.8,532.9,298.6z M790.1,533.9c-1-15.6-3.6-33.3-8.4-50.7c-8.7-31.4-23-60-42.5-86.1
		c-3.7-5-5-4.8-9.1-0.2c-23.1,26.4-50.1,48.1-80.3,65.9c-16,9.5-32.5,18.1-49.8,25.1c-2.9,1.2-4,2.8-2.6,5.9
		c5.7,12.6,11.3,25.3,16.7,38.1c1.6,3.8,4,5.6,8.2,5.2c9.1-0.8,18.1-1.9,27.2-2c24.9-0.4,49.8-0.6,74.6,1.5
		c19.2,1.6,38.2,4.1,57.2,7.5C790.1,545.5,790.1,545.4,790.1,533.9z M681.7,575.5c-11.8-0.5-26.4,0.7-40.9,2.4
		c-6.9,0.8-7.7,2-5.3,8.7c4.8,13.4,9.2,26.9,13.5,40.5c12.7,40.2,23.1,80.9,31,122.3c1.1,5.7,2.4,6.2,6.9,3
		c26-18.7,47.7-41.6,64.6-68.9c16.8-27,28.8-55.8,34.5-87.2c1.1-6.1,0.7-6.8-5.3-8.4C749.2,579.5,717.2,575.1,681.7,575.5z"/>
</g>
<g id="Layer_1_1_">
</g>
</svg>
