<?xml version="1.0" encoding="utf-8"?>
<!-- Generator: Adobe Illustrator 18.0.0, SVG Export Plug-In . SVG Version: 6.00 Build 0)  -->
<!DOCTYPE svg PUBLIC "-//W3C//DTD SVG 1.1//EN" "http://www.w3.org/Graphics/SVG/1.1/DTD/svg11.dtd">
<svg version="1.1" id="Layer_1" xmlns="http://www.w3.org/2000/svg" xmlns:xlink="http://www.w3.org/1999/xlink" x="0px" y="0px"
	 viewBox="-1.8 -1.8 1083.5 1083.5" enable-background="new -1.8 -1.8 1083.5 1083.5" xml:space="preserve">
<g id="_x23_LinkedIn">
	<g id="Circle_flat">
		<circle fill="none" stroke="#010202" stroke-width="30" stroke-miterlimit="10" cx="540" cy="540" r="526.8"/>
		<g id="Linkedin_2_">
			<path d="M592.6,493.6c18.8-24.2,42.2-39.4,72-42.4c61-6,108.4,21.1,124.3,84.8c3.8,15.1,5.6,31.1,5.8,46.7
				c0.7,53.6,0.1,107.2,0.5,160.9c0.1,9.2-2.7,11.9-11.8,11.7c-25.5-0.6-51.1-0.2-76.6-0.2c-13.1,0-13.2,0-13.2-12.8
				c0-48.6,0.1-97.1-0.1-145.7c0-8.5-0.5-17-2.1-25.3c-3.5-19.3-12.7-34.6-33.2-39.3c-22.4-5-41,1.9-54.8,20.5
				c-8.3,11.1-10.7,24-10.7,37.5c-0.1,50.8,0,101.6,0,152.3c0,3.7,0,7.5,0,11.8c-3.2,0.4-5.6,1-8,1c-27.8,0.1-55.5-0.2-83.3,0.2
				c-7.4,0.1-8.9-2.7-8.8-9.4c0.2-93,0.2-186.1,0-279.1c0-7.7,2.7-9.9,9.8-9.8c26.8,0.2,53.6,0.3,80.4,0c8-0.1,10.5,2.9,10,10.5
				C592.2,476,592.6,484.8,592.6,493.6z"/>
			<path d="M440.9,606.6c0,45.4-0.2,90.8,0.2,136.3c0.1,9.4-2.4,12.6-12.2,12.3c-26.2-0.7-52.4-0.5-78.5-0.1
				c-8,0.1-11.1-1.8-11.1-10.4c0.3-92.4,0.3-184.8,0-277.3c0-8.5,3.2-10.8,11.1-10.7c26.5,0.3,53,0.4,79.5,0
				c9-0.2,11.2,3.4,11.1,11.8C440.7,514.5,440.9,560.6,440.9,606.6z"/>
			<path d="M446.8,367.7c0,29.8-24,51.9-56.7,52.1c-31.9,0.2-56.3-22.6-56.3-52.6c0-30.2,24.7-52.8,57.4-52.5
				C423.6,314.9,446.8,337,446.8,367.7z"/>
		</g>
	</g>
</g>
<g id="Layer_1_1_">
</g>
</svg>
