<?xml version="1.0" encoding="utf-8"?>
<!-- Generator: Adobe Illustrator 22.0.1, SVG Export Plug-In . SVG Version: 6.00 Build 0)  -->
<svg version="1.1" id="Layer_14" xmlns="http://www.w3.org/2000/svg" xmlns:xlink="http://www.w3.org/1999/xlink" x="0px" y="0px"
	 viewBox="0 0 687.9 75.5" style="enable-background:new 0 0 687.9 75.5;" xml:space="preserve">
<style type="text/css">
	.st0{fill:url(#SVGID_1_);}
	.st1{fill:#FFFFFF;}
	.st2{display:none;fill:none;stroke:#000000;stroke-miterlimit:10;}
</style>
<g>
	<path d="M27.5,42.3L0,0.2h12.6l19.8,32.3L52.8,0.2h12L37.4,42.3v31.4h-9.8V42.3z"/>
	<path d="M51.9,49.1c0-3.6,0.7-7,2-10.1c1.3-3.1,3.2-5.8,5.5-8.2c2.3-2.4,5.1-4.2,8.2-5.6c3.1-1.3,6.5-2,10.2-2s7,0.7,10.2,2
		c3.1,1.4,5.9,3.2,8.2,5.6c2.3,2.4,4.2,5.1,5.5,8.2c1.3,3.1,2,6.5,2,10.1c0,3.6-0.7,7-2,10.1c-1.3,3.1-3.2,5.9-5.5,8.2
		c-2.3,2.3-5.1,4.1-8.2,5.5c-3.1,1.4-6.5,2-10.2,2s-7-0.7-10.2-2c-3.1-1.4-5.9-3.2-8.2-5.5c-2.3-2.3-4.2-5.1-5.5-8.2
		C52.6,56,51.9,52.7,51.9,49.1z M61.8,49.1c0,2.5,0.4,4.8,1.1,6.9c0.8,2.1,1.8,3.9,3.2,5.4c1.4,1.5,3,2.7,5,3.5
		c2,0.9,4.2,1.3,6.7,1.3c2.5,0,4.7-0.4,6.7-1.3c2-0.9,3.7-2,5-3.5c1.4-1.5,2.4-3.3,3.2-5.4c0.8-2.1,1.1-4.4,1.1-6.9
		s-0.4-4.8-1.1-6.9c-0.8-2.1-1.8-3.9-3.2-5.4c-1.4-1.5-3-2.7-5-3.5c-2-0.9-4.2-1.3-6.7-1.3c-2.5,0-4.7,0.4-6.7,1.3
		c-2,0.9-3.7,2-5,3.5c-1.4,1.5-2.4,3.3-3.2,5.4C62.2,44.3,61.8,46.6,61.8,49.1z"/>
	<path d="M153.2,73.7H144v-7.6h-0.2c-1.2,2.6-3.2,4.8-6.1,6.4c-2.9,1.6-6.2,2.4-10,2.4c-2.4,0-4.7-0.4-6.8-1.1
		c-2.1-0.7-4-1.9-5.6-3.4c-1.6-1.5-2.9-3.5-3.9-5.9c-1-2.4-1.4-5.2-1.4-8.5V24.5h9.2v29.1c0,2.3,0.3,4.2,0.9,5.9
		c0.6,1.6,1.4,2.9,2.5,3.9c1,1,2.2,1.7,3.5,2.2c1.3,0.4,2.7,0.7,4.2,0.7c1.9,0,3.7-0.3,5.3-0.9c1.6-0.6,3.1-1.6,4.3-3
		c1.2-1.4,2.2-3.1,2.9-5.1c0.7-2.1,1-4.5,1-7.4V24.5h9.2L153.2,73.7L153.2,73.7z"/>
	<path d="M162,24.5h9.2V32h0.2c0.6-1.3,1.4-2.5,2.5-3.6c1-1.1,2.2-2,3.4-2.8c1.3-0.8,2.7-1.4,4.2-1.8c1.5-0.5,3-0.7,4.5-0.7
		c1.5,0,2.9,0.2,4.1,0.6l-0.4,10.1c-0.8-0.2-1.5-0.4-2.3-0.5c-0.7-0.1-1.5-0.2-2.3-0.2c-4.5,0-8,1.3-10.4,3.8
		c-2.4,2.6-3.6,6.5-3.6,11.9v24.7H162L162,24.5L162,24.5z"/>
</g>
<path d="M194.5,4.6h25.4c3.5,0,6.9,0.3,10.1,1c3.2,0.6,5.9,1.8,8.3,3.3c2.4,1.6,4.2,3.7,5.6,6.4c1.4,2.7,2.1,6,2.1,10.1
	c0,4-0.6,7.3-1.9,10.1c-1.3,2.7-3.1,4.9-5.3,6.5c-2.3,1.6-4.9,2.8-8,3.4c-3.1,0.7-6.5,1-10.1,1h-11v26.7h-15.1L194.5,4.6L194.5,4.6z
	 M209.6,33.7h10.1c1.4,0,2.7-0.1,3.9-0.4c1.3-0.3,2.4-0.7,3.4-1.3c1-0.6,1.8-1.4,2.4-2.5c0.6-1.1,0.9-2.4,0.9-4
	c0-1.7-0.4-3.1-1.2-4.2c-0.8-1.1-1.8-1.9-3.1-2.5c-1.3-0.6-2.7-0.9-4.2-1.1c-1.5-0.2-3-0.2-4.4-0.2h-7.7L209.6,33.7L209.6,33.7z"/>
<path d="M439.7,73.1h-13.9v-6.4h-0.2c-0.5,0.9-1.2,1.8-2,2.7c-0.8,0.9-1.8,1.7-3,2.4c-1.2,0.7-2.5,1.3-4,1.7
	c-1.5,0.4-3.1,0.7-4.8,0.7c-3.7,0-6.7-0.6-8.9-1.7c-2.3-1.1-4.1-2.7-5.3-4.7c-1.3-2-2.1-4.4-2.5-7.1c-0.4-2.7-0.6-5.6-0.6-8.8V26.1
	H409v23c0,1.4,0,2.8,0.1,4.2c0.1,1.4,0.4,2.8,0.9,4c0.5,1.2,1.2,2.2,2.2,3c1,0.8,2.4,1.2,4.3,1.2c1.9,0,3.4-0.3,4.5-1
	c1.2-0.7,2-1.6,2.7-2.7c0.6-1.1,1-2.4,1.2-3.8c0.2-1.4,0.3-2.9,0.3-4.5V26.1h14.5L439.7,73.1L439.7,73.1z"/>
<path d="M476.9,41.3c-0.7-1-1.7-1.9-3-2.6c-1.3-0.7-2.7-1-4.2-1c-3.7,0-6.5,1.1-8.6,3.3c-2,2.2-3,5.1-3,8.6c0,3.5,1,6.4,3,8.6
	c2,2.2,4.9,3.3,8.6,3.3c1.6,0,3-0.4,4.2-1.1c1.2-0.7,2.2-1.5,3-2.5l9.6,10c-2.3,2.3-4.9,4-8,4.9c-3.1,0.9-6,1.4-8.8,1.4
	c-3.6,0-7-0.6-10.2-1.7c-3.2-1.2-6-2.8-8.3-5c-2.4-2.2-4.2-4.8-5.6-7.8c-1.4-3-2-6.4-2-10.2c0-3.7,0.7-7.1,2-10.2
	c1.3-3,3.2-5.6,5.6-7.8c2.4-2.2,5.1-3.8,8.3-5c3.2-1.2,6.6-1.7,10.2-1.7c2.8,0,5.7,0.5,8.8,1.4c3.1,0.9,5.7,2.6,8,4.9L476.9,41.3z"
	/>
<path d="M522.9,37.7h-12.8v15.7c0,1.3,0.1,2.5,0.2,3.5c0.1,1.1,0.4,2,0.9,2.8c0.5,0.8,1.1,1.4,2.1,1.8c0.9,0.4,2.2,0.6,3.7,0.6
	c0.8,0,1.8-0.1,3.1-0.2c1.3-0.2,2.2-0.5,2.9-1.1v12.1c-1.6,0.6-3.3,1-5,1.2c-1.7,0.2-3.4,0.3-5.1,0.3c-2.5,0-4.7-0.3-6.8-0.8
	c-2.1-0.5-3.9-1.3-5.4-2.5c-1.5-1.1-2.8-2.6-3.6-4.4c-0.9-1.8-1.3-4-1.3-6.6V37.7h-9.3V26.1h9.3V12.2h14.5v13.9h12.8L522.9,37.7
	L522.9,37.7z"/>
<path d="M524.4,11.3c0-2.3,0.8-4.3,2.5-5.9c1.6-1.6,3.6-2.5,6-2.5c2.3,0,4.3,0.8,5.9,2.5c1.7,1.6,2.5,3.6,2.5,5.9
	c0,2.3-0.8,4.3-2.5,5.9c-1.6,1.6-3.6,2.5-5.9,2.5c-2.3,0-4.3-0.8-6-2.5C525.3,15.6,524.4,13.6,524.4,11.3z M525.6,26.1h14.5v47
	h-14.5V26.1z"/>
<path d="M544,49.6c0-3.7,0.7-7.1,2-10.2c1.3-3,3.2-5.6,5.6-7.8c2.4-2.2,5.1-3.8,8.3-5c3.2-1.2,6.6-1.7,10.2-1.7
	c3.6,0,7,0.6,10.2,1.7c3.2,1.2,6,2.8,8.3,5c2.3,2.2,4.2,4.8,5.6,7.8c1.4,3,2,6.4,2,10.2c0,3.7-0.7,7.1-2,10.2
	c-1.3,3-3.2,5.6-5.6,7.8c-2.4,2.2-5.1,3.8-8.3,5c-3.2,1.2-6.6,1.7-10.2,1.7c-3.6,0-7-0.6-10.2-1.7c-3.2-1.2-6-2.8-8.3-5
	c-2.3-2.2-4.2-4.8-5.6-7.8C544.7,56.7,544,53.4,544,49.6z M558.5,49.6c0,3.5,1,6.4,3,8.6c2,2.2,4.9,3.3,8.6,3.3
	c3.7,0,6.5-1.1,8.6-3.3c2-2.2,3-5.1,3-8.6c0-3.5-1-6.4-3-8.6c-2-2.2-4.9-3.3-8.6-3.3c-3.7,0-6.5,1.1-8.6,3.3
	C559.5,43.2,558.5,46.1,558.5,49.6z"/>
<path d="M599.9,26.1h13.9v6.4h0.2c0.5-0.9,1.1-1.8,1.9-2.7c0.8-0.9,1.8-1.7,3-2.4c1.2-0.7,2.5-1.3,4-1.7c1.5-0.5,3.1-0.7,4.8-0.7
	c3.7,0,6.6,0.6,8.9,1.7c2.3,1.1,4,2.7,5.3,4.7c1.3,2,2.1,4.4,2.6,7.1c0.4,2.7,0.7,5.6,0.7,8.8v25.9h-14.5v-23c0-1.4-0.1-2.8-0.1-4.2
	c-0.1-1.5-0.4-2.8-0.9-4c-0.5-1.2-1.2-2.2-2.2-3c-1-0.8-2.4-1.2-4.3-1.2c-1.9,0-3.4,0.3-4.6,1c-1.2,0.7-2,1.6-2.7,2.7
	c-0.6,1.1-1,2.4-1.2,3.8c-0.2,1.4-0.3,2.9-0.3,4.5v23.4h-14.5L599.9,26.1L599.9,26.1z"/>
<path d="M677.2,39.9c-2.1-2.6-4.9-4-8.4-4c-1.2,0-2.4,0.3-3.6,0.9c-1.2,0.6-1.7,1.6-1.7,3c0,1.2,0.6,2,1.8,2.6
	c1.2,0.6,2.7,1,4.5,1.5c1.8,0.4,3.8,0.9,5.9,1.4c2.1,0.5,4.1,1.2,5.9,2.3c1.8,1,3.4,2.4,4.5,4.2c1.2,1.8,1.8,4.1,1.8,7.1
	c0,3-0.7,5.5-2,7.5c-1.3,2-3,3.5-5.1,4.7c-2.1,1.2-4.4,2-7,2.5c-2.6,0.5-5.1,0.7-7.6,0.7c-3.3,0-6.6-0.5-10-1.4
	c-3.3-0.9-6.2-2.6-8.5-5l8.8-9.8c1.4,1.7,2.9,2.9,4.5,3.8c1.7,0.9,3.6,1.3,5.8,1.3c1.7,0,3.2-0.2,4.5-0.7c1.4-0.5,2-1.4,2-2.7
	c0-1.2-0.6-2.1-1.8-2.8c-1.2-0.6-2.7-1.1-4.5-1.6c-1.8-0.4-3.8-0.9-5.9-1.4c-2.1-0.5-4.1-1.2-5.9-2.2c-1.8-1-3.4-2.3-4.6-4.1
	c-1.2-1.8-1.8-4.1-1.8-7.1c0-2.8,0.6-5.2,1.7-7.2c1.1-2,2.6-3.6,4.4-4.9c1.9-1.3,4-2.2,6.4-2.9c2.4-0.6,4.8-0.9,7.2-0.9
	c3.1,0,6.2,0.5,9.4,1.4c3.2,0.9,5.8,2.5,8,4.8L677.2,39.9z"/>
<path d="M275.8,37.7c0.9-4.5,2.7-8.8,5.2-12.5c-0.5-0.1-1-0.2-1.5-0.2c-0.8-0.1-1.7-0.1-2.5-0.1c-3.2,0-5.9,0.7-8,2.2
	c-2.1,1.5-4,3.6-5.5,6.5h-0.2v-7.5h-14.5v47h14.5V53.5c0-2.3,0.1-4.4,0.4-6.4c0.3-1.9,0.8-3.6,1.7-5c0.9-1.4,2.1-2.5,3.7-3.2
	c1.6-0.8,3.8-1.2,6.6-1.2C275.7,37.7,275.7,37.7,275.8,37.7z"/>
<path d="M373.2,0v31.1H373c-1.7-2.3-3.8-3.9-6.4-4.8c-2.6-0.9-5.4-1.4-8.5-1.4c-3.4,0-6.4,0.7-9,2.1c-2.6,1.4-4.8,3.2-6.6,5.5
	c1.4,3.8,2.2,7.9,2.2,12.2c0,6.6-1.8,12.8-5.1,18c0.9,1.7,2,3.3,3.4,4.7c2,2.2,4.5,3.8,7.3,5c2.8,1.2,6,1.8,9.5,1.8
	c1.6,0,3.2-0.2,4.7-0.7c1.5-0.5,2.9-1,4.2-1.7c1.3-0.7,2.4-1.5,3.3-2.4c0.9-0.9,1.7-1.7,2.3-2.6h0.2v6.2h13.3V0L373.2,0L373.2,0z
	 M371.3,58.2c-2,2.2-4.9,3.3-8.6,3.3c-3.7,0-6.5-1.1-8.6-3.3c-2-2.2-3-5.1-3-8.6c0-3.5,1-6.4,3-8.6c2-2.2,4.9-3.3,8.6-3.3
	c3.7,0,6.5,1.1,8.6,3.3c2,2.2,3,5.1,3,8.6C374.3,53.2,373.3,56,371.3,58.2z"/>
<linearGradient id="SVGID_1_" gradientUnits="userSpaceOnUse" x1="279.1017" y1="637.1729" x2="340.6308" y2="633.9482" gradientTransform="matrix(1 0 0 -1 0 680.23)">
	<stop  offset="5.520000e-02" style="stop-color:#E94E1B"/>
	<stop  offset="0.1995" style="stop-color:#EA571D"/>
	<stop  offset="0.4347" style="stop-color:#ED6E21"/>
	<stop  offset="0.7298" style="stop-color:#F39029"/>
	<stop  offset="1" style="stop-color:#F9B233"/>
</linearGradient>
<path class="st0" d="M340.7,44.7c0,17-13.8,30.8-30.8,30.8c-17,0-30.8-13.8-30.8-30.8c0-17,13.8-30.8,30.8-30.8
	C326.9,13.9,340.7,27.7,340.7,44.7z"/>
<path class="st1" d="M303.1,31c-2.6-1.5-4.8-0.2-4.8,2.8v23.8c0,3,2.1,4.3,4.8,2.8l21.3-12c2.6-1.5,2.6-3.9,0-5.4L303.1,31z"/>
<line class="st2" x1="99.9" y1="387.8" x2="271" y2="369.3"/>
</svg>
