<?xml version="1.0" encoding="utf-8"?>
<!-- Generator: Adobe Illustrator 22.0.1, SVG Export Plug-In . SVG Version: 6.00 Build 0)  -->
<svg version="1.1" id="Layer_1" xmlns="http://www.w3.org/2000/svg" xmlns:xlink="http://www.w3.org/1999/xlink" x="0px" y="0px"
	 viewBox="0 0 282.5 86.9" enable-background="new 0 0 282.5 86.9" xml:space="preserve">
<path d="M0,85.2c9.7-4.4,20-6.7,30.4-8.4c4.9-0.8,9.7-2,14.5-2.7c35.1-5.3,70.2-4.7,105.4-2.1c32.9,2.4,65.8,4.2,98.9,2.5
	c10.1-0.5,19.7-3.2,29.6-4.4c1.1-0.1,3-1.4,3.5,0.3c0.7,2.1-1.6,2.2-2.8,2.7c-21.2,8.6-43.4,12.8-66.2,13.1
	c-38.3,0.6-76.5-2.2-114.7-4.9C67,78.9,35.5,79.4,4.3,86.3C2.8,86.6,1.1,87.8,0,85.2z"/>
<path d="M72.1,65.1c-7.3,0-8.4-0.8-8.9-8.6c-0.3-4.2-1.9-6.1-6.1-5.5c-0.3,0.1-0.7,0-1,0c-11.7,0-11.9-0.1-15.4,10.8
	c-1.3,4.1-3.9,3.3-6.6,3.3c-7.3,0-7.6-0.1-5.3-6.9c5.6-17.1,11.5-34,17.1-51.1c0.8-2.6,2.1-3.2,4.7-3.2c9.7-0.1,9.7-0.2,12.5,8.9
	c5,16,9.8,32,15,47.8c1.3,4,0.7,5.1-3.4,4.5C73.8,65,72.9,65.1,72.1,65.1z M52.9,41.6c1.9-0.4,5.7,1,4.9-3.5
	c-1-5.5-2.5-10.9-3.9-16.3c-0.1-0.6-0.8-1-1.2-1.5c-0.3,0.6-0.6,1.1-0.8,1.7c-1.3,4.6-2.5,9.2-3.8,13.8
	C46.7,40.9,47.2,41.6,52.9,41.6z"/>
<path d="M193.6,46.5c-3.2,0-6.3,0.1-9.5,0c-3.5-0.2-3.9,1.6-3.2,4.4c1.1,4.5,5.6,7.4,10.1,6.8c2.7-0.3,5.2-1.2,7.6-2.4
	c2.3-1.2,4-1.3,5.5,1.6c1.4,2.7,0.6,4.3-1.5,5.8c-9.2,6.4-23.8,4.8-30.4-4.1c-4.9-6.6-5.3-14.6-3.8-22.6c2.6-13.7,14.9-20.5,27.7-15
	c6.2,2.7,8.9,8.1,10.1,14.5c2.1,10.8,2,10.9-8.5,10.9C196.2,46.5,194.9,46.5,193.6,46.5z M187.2,39.1c2.3-1.1,6.9,1.7,6.8-3.9
	c-0.1-3.8-1.7-6.9-6.1-7.2c-3.9-0.3-7.4,3.5-7.2,7.9C180.8,41,184.9,37.9,187.2,39.1z"/>
<path d="M119.3,46.1c0,5-0.1,10,0,15c0.1,3.1-1.3,4.2-4.2,4c-1.1-0.1-2.3-0.7-3.2-0.3c-4.5,1.6-4.5-1.1-4.5-4.3
	c0.1-8.1,0.1-16.3,0-24.4c-0.1-2.8,0.4-6.4-4.2-6.5c-4.4-0.1-7.6,3-7.7,7.2c-0.1,8-0.2,16,0,23.9c0.1,3.3-0.6,5.1-4.3,4.5
	c-0.8-0.1-1.7-0.1-2.5,0c-3.8,0.6-5.2-0.6-5-4.7c0.3-8.8,0.1-17.6,0.1-26.4c0-2.3-0.2-4.6-0.5-7c-0.2-2.3-2.3-5.4,1.8-5.7
	c3-0.2,7-5.8,9.1,1.3c0.6,2,1.8,0.8,2.7,0.2c2.4-1.6,5-2.7,7.8-3.2c7.7-1.4,14.3,3.8,14.5,11.6C119.4,36.1,119.3,41.1,119.3,46.1
	C119.3,46.1,119.3,46.1,119.3,46.1z"/>
<path d="M145.1,19c3.5-0.6,6.8,1,10.2,1.9c6.3,1.7,6.2,2.2,3.1,7.9c-1.3,2.4-2.5,2.1-4.3,1.2c-2.6-1.2-5.2-2.1-8.1-2.1
	c-2.9,0-4.9,1.1-5.4,4c-0.4,2.8,1.8,3.6,3.9,4.3c3.2,1,6.5,1.6,9.5,2.8c4,1.6,7.6,4.2,8,8.7c0.5,5.4,0.7,10.8-4.8,14.7
	c-9.2,6.5-21,5-30.2-0.4c-3.7-2.2,0.8-4.7,1.2-7.1c0.4-2.1,2-2.5,3.7-1c3.1,2.7,7,3.3,10.9,3.8c3.4,0.5,6.6-0.4,7.3-4.3
	c0.7-3.6-2.1-4.9-5-5.6c-2.1-0.5-4.2-1-6.3-1.4c-7.9-1.8-11.5-5.7-11.6-12.7c-0.1-6.2,4.4-11.9,10.9-13.9
	C140.3,19.1,142.5,18.8,145.1,19z"/>
<path d="M249.9,29.5c0,7.3,0,14.6,0,21.9c0,2.9-0.5,5.9,3.8,6.9c2,0.5,2.4,3.4,2.3,5.6c-0.1,2.4-2.3,2-3.8,2.1
	c-11.3,0.7-13.8-2.7-14.5-12.8c-1.1-16.1-0.5-32.2-0.6-48.3c0-2.8,2.1-2.6,3.8-3c9-2.2,9-2.2,9.1,7.1
	C249.9,15.9,249.9,22.7,249.9,29.5C249.9,29.5,249.9,29.5,249.9,29.5z"/>
<path d="M213.8,30.5c0-7.7,0-15.3,0-23c0-3.8,8-8.8,11.3-7.2c1.3,0.7,0.8,2.1,0.9,3.1c1,14.6,0.3,29.3,0.5,43.9
	c0.1,4.7-0.3,9.1,4.1,12.8c3.6,3.1,2.4,5.3-2.2,5.9c-9.2,1.1-14.2-3.2-14.3-12.6c-0.1-7.7,0-15.3,0-23
	C213.9,30.5,213.9,30.5,213.8,30.5z"/>
</svg>
