<?xml version="1.0" encoding="utf-8"?>
<!-- Generator: Adobe Illustrator 22.0.1, SVG Export Plug-In . SVG Version: 6.00 Build 0)  -->
<svg version="1.1" id="Blackdove" xmlns="http://www.w3.org/2000/svg" xmlns:xlink="http://www.w3.org/1999/xlink" x="0px" y="0px"
	 viewBox="-1472.2 1204.4 4742.8 628" enable-background="new -1472.2 1204.4 4742.8 628" xml:space="preserve">
<path id="e" fill="#0D0D0D" d="M3067,1318.9c170.5,0,203.6,135.7,203.6,207.7c0,31.1,0,68.3-42.5,68.3h-311.6
	c0,105.5,60.5,173.8,161.1,173.8c62.1,0,98.5-23.3,128-45.8c6.1-4.5,10.6-6.1,19.2-6.1c17.2,0,31.1,13.9,31.1,31.1
	c0,11.9-5.3,18-11.9,24.5c-15.9,16.4-71.6,59.7-166.4,59.7c-141.9,0-230.2-77.7-230.2-257.2
	C2847.4,1410.9,2928.4,1318.9,3067,1318.9z M3067,1381c-92.8,0-143.9,59.7-150.5,155h287C3203.6,1459.1,3177,1381,3067,1381z"/>
<path id="v" fill="#0D0D0D" d="M2598,1805.4l-181.5-430.9c-0.8-3.3-3.3-7.8-3.3-14.7c0-19.2,14.7-33.9,33.9-33.9
	s27.8,11.9,31.9,22.5l150.5,368l150.5-368c4.5-10.6,13.1-22.5,31.9-22.5c19.2,0,33.9,14.7,33.9,33.9c0,7.8-2,11.9-3.3,14.7
	L2661,1805.4c-6.1,13.9-18,21.7-31.9,21.7C2616,1826.7,2604.2,1818.9,2598,1805.4z"/>
<path id="o" fill="#0D0D0D" d="M2428.4,1574.8c0,175-85.5,257.2-224.1,257.2c-137.4,0-224.1-82.2-224.1-257.2
	c0-175,86.3-256,224.1-256C2342.9,1318.9,2428.4,1400.2,2428.4,1574.8z M2359.3,1574.8c0-134.1-56.4-193.8-155-193.8
	c-98.1,0-155,59.7-155,193.8c0,136.6,56.4,195.4,155,195.4C2302.4,1770.3,2359.3,1711.8,2359.3,1574.8z"/>
<path id="d" fill="#0D0D0D" d="M1859.2,1388.4v-85.5c0-19.2-2.9-33.9,16.8-33.9c19.2,0,51.5,14.7,51.5,33.9v318.9
	c0,141.1-87.5,210.2-209.3,210.2c-137.4,0-218.7-82.2-218.7-257.2c0-175,76.9-256,214.7-256
	C1782.3,1318.9,1834.3,1354.4,1859.2,1388.4z M1859.2,1474.7c0,0-40.5-94-141.1-94c-96.9,0-150.5,63-150.5,193.8
	c0,133.3,51.9,195.4,150.5,195.4c82.2,0,141.1-46.6,141.1-148V1474.7z"/>
<path id="k" fill="#0D0D0D" d="M1423.8,1811.1l-188.5-242l-65.4,51.9v171.3c0,19.2-14.7,34.3-33.9,34.3s-33.9-14.7-33.9-34.3v-489
	c0-19.2-2.9-33.9,16.8-33.9c19.2,0,51.5,14.7,51.5,33.9v236.7l251.9-205.7c8.6-7.8,17.2-8.6,23.3-8.6c19.2,0,34.3,14.7,34.3,33.9
	c0,8.6-3.3,19.2-13.9,27.8l-174.6,139l189.7,244.1c6.1,7.8,7.8,14.7,7.8,21.7c0,19.2-14.7,34.3-33.9,34.3
	C1442.2,1826.7,1432.4,1821.4,1423.8,1811.1z"/>
<path id="c" fill="#0D0D0D" d="M882.8,1318.9c94.9,0,147.2,50.3,164.4,73.6c5.3,7.8,7.8,13.1,7.8,20c0,18-13.9,31.1-31.1,31.1
	c-10.6,0-18-4.5-25.8-13.1c-15.9-18-45-50.3-115.3-50.3c-98.1,0-150.5,63-150.5,193.8c0,133.3,51.9,195.4,150.5,195.4
	c61.7,0,99.4-27.8,123.9-45.8c7.8-5.3,13.1-7.8,20-7.8c17.2,0,31.1,13.9,31.1,31.1c0,9.4-3.3,17.2-13.9,26.6
	c-23.3,19.2-74.4,57.7-161.1,57.7c-137.4,0-219.6-82.2-219.6-257.2C662.9,1400.2,745.1,1318.9,882.8,1318.9z"/>
<path id="a" fill="#0D0D0D" d="M304.7,1437.4c-10.6,11.9-18,14.7-27.8,14.7c-17.2,0-31.1-13.9-31.1-31.1c0-7.8,2-13.1,5.3-18
	c30.3-46.6,87.5-84.2,177-84.2c123.9,0,192.2,72.8,192.2,181.5v293.2c0,18-14.7,33.1-33.1,33.1c-18,0-33.1-14.7-33.1-33.1v-38
	c-26.6,50.3-88.3,76.9-152.5,76.9c-113.3,0-184.4-54.4-184.4-152.5c0-94,71.6-150.5,186.9-150.5h150.9v-28.6
	c0-72.8-47.8-117.3-125.5-117.3C371.8,1383.1,337.8,1400.2,304.7,1437.4z M554.1,1633.7v-45H403.7c-69.1,0-117.3,28.6-117.3,90.8
	c0,55.6,38,90.8,121.8,90.8C482.6,1770.3,554.1,1724.5,554.1,1633.7z"/>
<path id="l" fill="#0D0D0D" d="M137.9,1303.3v399.1c0,42.5,13.9,60.5,42.5,60.5c17.2,0,31.9,13.9,31.9,31.9
	c0,18-14.7,31.9-31.9,31.9c-71.6,0-110.8-42.5-110.8-124.7v-399.1c0-18-2-33.9,16.4-33.9C105.6,1269,137.9,1284.9,137.9,1303.3z"/>
<path id="b" fill="#0D0D0D" d="M27.1,1574.8c0,175-81.4,257.2-218.7,257.2c-121.8,0-209.3-69.1-209.3-210.2v-318.9
	c0-19.2-2.9-33.9,16.4-33.9s51.5,14.7,51.5,33.9v85.5c24.5-33.9,76.9-69.1,145.1-69.1C-49.8,1318.9,27.1,1400.2,27.1,1574.8z
	 M-331.9,1621.8c0,101.4,58.9,148,141.1,148c98.1,0,150.5-61.7,150.5-195.4c0-131.2-53.6-193.8-150.5-193.8
	c-100.2,0-141.1,94-141.1,94V1621.8z"/>
<path id="back-wing-dove" fill="#0D0D0D" d="M-1348.3,1746.1c0,0-138.2-121.8-122.7-352.4c2.9-41.7,10.6-87.1,24.9-135.7
	c5.3-17.2,11-35.2,18-53.6c0,0,4.5,4.9,13.1,13.1c20.4,19.6,65,59.7,127.2,101.8c98.9,66.2,243.3,138.2,409.3,139
	c22.5,0,39.7,1.6,51.5,4.9c3.3,0.8,5.7,1.6,8.2,2.9c7.4,2.9,11,6.1,13.1,10.2c9.4,22.1-54.8,62.1-142.7,105.1
	c-90.8,43.3-205.7,90.8-289.5,122.7c-45.8,17.6-82.6,31.5-99.8,38C-1345.1,1744.5-1348.3,1746.1-1348.3,1746.1z"/>
<path id="front-dove" fill="#171718" d="M-1470.6,1480c0,0,135.7,143.1,386.4-56.4c343-274.8,463.7-33.5,463.7-33.5
	s-126.7-45.4-193.8,186.4C-893.7,1849.2-1410.1,2014.8-1470.6,1480z"/>
</svg>
