<svg xmlns="http://www.w3.org/2000/svg" viewBox="0 0 980.1 653.1"><path d="M662.6 501.6c-9.4 16-20 30.1-40.2 30.3-20.7.2-30.6-14.1-37.9-31.2-22.6 46.8-66.9 36.7-80-2.2-2.9 7.1-6.5 13.6-11.3 19.4-13.3 16.2-33 17.8-48.8 4-3.6-3.2-7-6.6-9.8-10.6-2.7-4-4.8-8.4-7-13.3-2.7 3.2-5.1 6.3-7.8 9.1-17.2 18.7-38.2 27.4-63.7 23-13.4-2.3-24.7-9-33.6-19.2-2.9-3.3-4.1-2.6-6.6.3-8.7 10-19 17.7-32.4 20.1-16.1 2.9-29.8-3.1-38.5-17-8.6-13.7-11.1-29.1-11.8-44.9-1-21.4 2-42.5 4.4-63.7.1-.8.3-1.6.4-2.5.7-7.2.6-7.3-6.5-9-3.6-.9-7.1-1.6-10.7-2.7-3.3-1-4.5-.3-4.9 3.5-2.5 25.5-7.8 50.3-18 73.9-9.9 23.1-23.8 43.2-45.8 56.5-42.5 25.5-108 18-137.8-37.7-16.7-31.1-17.6-63.7-8.7-97 6.7-24.8 18.2-47.2 36-66 15.8-16.7 34.5-28.3 58-30.1 31.7-2.4 54.6 17.9 60 42.6 1.7 7.7.6 15.3-2.7 22.4-3.6 7.9-10 11.8-18.5 12.3-7.7.5-12.7-2.9-15.1-10.3-2.5-7.5-2.2-15.5-2.9-23.2-.3-3.7-.7-7.3-1.6-10.8-2.6-9.6-9.6-13.4-19.2-10.6-9.7 2.8-16.9 9.3-23.1 16.8-17.5 21.4-26.3 46.4-29.4 73.6-2.5 22-.2 43.3 9.1 63.4 9.7 21.1 25.2 35 49.4 36.8 17.7 1.3 33.2-4.1 46.5-15.7 19.7-17.3 29.9-40 36.9-64.5 3.5-12.2 5.8-24.6 6.4-37.3.1-2.9-.6-4.8-3.1-6.6-9.1-6.6-13-17.6-10.1-27.3 2.2-7.6 7.2-12.3 13.6-12.9 7.9-.7 15.6 3.4 19 10.3 2.3 4.6 3 9.6 2.5 14.6-.6 5 1.4 6.5 6.1 7.2 13.8 2.1 27.6 4.3 41.2 7.8 10.8 2.8 13.5 7.3 12.1 18.1-2.9 22.6-6.3 45.2-6.4 68.1 0 8.9.6 17.7 3.1 26.2 3.8 13.3 13.6 16.9 25.4 9.5 4.3-2.7 7.5-6.5 10.5-10.5 1.7-2.3.6-4-.1-6-9.3-27.4-8-54.2 6.3-79.6 9.7-17.2 24.2-28.6 44.5-31.2 20-2.6 41.3 13.4 43.2 33.6 2.6 28-10 49.1-31.6 65.7-6.1 4.7-13 8.3-20.4 10.3-4.7 1.2-3.8 3.1-1.8 6.1 14.4 21.2 36.2 18.6 51.9 7.3 9.3-6.7 15.9-15.7 20.4-26 2.5-5.6.7-11.8 1.4-17.7 3.6-27.7 14.4-51.6 37.1-68.8 12.1-9.1 25.7-13.2 40.9-9.1 1.8.5 2.9.3 3.2-1.7.5-3.4 3.1-3.7 5.7-3.3 10.5 1.7 18.9 7 26 14.7 1.9 2.1 1.5 4.7 1.3 7.2-1.2 18.8-3.2 37.5-3.1 56.4.1 13.7.2 27.3 4 40.6.4 1.3.7 2.6 1.2 3.8 5.6 14.3 17.9 16.4 27.5 4.3 9.6-12.2 12.9-25.8 10.4-41.6-3.7-23.4-2.4-47.2-1.4-70.8.5-11.1 1.4-22.3 2.3-33.4.2-2.8-.7-2.9-3.1-2.2-13.2 3.5-26.7 5.8-40.4 5.3-5.7-.2-10.7-2.3-14.5-6.7-1.9-2.2-3.1-4.8-3.3-7.7-.2-3.8 1.1-6.5 5.6-6.4 18.1.1 35.7-3.4 53.5-6.3 3.8-.6 5.1-2.4 5.4-6.2 1.6-15.1 3.5-30.1 6.6-44.9 1.1-5.3 2.6-6.2 8-5.3 7.3 1.2 13.5 4.5 19.3 9 6.9 5.3 10.3 12 8.4 20.9-.7 3.6-.6 7.3-1.1 10.9-.8 6.1-.6 6.4 5.4 5.5 11.4-1.8 22.8-2.8 34.3-2.9 6.7-.1 13.3.9 19.4 4 11 5.7 16.1 16.3 13.6 28.3-1.9 8.9-8.2 14.7-16.4 14.7-8.8.1-16.5-6.1-18.5-14.7-.1-.5-.1-1-.2-1.5-1.7-10.5-2.3-11.1-13-10.6-8.2.3-16.2 1.8-24.3 2.8-3.3.4-3 2.7-3.3 4.6-1.1 9.4-2.2 18.8-3.1 28.3-2.9 30-5.9 60-5.1 90.2.3 10.3 1.1 20.6 4 30.6 4.4 15.1 16 18.3 27.4 7.3 12.2-11.9 15.7-26.2 13.5-43.2-2.8-22.3-1.7-44.9 1.1-67.3 1-7.8 3.9-9.6 12-8.7 5.9.7 11.3 2.7 16.4 5.6 6 3.4 9.1 8.1 8.4 15.5-2 21.4-3.6 42.8-2.9 64.4.3 9.5.9 19 3.9 28.1 1.7 5.1 3.5 10.5 9.7 11.7 6.6 1.2 11.5-2.3 15.6-7.1 6.7-8 10.2-17.5 12.6-27.4.9-3.8-.7-7.6-1.3-11.3-4.1-26.5-4.5-53.1-2.3-79.7.7-7.9 2.8-9.5 10.8-8.2 8.6 1.3 16.1 5.3 22.4 11.3 3.2 3 4.4 6.8 4.2 11.3-1.1 25.5-1.7 51 .3 76.4.7 8.6 1.8 17.2 4.9 25.4 1.5 4.1 3.3 8.5 8.2 9.3 5.2.8 8.8-2.7 11.7-6.5 8.2-10.6 12.2-23.2 16.2-35.7.3-1 .5-1.9.8-2.9 2.4-7 2.4-13.4-.6-20.6-6.7-15.7-6.4-32.1-2.1-48.5 1.1-4.1 2.7-7.9 5.3-11.2 6-7.4 15-6.7 19.7 1.6 3.9 6.9 4.6 14.6 4.8 22.2.5 13.4-1.6 26.6-4.2 39.6-.4 2.2-.2 3.8 1.2 5.5 5.5 6.5 12.1 11.3 21.2 13.7-.2-7.7-.6-15.1 0-22.4 2.2-30.9 24.4-57.9 53-64 26.9-5.7 47.6 12.4 45.4 39.8-2.5 30.4-21.4 53.8-50.7 62.6l-7.2 2.1c9.7 25.1 36.5 30.8 55.1 11.7 9.3-9.6 14.1-21.6 17.7-34.2.6-2 0-5.3 3-5.7 2.9-.4 4.3 2.2 5.7 4.3 3.7 5.5 5.3 11.4 3.2 18-7 22.2-19 40.7-41.4 49.6-27.6 11-57.6-.6-73.3-27.4-2.6-4.4-3.4-10.5-7-13.6-3.4-3-9.4-2.4-14.1-4.4-5.6-2.3-10.9-5.2-15.3-9.2-2.7-2.5-3.6-2.2-4.8 1.3-4.3 13.4-10.1 26.1-18.1 37.7-3.3 4.8-7.1 9.3-11.6 13-11.7 9.5-26.3 9.2-37.8-.8-6.6-5.7-10.9-13-14.4-20.7-.7-1.6-1.5-3.3-2.5-5.5-4.9 10.1-10.4 19.1-18.8 25.8-18.6 14.9-39.6 11-51.6-9.6-2.4-4.3-4.1-8.3-6.2-12.5zm-161.8-71.7c-.6-9.1-.3-20.5-4.3-31.3-2.8-7.6-7.4-8.8-13.7-3.6-4.6 3.8-7.7 8.8-10.2 14-9.7 20.4-14.1 42.1-14.1 64.7 0 7.1.9 14.3 4.2 20.8 4.7 9.2 13.9 10.7 21.3 3.4 4.4-4.3 6.9-9.7 8.9-15.4 5.8-16.2 7.4-33.2 7.9-52.6zm-163.9 21.5c.2 2.6.3 6.3.8 9.9.6 3.7 0 9.5 3.1 10.4 4 1.1 7.5-3.4 10.5-6.5 9.5-9.9 14.6-22.1 17.7-35.2 2.4-10.1 4.2-20.3 1.3-30.5-2.4-8.5-8.7-10.3-15.5-4.7-3.4 2.8-5.9 6.3-7.8 10.3-6.9 14.2-9.5 29.5-10.1 46.3zm549.8-2.4c-.4 4.3.3 10.4 1.3 16.5.5 3.1 2.1 3.4 4.5 2.6 4.2-1.4 7.7-3.9 10.7-7.1 8.1-8.6 12.3-19.2 15-30.5 2.4-10.1 4-20.3 1.1-30.5-2.3-8.2-8-10-14.7-4.8-3.9 3-6.5 7.1-8.5 11.5-6 12.7-8.5 26.3-9.4 42.3zM307.2 619.8c0 9.5-.1 19 0 28.5 0 2.9-.8 4.2-4 4.2-13.5-.1-10.9 1.1-11.1-10.7-.1-7.3 0-14.7 0-22 0-1.3.3-2.9-1.4-3.3-1.6-.4-2.2 1.1-2.9 2.2-3.7 5.9-7.5 11.8-11.2 17.7-3.7 5.8-3.9 5.8-7.6-.3-3.5-5.7-7-11.3-10.5-17-.8-1.2-1.3-3.1-3.1-2.7-1.9.5-1.4 2.4-1.4 3.8 0 9.2-.1 18.3 0 27.5.1 3.5-1.2 4.7-4.7 4.7-12.1-.2-10.2.9-10.2-10-.1-16.8.1-33.6-.1-50.5-.1-4.5 1.1-5.9 5.8-6.1 6-.3 9.4 1.6 12 7 3.8 7.6 8.3 14.8 12.6 22.1 2.7 4.7 2.9 4.7 5.7.2 5.1-8.4 10.1-16.8 15.2-25.3 2-3.4 12.4-5.4 15.5-3.1 1.6 1.2 1.2 3 1.2 4.6.2 9.5.2 19 .2 28.5zM446.3 618.7c0-9.3.1-18.7 0-28-.1-3.3.9-4.7 4.5-4.8 10-.2 19.9-1.4 29.8 1.2 19.2 5 25.4 26.5 11.5 40.6-2.3 2.4-2.5 4.3-1 7 2.3 4.2 4.4 8.6 6.6 12.9 1.6 3.2.6 4.3-3 4.6-7.3.7-12.3-.6-15.4-8.5-3.8-9.8-4.5-9.4-15.3-8.8-2.5.1-3.6 1-3.6 3.5.1 3-.2 6 0 9 .3 3.6-1.4 4.5-4.7 4.6-9.4.1-9.4.2-9.4-8.9v-24.4zm14.1-8.2v8.5c0 1.9.7 3.2 2.9 3.2 4.8.1 9.7.3 14.3-1.5 4.6-1.8 7.4-5.2 7.4-10.2.1-5.1-2.9-8.3-7.4-10.2-2.8-1.2-5.8-1.3-8.8-1.7-8.3-1-8.5-.7-8.5 7.4.1 1.5.1 3 .1 4.5zM632.1 619.8c0-9.5.1-19-.1-28.5-.1-3.8 1.4-4.9 5-4.9 12.7.1 25.3.3 38 0 5.5-.1 5.2 3.1 5.2 6.7s.2 6.6-5 6.3c-7.5-.4-15-.1-22.5-.1-6.2 0-6.3.1-6.3 6.6 0 .8.1 1.7 0 2.5-.3 3.5 1 5.2 4.9 5 5.5-.3 11 .1 16.5-.1 5.1-.1 4.3 3.4 4.4 6.5.1 3.1-.1 5.6-4.4 5.5-5.5-.2-11 .1-16.5-.1-3.8-.2-5.2 1.5-4.9 5v.5c-.2 8.8-.2 8.8 8.5 8.8h21c6.5 0 6.5 0 6.5 6.7 0 .8-.1 1.7 0 2.5.3 3.2-1.1 4.5-4.3 4.5-13.8-.1-27.6-.1-41.5 0-3.6 0-4.5-1.6-4.5-4.9.1-9.5 0-19 0-28.5zM538.2 619c0-9.5.1-19-.1-28.5-.1-3.5 1.2-4.6 4.6-4.6 11 .3 9.1-1.1 9.3 9.3.1 5.2 0 10.3.1 15.5 0 1.5-.9 3.6 1.4 4.3 2 .6 2.8-1.4 3.8-2.6 6.3-7.8 12.5-15.6 18.7-23.4 2-2.6 13.2-4.4 15.7-2.6 2.1 1.5.6 2.9-.4 4.2-5.5 6.9-11 13.8-16.7 20.5-2.4 2.7-2.5 4.7-.3 7.7 7 9.3 13.6 18.9 20.4 28.4.9 1.2 2.1 2.4 1.4 4-.8 1.8-2.6 1-4 1.2-7.9 1.4-13.5-1.3-17.3-8.8-2.4-4.7-6-8.7-9-13.2-2.1-3.3-3.7-3.8-6.7-.5-4.8 5.3-8.4 10.6-7 18.1.5 2.9-.8 4.2-3.9 4.1-11.7-.2-9.7 1.1-9.9-9.2-.2-7.9-.1-15.9-.1-23.9zM401.3 652.2c-4.5 1.3-7.5-1.1-8.5-6.2-1.2-5.9-4.8-7.4-10.4-6.9-6.1.5-12.3.3-18.5.1-3.4-.1-5.3 1-6.1 4.3-.4 1.6-1.2 3.1-1.7 4.7-.9 2.9-2.5 4.2-5.8 4.1-12.3-.2-12.2 1-7.1-10.5 7.6-17.2 15.3-34.3 22.7-51.5 1.4-3.3 3.3-4.4 6.8-4.3 11.4.4 8.3-1.7 12.8 8.5 7.4 16.5 14.5 33.2 21.7 49.8 3.5 7.9 3.5 7.9-5.9 7.9zm-26.6-25.9h6c2.9.1 4.2-1.3 3.1-4-2-5.3-4.2-10.5-6.3-15.7-.5-1.1-1.1-2.1-2.5-2-1.4.1-1.8 1.3-2.3 2.4-1.4 3.4-2.7 6.8-4.1 10.2-4.1 9.9-3.9 9.2 6.1 9.1zM742.9 586.1c7.8 0 15.7.1 23.5-.1 3.2-.1 4.4.8 4.4 4.2 0 8.1.2 8.1-7.7 8.1-13.9 0-13.9 0-13.9 13.8 0 11.5-.1 23 .1 34.5.1 3.6-.9 5-4.7 4.9-11.1-.3-9.3 1-9.4-9.3-.1-12.8-.2-25.7.1-38.5.1-4.5-1.4-5.9-5.7-5.5-3.8.3-7.7-.1-11.5.1-3.1.1-4.3-1.1-4-4.1.1-1.5.1-3 0-4.5-.2-2.9 1.1-3.8 3.8-3.7 8.3.2 16.7.1 25 .1zM224.5 64.2c.2 4.4 3.7 8.3 10.3 8.3 5.9 0 10-2.8 10.1-7.3.1-3.1-1.3-5.8-8.3-7.8l-8.3-2.3c-15.2-4.7-17.8-13.6-17.8-19.8 0-12.3 10.5-20.6 23.7-20.6 13.3 0 23.3 7.9 23.3 21.1h-14.6c0-4.6-3.1-7.8-8.9-7.8-5.1 0-8.9 2.8-8.9 6.9 0 1.8.7 5.1 7.4 7l8.2 2.6c16.7 4.8 19.1 14.2 18.9 20.8-.2 13.7-12.6 20.2-24.8 20.2-15 0-25-8.9-25-21.3h14.7zM302.6 14.7c19.6 0 35 15.8 35 35.4 0 19.4-15.4 35.3-35 35.3-19.5 0-34.9-15.9-34.9-35.3 0-19.6 15.4-35.4 34.9-35.4zm0 56.2c11.4 0 20.4-9.3 20.4-20.8s-9-20.9-20.4-20.9-20.3 9.4-20.3 20.9c0 11.5 8.9 20.8 20.3 20.8zM349.8 15.5h14.7v56h25.8v12.9h-40.5V15.5zM400.9 84.4V15.5h27c19.8 0 31.1 15 31.1 34.6 0 19.5-11.3 34.3-31.1 34.3h-27zm14.6-13.3h12.4c11 0 16.5-9.7 16.5-21 0-11.4-5.5-21.3-16.5-21.3h-12.4v42.3zM518.4 78.9h-10.2V63.4h-15.4V53.2h15.4V37.8h10.2v15.4h15.5v10.2h-15.5v15.5zM543.9 84.4v-7.6l26.9-31.9c2-2.3 3.5-4.9 3.5-7.4 0-3.5-3-6.5-8.2-6.5-5 0-8.5 3.9-9.3 9.1L544 37.9c2-12.5 10.5-20.3 22.9-20.3 11.6 0 21.4 8.1 21.4 19.9 0 6.3-2.9 12.1-6.9 16.6l-15.1 17.1h20.2v13.2h-42.6zM623.9 17.6c19.1 0 24.3 15.1 24.3 34 0 18.7-5.2 33.8-24.3 33.8s-24.5-15.1-24.5-33.8c0-18.9 5.4-34 24.5-34zm0 54.2c7.9 0 10.3-9.2 10.3-20.2 0-11.1-2.4-20.4-10.3-20.4-8 0-10.5 9.3-10.5 20.4 0 11 2.5 20.2 10.5 20.2zM684.3 17.6c19.1 0 24.3 15.1 24.3 34 0 18.7-5.2 33.8-24.3 33.8s-24.5-15.1-24.5-33.8c0-18.9 5.4-34 24.5-34zm0 54.2c7.9 0 10.3-9.2 10.3-20.2 0-11.1-2.4-20.4-10.3-20.4-8 0-10.5 9.3-10.5 20.4 0 11 2.5 20.2 10.5 20.2zM744.7 17.6c19.1 0 24.3 15.1 24.3 34 0 18.7-5.2 33.8-24.3 33.8s-24.5-15.1-24.5-33.8c0-18.9 5.4-34 24.5-34zm0 54.2c7.9 0 10.3-9.2 10.3-20.2 0-11.1-2.4-20.4-10.3-20.4-8 0-10.5 9.3-10.5 20.4 0 11 2.5 20.2 10.5 20.2zM133.7 135.5H162c15.7 0 22.7 11.3 22.7 22.6 0 11.4-7 22.5-22.7 22.5h-13.6v23.8h-14.7v-68.9zm14.7 12.9v19.4h12.9c5.7 0 8.7-5.2 8.7-9.7 0-4.3-2.8-9.7-8.3-9.7h-13.3zM246.1 204.4h-17.6l-15.4-23.8h-3.3v23.8h-14.7v-68.9h28.2c15.6 0 22.9 11.3 22.9 22.6 0 9.8-5.4 19.4-17.2 21.9l17.1 24.4zm-36.3-56v19.4h12.4c5.7 0 8.7-5.2 8.7-9.7 0-4.3-2.8-9.7-8.3-9.7h-12.8zM289.7 134.7c19.6 0 35 15.8 35 35.4 0 19.4-15.4 35.3-35 35.3-19.5 0-34.9-15.9-34.9-35.3 0-19.6 15.4-35.4 34.9-35.4zm0 56.2c11.4 0 20.4-9.3 20.4-20.8s-9-20.9-20.4-20.9c-11.4 0-20.3 9.4-20.3 20.9 0 11.5 8.9 20.8 20.3 20.8zM336.9 204.4v-68.9h27c19.8 0 31.1 15 31.1 34.6 0 19.5-11.3 34.3-31.1 34.3h-27zm14.6-13.3h12.4c11 0 16.5-9.7 16.5-21 0-11.4-5.5-21.3-16.5-21.3h-12.4v42.3zM445.6 179.8v-44.3h14.7v44.3c0 15.6-12.5 25.6-26.6 25.6-14.2 0-26.8-10-26.8-25.6v-44.3h14.9v44.3c0 7.1 5.7 11.8 11.9 11.8 6.1 0 11.9-4.7 11.9-11.8zM535.4 190.3c-6 9.1-16.5 15.1-29 15.1-19.7 0-34.6-15.9-34.6-35.3 0-19.6 14.9-35.4 34.6-35.4 12.3 0 22.7 5.8 28.7 14.6l-11.9 8.2c-3.7-5.4-9.7-9-16.8-9-11.5 0-19.9 9.6-19.9 21.6 0 11.9 8.4 21.5 19.9 21.5 7.2 0 13.5-3.9 17.2-9.5l11.8 8.2zM540.4 135.5h52v13.2h-18.6v55.7H559v-55.7h-18.6v-13.2zM614.3 184.2c.2 4.4 3.7 8.3 10.3 8.3 5.9 0 10-2.8 10.1-7.3.1-3.1-1.3-5.8-8.3-7.8l-8.3-2.3c-15.2-4.7-17.8-13.6-17.8-19.8 0-12.3 10.5-20.6 23.7-20.6 13.3 0 23.3 7.9 23.3 21.1h-14.6c0-4.6-3.1-7.8-8.9-7.8-5.1 0-8.9 2.8-8.9 6.9 0 1.8.7 5.1 7.4 7l8.2 2.6c16.7 4.8 19.1 14.2 18.9 20.8-.2 13.7-12.6 20.2-24.8 20.2-15 0-25-8.9-25-21.3h14.7zM716.8 134.7c19.6 0 35 15.8 35 35.4 0 19.4-15.4 35.3-35 35.3-19.5 0-34.9-15.9-34.9-35.3 0-19.6 15.4-35.4 34.9-35.4zm0 56.2c11.4 0 20.4-9.3 20.4-20.8s-9-20.9-20.4-20.9c-11.4 0-20.3 9.4-20.3 20.9 0 11.5 8.9 20.8 20.3 20.8zM815.7 204.4h-13.1l-24-41.7v41.7H764v-68.9h13.4l23.6 41.2v-41.2h14.7v68.9zM839.2 156.7c4.7 0 8.6 3.5 8.6 8.4 0 4.8-3.9 8.3-8.6 8.3s-8.6-3.5-8.6-8.3c0-4.9 3.9-8.4 8.6-8.4zm0 32c4.7 0 8.6 3.5 8.6 8.3 0 4.9-3.9 8.4-8.6 8.4s-8.6-3.5-8.6-8.4c0-4.8 3.9-8.3 8.6-8.3z"/></svg>