<?xml version="1.0" encoding="utf-8"?>
<!-- Generator: Adobe Illustrator 22.0.1, SVG Export Plug-In . SVG Version: 6.00 Build 0)  -->
<svg version="1.1" id="Layer_1" xmlns="http://www.w3.org/2000/svg" xmlns:xlink="http://www.w3.org/1999/xlink" x="0px" y="0px"
	 viewBox="0 0 195.7 65.2" enable-background="new 0 0 195.7 65.2" xml:space="preserve">
<path d="M140.7,0c18.3,0,36.7,0,55,0c-2.4,6-4.8,12-7,18c-0.9,2.5-2.3,3.2-4.8,3.1c-9.7-0.1-19.3-0.1-29,0c-1.7,0-4.4,0.4-4.9,1.5
	c-3,6.1-5.6,12.5-8.4,19c9.7,1.4,11.4,1.1,13-2.6c-2-0.3-3.8-0.5-6.2-0.8c1.5-3.7,2.8-7.1,4.4-10.3c0.4-0.9,1.6-1.9,2.5-1.9
	c9.7-0.1,19.4-0.1,29.9-0.1c-5.3,12.4-10.3,23.9-15,35.6c-1.1,2.8-2.6,3.6-5.5,3.6c-11.2-0.2-22.3-0.2-33.5,0
	c-8.7,0.2-16.7-0.4-20.1-11.2c-1.6,3.5-2.5,6.2-3.9,8.6c-0.7,1.1-2.3,2.4-3.5,2.4c-16.5,0.2-32.9,0.1-49.8,0.1
	c0.5-1.4,0.7-2.5,1.2-3.6c4.8-11.3,9.7-22.6,14.5-33.9C73.4,18.5,77,9.2,80.7,0c9.7,0,19.3,0,29,0c-6,13.9-12,27.8-18.2,42.3
	c6.6,0,12.3-0.2,17.9,0.1c3,0.1,4.4-1,5.5-3.8c2.7-6.9,6.1-13.6,8.6-20.6C126.6,9.3,132.1,3.3,140.7,0z"/>
<path d="M75.7,0c-3.2,8.1-6.4,16.3-9.8,24.4c-4.4,10.7-9,21.4-13.5,32.2c-2.1,5.1-6,8.3-11.3,8.4C27.6,65.3,14.2,65.1,0,65.1
	c3-7.3,5.7-14.2,8.8-20.9c0.5-1,2.6-1.7,4.1-1.8c4.6-0.2,9.3,0.1,14-0.2c1.5-0.1,3.8-1.1,4.3-2.2c5.7-13.2,11.1-26.6,16.6-40
	C57,0,66.4,0,75.7,0z"/>
</svg>
