<?xml version="1.0" encoding="utf-8"?>
<!-- Generator: Adobe Illustrator 22.0.1, SVG Export Plug-In . SVG Version: 6.00 Build 0)  -->
<svg version="1.1" id="Layer_1" xmlns="http://www.w3.org/2000/svg" xmlns:xlink="http://www.w3.org/1999/xlink" x="0px" y="0px"
	 viewBox="0 0 230.2 55" enable-background="new 0 0 230.2 55" xml:space="preserve">
<path d="M47.2,16.9c-2.9,4-5.9,7.9-8.9,12c-2.6-4-5.2-8-7.8-12c0,0-0.1,0-0.1,0c0,0.5-0.1,0.9-0.1,1.4c-0.3,3.8-1,7.6-2.2,11.3
	c-0.8,2.5-2.3,4.6-4.8,5.7c-2.3,1-4.7,0.4-6.1-1.7c-0.5-0.7-0.8-1.4-1.2-2.1c0.7-0.5,1.4-0.9,2-1.4c1.5-1.3,2.6-3,3.3-4.9
	c1.6-3.8,2.4-7.9,2.6-12c0.1-1.7,0-3.4-0.4-5.1c-0.4-1.5-1-2.9-2.2-4c0.7-1.1,1.8-1.7,3-2c3.1-0.7,5.7,0,7.7,2.5
	c1.4,1.8,2.5,3.7,3.8,5.5c1.1,1.7,2.2,3.4,3.4,5.2c0.2-0.2,0.3-0.4,0.5-0.6c2.3-3.1,4.6-6.3,6.9-9.4c1.3-1.8,2.9-3.1,5.2-3.4
	c1.6-0.2,3.2,0,4.7,0.8c0.5,0.3,0.9,0.6,1.4,1c-2.2,1.8-2.8,4.3-3.1,6.8c-0.8,6.3-0.2,12.5,2.2,18.5c1.5,3.8,4,6.7,7.7,8.4
	c1.3,0.6,2.7,0.9,4.1,1.3c0,0-0.1,0.2-0.1,0.3c-3.3,6.5-10.4,6.4-14.4,3.3c-2.3-1.8-3.7-4.2-4.7-6.9c-1.1-3.1-1.7-6.3-1.8-9.6
	c-0.1-2.9,0-5.7,0-8.6c0-0.1,0-0.2,0-0.3C47.2,16.9,47.2,16.9,47.2,16.9z"/>
<path d="M135.4,33.6c-1.6,1.8-3.5,2.3-5.7,1.8c-2.1-0.5-3.8-1.6-4.8-3.6c-1.1,2.2-2.9,3.4-5.3,3.7c-4.6,0.6-7.7-1.2-9.3-5.1
	c-1.9-4.5-2-9.2,0.1-13.7c2.7-5.8,9.2-5.7,12.7-1.9c0.3,0.4,0.7,0.7,1.1,1.2c0-0.3,0-0.5,0-0.7c0-3.5,0-7.1,0-10.6
	c0-2.3,1.2-4,3.3-4.5c2.6-0.7,5.2,1.2,5.4,3.9c0.1,2.1,0,4.3,0,6.4c0,5.7,0,11.4,0,17.2c0,0.7,0,1.4,0.1,2.2
	C133,31.4,133.7,32.8,135.4,33.6z M123.6,24c-0.1-0.6-0.1-1.3-0.2-1.9c-0.2-1.2-0.5-2.4-1.4-3.3c-1.1-1.1-2.6-1.1-3.6,0
	c-0.4,0.5-0.8,1.1-1,1.7c-0.8,2.3-0.8,4.7,0,7.1c0.3,1,0.8,1.8,1.8,2.1c1.5,0.6,3-0.1,3.7-1.7C123.5,26.7,123.6,25.4,123.6,24z"/>
<path d="M82.5,13.3c1.5-1.8,3.5-2.3,5.7-1.8c2.9,0.6,4.7,2.3,5,5.4c0.4-0.5,0.7-1,1.1-1.4c1.7-2,3.8-3.3,6.5-3.3
	c2.3,0,3.8,1,4.6,3.1c0.7,1.6,0.8,3.3,0.8,5.1c0,2.7-0.1,5.4-0.1,8.1c0,0.7,0.1,1.4,0.2,2c0.2,1.4,1,2.4,2.3,3.1
	c-1.2,1.3-2.6,2.1-4.4,2c-2.1-0.1-4-0.8-5.3-2.6c-0.8-1-1.1-2.2-1-3.5c0-3.1,0-6.1,0-9.2c0-0.5-0.1-1-0.3-1.4c-0.5-1.3-2-1.6-3-0.7
	c-1,0.9-1.5,2-1.5,3.3c0,3.3,0,6.6,0,9.8c0,1.7-0.7,2.9-2.2,3.7c-1.6,0.7-3.1,0.7-4.5-0.4c-1.1-0.8-1.5-2.1-1.5-3.4
	c0-3.9,0-7.8,0-11.7c0-0.8,0-1.6,0-2.3c-0.1-1.6-0.7-2.9-2.1-3.8C82.7,13.4,82.7,13.3,82.5,13.3z"/>
<path d="M82.5,23.9c-0.1,6.7-5.4,11.9-12.2,11.7c-6.3-0.2-11.5-5.2-11.4-11.9c0.1-6.7,5.4-11.9,11.9-11.8
	C77.3,12,82.6,17.4,82.5,23.9z M74.3,23.9C74.2,23.9,74.2,23.9,74.3,23.9c-0.1-0.7-0.2-1.5-0.2-2.2c-0.2-1.3-0.5-2.5-1.2-3.5
	c-1.2-1.6-3-1.7-4.1,0c-0.5,0.7-0.8,1.5-1,2.3c-0.5,1.9-0.5,3.8-0.2,5.8c0.1,1.1,0.4,2.1,1,3.1c1.1,1.7,3.3,1.7,4.4,0
	c0.3-0.5,0.6-1.2,0.8-1.8C74,26.4,74.1,25.1,74.3,23.9z"/>
<path d="M213.5,11.3c0.9,0.8,1.3,1.7,1.4,2.8c0.3,1.7-0.3,3.2-1.1,4.5c-1.1,1.7-2.6,3.1-4.2,4.4c-2.4,2-4.8,3.9-7.2,5.9
	c0.4,0,0.7,0,1.1,0c1.5,0,2.9,0,4.4,0c1.9-0.1,3.6-0.5,5.2-1.7c0.6,0.6,0.8,1.3,1,2c0.5,2.7-1.1,5.5-3.5,6.3
	c-1.5,0.4-2.8,0.1-4.1-0.6c-0.7-0.4-1.4-0.8-2.1-1.2c-2.6-1.3-5.3-1.3-8-0.6c-1.5,0.4-2.9,1-4.2,1.9c-0.3-0.8-0.2-1.7,0-2.4
	c0.8-3.9,2.8-7.2,6-9.5c1.7-1.2,3.5-2.2,5.2-3.3c0.3-0.2,0.5-0.3,0.8-0.5c0-0.1,0-0.1,0-0.2c-0.8,0-1.6,0-2.4,0c-1.7,0-3.4,0-5.1,0
	c-1.9,0-3.4-1.4-3.4-3.1c0-1.7,1.5-3.2,3.4-3.2c4.4,0,8.8,0,13.2,0c0.3,0,0.6,0,1,0C211.9,12.8,212.9,12.4,213.5,11.3z"/>
<path d="M190.8,28.6c-0.5,3-2.1,5.2-5,6.3c-5.1,1.9-10.9,0.1-13.8-4.4c-3.4-5.1-2.2-13.9,4.3-17.2c2.8-1.5,5.8-1.5,8.9-0.7
	c2,0.5,3.8,1.4,5.2,2.9c1.8,2,2.1,5.4,0.8,7.5c-0.8,1.3-2.1,1.9-3.5,2.3c-2,0.6-4.1,0.8-6.2,0.8c-0.9,0-1.8,0-2.8,0
	c0.5,1.3,1.2,2.3,2.4,2.9c0.8,0.4,1.8,0.8,2.7,0.9c1.6,0.2,3.2,0.1,4.7-0.4C189.1,29.4,189.9,28.9,190.8,28.6z M179.7,22.5
	c0.3,0,0.6,0,1,0c1.5-0.1,2.7-1.1,3.1-2.6c0.3-1.3-0.1-2.4-1.1-2.9c-1-0.5-2.1-0.3-2.9,0.8c-0.8,0.9-1.2,2-1.4,3.2
	C178,22.7,177.6,22.6,179.7,22.5z"/>
<path d="M143.6,26.1c0.4,1.1,0.9,1.9,1.7,2.5c0.9,0.8,2,1.2,3.2,1.3c1.8,0.2,3.7,0,5.4-0.6c0.6-0.2,1.2-0.6,1.9-0.9
	c-0.2,1.7-0.9,3.1-2,4.4c-1.5,1.6-3.4,2.3-5.5,2.6c-3.7,0.5-7-0.5-9.8-3.1c-1.8-1.7-2.9-3.9-3.2-6.4c-0.4-3,0-6,1.7-8.6
	c2.5-4.1,6.3-5.7,11-5.2c2.5,0.3,4.9,1,6.8,2.8c2,1.8,2.5,4.1,1.9,6.7c-0.5,1.9-1.9,2.9-3.6,3.6c-2.1,0.7-4.4,0.9-6.6,0.9
	C145.6,26.2,144.6,26.1,143.6,26.1z M143.2,22.5c0.9,0,1.8,0,2.6,0c1.8-0.1,3.1-1.5,3.2-3.2c0.1-1-0.4-1.8-1.3-2.2
	c-0.9-0.4-1.7-0.3-2.4,0.4C143.7,18.7,143.5,20.6,143.2,22.5z"/>
<path d="M170.3,33.6c-1,1.1-2.2,1.9-3.7,2c-2.1,0.1-3.9-0.5-5.5-1.9c-1.5-1.4-2-3.2-2-5.2c0-8.1,0-16.2,0-24.3
	c0-2.3,1.9-4.2,4.3-4.2c2.3-0.1,4.3,1.7,4.4,4c0,0.4,0,0.8,0,1.3c0,6.4,0,12.8,0,19.2c0,1.7,0,3.4,0.1,5.1
	C167.9,31.4,168.6,32.8,170.3,33.6z"/>
<path d="M24.3,36.8c-3,4-6.6,6.9-11.7,7.6c-3.3,0.4-6.5,0-9.3-2.1c-3-2.2-4-5.7-2.8-8.9c2-5.3,8.4-6.4,12.2-2.1
	c0.5,0.5,0.9,1.2,1.2,1.8c0.3,0.5,0.6,1.1,0.9,1.6c1.7,3.2,4.8,3.8,7.8,2.9C23.2,37.4,23.7,37.1,24.3,36.8z"/>
<path d="M205.9,36.8c1.7,1,3.4,1.4,5.2,1c1.6-0.3,2.9-1.1,3.8-2.5c0.6-0.9,1.1-2,1.7-2.9c1.4-2.2,3.4-3.7,6.1-3.8
	c3.6-0.1,6.7,2.4,7.3,6c0.6,3.3-0.8,5.9-3.4,7.8c-2.4,1.8-5.1,2.2-8,2c-5.5-0.4-9.5-3.3-12.7-7.5C206,37,206,36.9,205.9,36.8z"/>
<path d="M181.3,9.1c-2.1,0-4.2,0-6.4,0c-1.4,0-2.6-1.1-2.7-2.4c-0.1-1.4,0.7-2.7,2-3c0.2-0.1,0.5-0.1,0.7-0.1c4.2,0,8.4,0,12.6,0
	c1.6,0,2.8,1.2,2.8,2.7c0,1.5-1.3,2.8-2.8,2.8C185.5,9.1,183.4,9.1,181.3,9.1C181.3,9.1,181.3,9.1,181.3,9.1z"/>
<path d="M140.7,46.1c0.4-1.4,1.1-2,2.1-2c1,0,1.9,0.8,1.9,1.8c0,2.4,0,4.8,0,7.1c0,0.9-0.7,1.6-1.5,1.8c-0.8,0.2-1.6-0.2-2.1-0.9
	c-0.1-0.1-0.1-0.2-0.2-0.3c-0.8,0.8-1.7,1.3-2.8,1.3c-1.6,0-2.8-0.7-3.5-2.2c-0.8-1.9-0.9-3.8-0.2-5.7c1.1-2.9,4-3.4,6.1-1.2
	C140.5,45.8,140.6,45.9,140.7,46.1z M140.6,49.7c-0.1-0.6-0.2-1.2-0.4-1.8c-0.2-0.6-0.6-1-1.2-1c-0.6,0-1,0.4-1.2,0.9
	c-0.5,1.2-0.5,2.4,0,3.6c0.2,0.5,0.6,0.9,1.2,0.9c0.6,0,1-0.4,1.2-0.9C140.4,50.9,140.5,50.3,140.6,49.7z"/>
<path d="M188.2,46c0.3-0.5,0.5-1,0.8-1.4c0.5-0.6,1.3-0.7,2-0.4c0.7,0.3,1.2,0.9,1.2,1.7c0,2.3,0,4.7,0,7c0,1-0.6,1.7-1.5,1.9
	c-0.8,0.2-1.7-0.2-2.2-1c0-0.1-0.1-0.2-0.2-0.3c-1,1.2-2.3,1.4-3.7,1.2c-1-0.2-1.8-0.7-2.3-1.7c-1.2-2.1-1.3-4.4-0.3-6.6
	c1.1-2.5,3.8-2.9,5.7-0.9C188,45.7,188.1,45.9,188.2,46z M184.9,49.6c0.2,0.7,0.3,1.3,0.5,1.9c0.2,0.5,0.6,0.8,1.2,0.8
	c0.5,0,1-0.3,1.2-0.8c0.5-1.3,0.6-2.6-0.1-3.9c-0.5-1-1.6-1-2.1,0C185.2,48.3,185.1,49,184.9,49.6z"/>
<path d="M127.1,46.8c0.1-0.2,0.3-0.3,0.4-0.5c0.5-0.6,1.2-1.1,2-1.3c1.6-0.5,2.8,0.2,3.1,1.9c0.1,0.6,0.2,1.1,0.2,1.7
	c0,1.5,0,3,0,4.5c0,1.1-0.8,1.9-1.8,1.9c-1,0-1.8-0.8-1.8-1.9c0-1.4,0-2.9,0-4.3c0-0.2,0-0.4,0-0.6c-0.2-0.3-0.4-0.6-0.6-0.7
	c-0.2-0.1-0.7,0.1-0.8,0.3c-0.3,0.5-0.6,1.1-0.6,1.6c-0.1,1.3,0,2.6,0,3.8c0,0.8-0.5,1.5-1.3,1.8c-0.7,0.2-1.5,0-2-0.6
	c-0.2-0.3-0.4-0.7-0.4-1.1c0-2.3,0-4.7,0-7c0-1.1,0.8-1.8,1.8-1.8c1.1,0,1.9,0.7,1.9,1.8c0,0.2,0,0.4,0,0.6
	C127,46.8,127.1,46.8,127.1,46.8z"/>
<path d="M174.6,46.7c0.4-0.3,0.8-0.7,1.2-1c0.6-0.5,1.4-0.8,2.2-0.8c1.1,0,1.8,0.5,2,1.5c0.2,0.9,0.3,1.8,0.3,2.7
	c0.1,1.3,0,2.6,0,3.9c0,1.2-0.8,2-1.9,2c-1.1,0-1.9-0.9-1.9-2c0-1.4,0-2.9,0-4.3c0-0.2,0-0.4-0.1-0.6c-0.2-0.3-0.4-0.6-0.7-0.7
	c-0.2-0.1-0.7,0.1-0.8,0.3c-0.3,0.5-0.5,1-0.6,1.5c-0.1,1.3,0,2.5,0,3.8c0,1.1-0.8,2-1.9,2c-1.1,0-1.8-0.8-1.8-2c0-2.2,0-4.5,0-6.7
	c0-1.2,0.7-1.9,1.9-1.9c1.1,0,1.8,0.8,1.9,1.9C174.6,46.5,174.6,46.6,174.6,46.7z"/>
<path d="M89.1,46.7c0.4-0.3,0.7-0.6,1.1-0.9c0.8-0.7,1.7-1,2.7-0.9c0.8,0.1,1.4,0.5,1.6,1.2c0.2,0.6,0.4,1.3,0.4,1.9
	c0.1,1.7,0,3.5,0,5.2c0,1-0.9,1.8-1.8,1.8c-1,0-1.8-0.8-1.8-1.7c0-1.5,0-2.9,0-4.4c0-0.2,0-0.3,0-0.5c-0.1-0.4-0.2-0.8-0.7-0.9
	c-0.5-0.1-0.8,0.1-1,0.5c-0.2,0.5-0.4,1-0.4,1.5c-0.1,1.3,0,2.5,0,3.8c0,0.9-0.6,1.6-1.5,1.8c-0.8,0.2-1.7-0.3-2-1.1
	c-0.1-0.2-0.1-0.4-0.1-0.7c0-2.3,0-4.7,0-7c0-1,0.8-1.8,1.8-1.8c1.1,0,1.9,0.7,1.9,1.7C89.1,46.3,89.1,46.5,89.1,46.7z"/>
<path d="M169.8,49.6c0,2.9-2.3,5.3-5.2,5.3c-3,0-5.3-2.3-5.4-5.3c0-2.9,2.3-5.3,5.2-5.3C167.4,44.4,169.8,46.7,169.8,49.6z
	 M162.9,49.6c0.2,0.8,0.3,1.5,0.5,2.2c0.2,0.5,0.6,0.9,1.2,0.9c0.6,0,1-0.4,1.2-0.9c0.5-1.5,0.6-2.9-0.1-4.4
	c-0.2-0.5-0.5-0.8-1.1-0.8c-0.6,0-0.9,0.4-1.1,0.8C163.2,48.2,163.1,48.9,162.9,49.6z"/>
<path d="M107.2,50.7c0.5,1.8,2.9,2.3,5.4,1.1c-0.2,1.2-0.8,2-1.8,2.6c-3,1.5-7.1-0.2-7.4-4.1c-0.1-1.8,0.4-3.5,1.8-4.7
	c1.8-1.6,5.2-1.5,7,0.2c0.8,0.8,1.1,1.7,0.9,2.8c-0.2,1.1-1,1.6-2,1.8c-1.1,0.2-2.1,0.3-3.2,0.4C107.7,50.8,107.5,50.7,107.2,50.7z
	 M106.8,49.1c0.6,0,1,0,1.4,0c0.5,0,0.9-0.3,1.2-0.8c0.3-0.6,0.2-1.3-0.4-1.6c-0.5-0.3-1.1-0.1-1.5,0.5
	C107.3,47.7,107.1,48.3,106.8,49.1z"/>
<path d="M198.7,54.2c-0.7,0.8-1.5,1-2.4,0.7c-1.1-0.2-1.9-0.8-2.2-1.9c-0.1-0.3-0.1-0.6-0.1-1c0-3.7,0-7.3,0-11c0-1.1,0.8-2,1.9-1.9
	c1,0,1.8,0.8,1.8,2c0,3.5,0,7.1,0,10.6C197.7,52.6,197.7,53.6,198.7,54.2z"/>
<path d="M78.8,39.9c1.2-1.5,4.1-0.8,4.6,1.1c0.1,0.4,0.1,0.8,0.2,1.2c0,3.6,0,7.2,0,10.9c0,0.8-0.4,1.4-1.1,1.7
	c-0.7,0.3-1.3,0.2-1.9-0.2c-0.5-0.4-0.7-0.9-0.7-1.5c0-3.6,0-7.2,0-10.8C79.9,41.3,79.8,40.4,78.8,39.9z"/>
<path d="M97,46.8c-1-0.2-1.2-0.3-1.2-0.9c0-0.5,0.2-0.7,1.2-0.8c0-0.4,0-0.8,0-1.2c0-1,0.8-1.9,1.8-1.9c1,0,1.8,0.8,1.9,1.8
	c0,0.4-0.1,1,0.1,1.2c0.2,0.2,0.8,0.1,1.2,0.1c0.7,0,0.9,0.2,0.9,0.8c0,0.6-0.3,0.8-1,0.8c-1.3,0-1.3,0-1.3,1.3c0,0.8,0,1.7,0,2.5
	c0,1.4,0.5,2.1,1.9,2.4c0.1,0,0.3,0.1,0.4,0.1c-0.4,1.4-2.1,2.2-3.5,1.8c-1.5-0.5-2.5-1.7-2.5-3.3c0-1.5,0-3,0-4.5
	C97,46.9,97,46.9,97,46.8z"/>
<path d="M152.9,53.1c-0.8,1.5-2,2.1-3.4,1.8c-1.5-0.4-2.6-1.7-2.6-3.2c0-1.4,0-2.8,0-4.2c0-0.4,0-0.7-0.5-0.6
	c-0.5,0-0.7-0.3-0.7-0.8c0-0.5,0.2-0.8,0.7-0.8c0.5,0,0.6-0.2,0.5-0.6c0-0.3,0-0.6,0-0.9c0.1-0.9,0.9-1.7,1.8-1.7
	c0.9,0,1.8,0.8,1.8,1.7c0,0.5-0.1,1.1,0.2,1.3c0.2,0.2,0.9,0.1,1.3,0.1c0.6,0,0.8,0.3,0.8,0.8c0,0.5-0.2,0.8-0.8,0.8
	c-0.1,0-0.2,0-0.3,0c-1.2,0-1.2,0-1.2,1.2c0,0.9,0,1.7,0,2.6c0,1.4,0.5,2.1,2,2.4C152.7,53,152.8,53,152.9,53.1z"/>
<path d="M117.9,46.5c0.4-0.4,0.7-0.8,1.1-1.2c0.7-0.6,1.6-0.8,2.4-0.3c0.7,0.4,1.1,1.3,1,2.3c-0.2,1-0.8,1.7-1.6,1.8
	c-0.8,0.1-1.3-0.2-1.5-1c-0.1-0.3,0-0.8-0.5-0.8c-0.3,0-0.6,0.4-0.7,0.7c-0.2,0.3-0.2,0.7-0.2,1.1c0,1.3,0,2.6,0,3.9
	c0,1.1-0.8,1.9-1.9,1.9c-1,0-1.8-0.8-1.8-1.9c0-2.3,0-4.6,0-6.9c0-0.9,0.7-1.7,1.5-1.9c0.9-0.1,1.8,0.4,2,1.2
	C117.9,45.9,117.9,46.1,117.9,46.5z"/>
<path d="M158,50.1c0,1,0,2.1,0,3.1c0,1-0.8,1.7-1.8,1.8c-1,0-1.8-0.7-1.9-1.7c0-1.3,0-2.6,0-3.9c0-0.8,0-1.6,0-2.5
	c0-0.9,0.8-1.7,1.8-1.7c1,0,1.9,0.7,1.9,1.7C158,47.9,158,49,158,50.1C158,50.1,158,50.1,158,50.1z"/>
<path d="M154.4,42.2c0-1.1,0.8-1.8,1.9-1.8c1,0,1.8,0.8,1.8,1.9c0,1-0.8,1.8-1.8,1.8C155.1,44.1,154.4,43.3,154.4,42.2z"/>
</svg>
