<?xml version="1.0" encoding="utf-8"?>
<!-- Generator: Adobe Illustrator 22.0.1, SVG Export Plug-In . SVG Version: 6.00 Build 0)  -->
<svg version="1.1" id="Layer_1" xmlns="http://www.w3.org/2000/svg" xmlns:xlink="http://www.w3.org/1999/xlink" x="0px" y="0px"
	 viewBox="0 0 412.2 190.3" enable-background="new 0 0 412.2 190.3" xml:space="preserve">
<path d="M142.9,0c11.2,0,21.8,0,32.9,0c0,10.3,0,20.5,0,31.4c31.4,0,62.2,0,93.4,0c0,10.2,0,19.8,0,29.9c-31,0-61.7,0-92.8,0
	c0,33,0,65.6,0,98.8c30.8,0,61.7,0,92.8,0c0,10.3,0,19.9,0,30.1c-2,0-3.8,0-5.5,0c-28.6,0-57.3,0.2-85.9-0.2
	c-6.2-0.1-12.6-1.5-18.4-3.7c-9.6-3.7-14.6-11.7-16-21.8c-0.4-2.6-0.4-5.3-0.4-8c0-50.3,0-100.6,0-150.9
	C142.9,3.8,142.9,2.1,142.9,0z"/>
<path d="M126.2,61.4c-31,0-61.8,0-93,0c0,43,0,85.6,0,128.5c-11.1,0-21.7,0-32.8,0c-0.1-1.6-0.3-3.1-0.3-4.7C0,145,0,104.8,0,64.7
	c0-20.6,11.9-32.9,32.3-33.1c30.3-0.2,60.7-0.1,91-0.1c0.8,0,1.6,0.1,2.8,0.2C126.2,41.4,126.2,51,126.2,61.4z"/>
<path d="M285.8,31.8c11.3,0,22,0,33.1,0c0,42.7,0,85.2,0,128.3c31.3,0,62.1,0,93.2,0c0,10.3,0,19.9,0,30.1c-1.9,0-3.7,0-5.5,0
	c-28.7,0-57.3,0-86,0c-23,0-34.8-11.8-34.9-34.8c0-39.3,0-78.6,0-117.9C285.8,35.7,285.8,33.9,285.8,31.8z"/>
</svg>
