<?xml version="1.0" encoding="utf-8"?>
<!-- Generator: Adobe Illustrator 22.0.1, SVG Export Plug-In . SVG Version: 6.00 Build 0)  -->
<svg version="1.1" id="Layer_1" xmlns="http://www.w3.org/2000/svg" xmlns:xlink="http://www.w3.org/1999/xlink" x="0px" y="0px"
	 viewBox="0 0 214.5 67.4" enable-background="new 0 0 214.5 67.4" xml:space="preserve">
<g>
	<path d="M63.7,36.4c0-3-0.2-6,0-9c0.5-7.2,3.7-10.7,10.8-11.2c5.9-0.4,12-1.1,17.7,1.6c1.1,0.5,2.2,0.7,3.4,0.1
		c5.3-2.7,11.1-2,16.7-1.8c7.9,0.2,12,4.1,12.5,11.9c0.3,5.6,0,11.3,0.3,17c0.2,3.4-1.8,3.2-4.1,3.3c-2.7,0.2-3.8-0.6-3.7-3.6
		c0.2-5.5-0.1-11,0-16.5c0.1-4-1.9-5.7-5.7-6.1c-0.3,0-0.7,0-1,0c-13.5-0.4-12.5,0.6-12.5,11.6c0,3.8-0.2,7.7,0,11.5
		c0.2,3.6-2.2,2.9-4.3,3c-2.4,0.2-3.7-0.3-3.6-3.2c0.2-5.7-0.1-11.3,0-17c0.1-3.7-1.8-5.5-5.3-5.9c-0.3,0-0.7,0-1-0.1
		c-12-0.8-12.8,0-12.8,11.8c0,3.8-0.1,7.7,0,11.5c0.2,3.2-1.9,2.9-3.9,2.9c-2,0-4.1,0.4-3.9-2.9c0.2-3,0-6,0-9
		C63.5,36.4,63.6,36.4,63.7,36.4z"/>
	<path d="M19.8,48.1c-3.5,0-7,0.2-10.5-0.1c-3.2-0.2-6.3-1-8-4.2c-0.9-1.7-2.3-4.1-0.2-5.3c1.5-0.9,4.4-1.4,5.8,1
		c1.5,2.7,3.9,2.8,6.4,2.8c5-0.1,10-0.1,15-0.2c2.2,0,4-0.6,4-3.3c0.1-2.9-1.7-3.6-4.2-3.7c-6.3-0.1-12.7-0.1-19-0.5
		c-6.8-0.5-8.9-3.1-8.9-9.5c0.1-5.8,2.6-8.5,9.1-8.8c6.6-0.3,13.3-0.1,20,0c1.1,0,2.3,0.4,3.4,0.7c2.8,0.7,4.8,2.2,5.5,5.2
		c0.2,1,0.4,2.3-0.9,2.5c-2.5,0.4-4.7,0.1-7.1-1.4C25.7,20.5,20.3,22,15.2,22c-2.9,0-7.7-1.7-7.5,3.7c0.2,4.8,4.7,3.2,7.5,3.4
		c5.2,0.3,10.3,0.1,15.5,0.4c6.1,0.4,8.9,3.4,9,9.2c0.1,5.6-2.9,8.9-8.8,9.4c-3.6,0.3-7.3,0.1-11,0.1C19.8,48.1,19.8,48.1,19.8,48.1
		z"/>
	<path d="M167.5,28.8c0,1.3,0,2.7,0,4c-0.1,11-1.1,11.9-11.6,15.3c-5.2,1.7-2.7,6.6-2.1,9.6c0.6,3.1,2.5,5.8-0.6,8.5
		c-1.9,1.6-4.1,1.6-6,0.2c-3.3-2.4-2.2-5.2-1-8.4c0.8-2.4,0.3-5.3,0.4-7.9c0.1-1.9-1.4-1.8-2.7-2.2c-9.3-2.6-11.3-5.2-11.4-14.8
		c-0.1-4.7,0.1-9.3-0.1-14c-0.1-3.2,1.7-3,3.8-2.9c2,0,4-0.3,4,2.9c-0.1,5.5,0.1,11,0,16.5c-0.1,3.7,1.8,5.4,5.3,5.9
		c12.8,1.7,14.6,0.1,14.7-12.7c0-2.8,0.2-5.7,0-8.5c-0.2-2.8,0.4-4.1,3.7-4.1c3.4,0,3.9,1.4,3.7,4.2C167.4,23.1,167.5,26,167.5,28.8
		z"/>
	<path d="M195.9,16.2c3,0.2,7.2-0.5,11.3,1.1c4.6,1.8,7.4,4.9,7.4,10.1c0,2.8,0,5.7,0,8.5c-0.2,6.9-2.7,10.5-9.2,11.7
		c-7,1.3-14.3,1.6-21.3-0.2c-6.1-1.6-8.5-5-8.7-11.1c-0.1-1.8-0.1-3.7,0-5.5c0.1-10.4,4.1-14.4,14.5-14.5
		C191.4,16.1,193.1,16.2,195.9,16.2z M195.1,22C195.1,22,195.1,22,195.1,22c-2.2,0-4.3,0-6.5,0c-2.8,0.1-4.7,1.5-5.7,4.1
		c-3.9,9.9,0.5,16.5,11,16.8c12.3,0.3,14.5-2,13.6-14.1c-0.3-4.4-2.4-6.8-6.9-6.8C198.7,21.9,196.9,22,195.1,22z"/>
	<path d="M47.4,31.7c0-4,0.2-8-0.1-11.9c-0.2-3,1.1-3.7,3.8-3.5c2.3,0.1,4.1,0,4.1,3.3c-0.2,8.6-0.2,17.2,0,25.9
		c0.1,3.6-2.3,2.8-4.3,3c-2.4,0.2-3.7-0.4-3.5-3.2C47.5,40.6,47.4,36.1,47.4,31.7z"/>
	<path d="M46.1,4.9c0.3-3.1,2-4.9,5.1-4.9c3.4,0,5.2,1.9,5.1,5.3c-0.1,3.1-1.9,4.9-5,4.9C47.9,10.2,46.3,8.2,46.1,4.9z"/>
</g>
</svg>
