<?xml version="1.0" encoding="utf-8"?>
<!-- Generator: Adobe Illustrator 22.0.1, SVG Export Plug-In . SVG Version: 6.00 Build 0)  -->
<svg version="1.1" id="Layer_1" xmlns="http://www.w3.org/2000/svg" xmlns:xlink="http://www.w3.org/1999/xlink" x="0px" y="0px"
	 viewBox="0 0 447.5 341" enable-background="new 0 0 447.5 341" xml:space="preserve">
<path d="M269.2,230.9c-13.4-0.1-28.2-4.4-41.6-13.4c-2.7-1.8-4.4-2.1-7.4-0.2c-26.9,17.1-55,18.8-82.8,3.5
	c-28.2-15.6-42.5-40.6-41.2-72.8c1.2-30.6,16.7-53.1,43.6-67.5c3-1.6,4.2-3.3,4.4-6.7c3.1-39.6,34.4-70.6,74.2-73.5
	c38.5-2.8,74.1,23.3,83.2,61.3c1,4.4,1.6,8.9,1.9,13.3c0.2,2.7,1.3,4,3.6,5.2c37.7,19.1,53.8,60.8,39,100.3
	C334.7,210.2,304.6,230.7,269.2,230.9z M270.6,71.9c7.7-0.4,13.7,0.2,19.4,2c4.6,1.4,6.1,0.3,4.9-4.3c-0.2-0.6-0.1-1.3-0.2-2
	c-7.3-40.7-46.7-66.8-87-57.7c-29.3,6.6-52.9,32.9-55.1,61.3c-0.2,2.7-0.3,4.1,3.2,3.1c8.2-2.4,16.7-3,25.2-2.4
	c3.2,0.2,4.7-0.9,6.3-3.5c4.8-8,10.4-15.5,17.9-21.3c12.1-9.6,24.8-9.7,37-0.2c6.1,4.7,11.4,10.4,15.2,17.1
	C260.8,70,264.6,74.2,270.6,71.9z M138.2,212.1c0.4-0.8,0.6-1.2,0.7-1.7c5.8-26.8,12.6-53.4,21.1-79.5c0.8-2.4-0.2-3.7-1.4-5.4
	c-7.2-10-11.8-21.2-13.8-33.3c-0.9-5.4-0.8-5.4-5.5-2.6c-25.8,15.2-39.7,44.6-34.3,74C108.9,184.6,120.2,200.5,138.2,212.1z
	 M309.1,212.1c1-0.6,1.6-0.9,2.1-1.2c19.2-13.1,29.8-31.2,32.2-54.3c2.7-25.7-13.6-56.2-36.7-67.8c-2.7-1.4-3.6-1.1-4,2.1
	c-1.6,12.6-6.2,24.1-13.7,34.4c-1.8,2.4-2,4.5-1.1,7.3c5.7,16.9,10.3,34,14.6,51.3C304.8,193.1,306.8,202.5,309.1,212.1z
	 M280.6,135.6c-6.5,6.3-13.2,11.3-20.7,14.9c-2.9,1.4-4.2,2.9-4.4,6.2c-1.4,19.5-9,36.3-22.7,50.2c-2.1,2.1-2,3.2,0.5,4.7
	c20.7,12.5,42.4,14.5,65.1,6.1c2.5-0.9,3.2-2.2,2.7-4.8C295.5,187,289,161.5,280.6,135.6z M167,135.6c-8.3,26.2-15.2,52-20.5,78.3
	c-0.5,2.2,0.6,3,2.3,3.6c23,8.8,45,6.8,66-6.1c2-1.2,2.5-2.1,0.6-4c-14.4-14.4-22-31.8-23.3-52.1c-0.1-1.8-0.6-3.1-2.4-3.9
	C181.4,147.7,174.1,142.4,167,135.6z M224.8,151.1c5.6,0.2,11.9-0.9,18.3-2.4c3.2-0.7,4.6-1.9,4.1-5.7c-2.1-16.4-9-30.4-20.5-42.2
	c-2.4-2.5-3.8-2-5.9,0.2c-11.8,12.1-18.6,26.5-20.5,43.2c-0.3,2.7,0.7,3.4,3,4C209.9,150.2,216.8,151.2,224.8,151.1z M247.3,159
	c0.7-2.4-0.2-3.3-4.2-2.3c-13.3,3.4-26.6,3.2-39.9-0.3c-2.3-0.6-3.3-0.9-2.9,2.2c1.9,16.8,8.8,31.1,20.7,43.1
	c1.7,1.7,2.9,2.8,5.2,0.5C237.9,190.6,244.8,176.7,247.3,159z M191.2,81.4c-2-0.2-2.1-0.3-3.5,2.4c-6.7,13-12,26.6-16.9,40.4
	c-0.6,1.7-0.8,3,0.7,4.5c5.3,5.4,11.1,9.9,17.7,13.6c2.4,1.3,3.2,0.6,3.5-1.9c2.3-17.8,10.1-32.8,22.7-45.5c1.2-1.2,2-2.1-0.1-3.4
	C207.9,86.7,199.9,83.3,191.2,81.4z M256.8,143c0.4-0.2,0.8-0.4,1.3-0.6c6.8-3.6,12.8-8.3,18.1-13.9c1.3-1.3,1.2-2.6,0.7-4.1
	c-5-14.1-10.5-28-17.2-41.3c-0.8-1.5-1.5-2.1-3.5-1.7c-8.3,1.9-16.1,5.2-23.3,9.7c-2.1,1.3-2.3,2.2-0.5,4.1
	c12.6,12.7,20.2,27.8,22.6,45.5C255.1,141.8,254.9,143.3,256.8,143z M193.4,73.6c10.5,2.6,19.9,6.6,28.4,12.7
	c1.2,0.9,2.4,1.1,3.7,0.2c8.5-6.2,18.1-10.2,28.6-12.9c-4.8-8.1-10-15.4-17.3-20.8c-8.9-6.6-17.3-6.6-26.1,0
	C203.6,58.2,198.4,65.3,193.4,73.6z M283.6,119.2c7.1-10.9,10.7-21.8,11.8-33.5c0.1-1.5-0.6-2.2-1.8-2.6c-8.5-2.5-17.2-4.1-26.6-2.9
	C273.4,92.8,278.5,105.4,283.6,119.2z M164.1,119.1c4.9-13.2,9.6-25.2,15.4-36.8c1.1-2.1,0-2.5-1.9-2.6c-7.9-0.3-15.6,0.9-23.1,3.2
	c-1.6,0.5-2.6,1.2-2.3,3.1C153.5,97.6,156.8,108.4,164.1,119.1z"/>
<path d="M420.7,289c5.6-6,11.4-7.4,17.7-5c6.1,2.3,7.8,7.6,8.6,13.5c0.7,5.5,0.7,10.9-0.2,16.4c-1.9,12.7-12.8,17.6-23.7,10.7
	c-0.5-0.3-0.9-1-2.2-0.3c0,4-0.2,8.2,0.1,12.5c0.2,3.5-1.9,3.1-4.1,3.2c-2.3,0-4.1,0.2-4.1-3.2c0.2-16.5,0.1-32.9,0-49.4
	c0-2.3,0.6-3.3,3.1-3.3C418.8,284.1,421.5,283.9,420.7,289z M420.9,305.3c0.1,2.9-0.3,6.1,0.8,9.2c1.5,4.1,4.5,6.2,8.7,6.2
	c4.2,0,6.8-2.4,7.7-6.5c1.3-5.9,1.3-11.9,0.1-17.8c-0.9-4.1-3.5-6.4-7.7-6.4c-4.2,0-7.2,2.1-8.7,6.2
	C420.7,299.1,421,302.1,420.9,305.3z"/>
<path d="M379.6,288.5c3.3-3,5.9-4.7,9.1-5.3c7.7-1.4,14,2.3,16.1,9.9c2,7.2,1.9,14.6,0.6,21.8c-2.5,12.9-13.5,16.7-25.6,8.5
	c0,4.8-0.2,9.2,0.1,13.5c0.2,3.5-1.9,3.1-4.1,3.2c-2.3,0-4.1,0.2-4.1-3.2c0.2-16.5,0.1-33,0.1-49.4c0-1.8,0.1-3.4,2.5-3.2
	C376.8,284.4,380.2,283,379.6,288.5z M379.9,305.4c-0.1,0-0.2,0-0.2,0c0.2,2.8,0.1,5.7,0.7,8.4c1,4.4,4.2,6.8,8.7,6.8
	c4.5,0.1,7-2.6,8-6.8c1.3-5.4,1.3-10.9,0.2-16.3c-1.1-5.5-4.2-8-8.8-7.6c-4.7,0.4-8,3.9-8.5,9C379.7,301.1,379.9,303.3,379.9,305.4z
	"/>
<path d="M298.7,325.9c-8.5,1.4-8.5,1.4-11.8-5.4c-2.6-5.3-5.3-10.6-7.9-16c-4.4,2.7-6.4,5.9-5.8,10.7c0.3,2.3-0.1,4.7,0.1,7
	c0.2,2.9-0.3,4.6-4,4.5c-3.6,0-4.4-1.3-4.4-4.7c0.2-16.2,0.2-32.3,0-48.5c0-3.4,1-4.2,4.2-4.2c3.4-0.1,4.2,1.2,4.1,4.4
	c-0.2,7-0.1,14,0,21c0,1.1-0.5,2.5,0.7,3.2c1.4,0.7,2-0.8,2.7-1.6c2.7-2.7,5.7-5.2,8-8.2c3.3-4.4,7.4-4,13-3.4
	c-3.9,3.9-6.9,7.3-10.3,10.4c-2.2,2-2.5,3.7-1.1,6.4C290.7,309.4,294.6,317.6,298.7,325.9z"/>
<path d="M37.8,288.7c3.6-3.4,6.8-5.2,10.7-5.6c7.6-0.8,13,3.1,13.4,10.6c0.6,10,0.3,20,0.4,29.9c0.1,3.6-2.5,2.7-4.5,2.8
	c-2.2,0.2-3.8-0.1-3.8-3.1c0.1-8.2,0.1-16.3,0-24.5c0-3.6,0-7.3-4.6-8.2c-4.7-0.8-8.1,1-10.3,5.2c-1.1,2.1-1.4,4.4-1.4,6.8
	c0.1,6.8-0.1,13.7,0.1,20.5c0.1,3.4-1.7,3.3-4.1,3.3c-2.3,0-4.2,0.2-4.1-3.2c0.1-17,0.1-34,0-50.9c0-3.6,2.3-2.9,4.3-3
	c2.1-0.1,4-0.2,3.8,2.9C37.7,277.4,37.8,282.5,37.8,288.7z"/>
<path d="M201.8,307.9c-2.7,0-5.4,0.2-8-0.1c-3.9-0.4-4.9,1-4.3,4.8c1.3,7.7,9.7,10.8,16,5.9c1-0.8,1.5-3,3.5-1.9
	c1.6,0.8,4,1.1,4.4,2.9c0.4,1.5-1.4,2.9-2.7,4c-5.8,4.9-12.5,5.3-19.3,3.2c-6.1-1.8-8.8-6.7-9.9-12.7c-1.1-6-0.8-12,0.3-17.9
	c1.7-8.9,7.9-13.4,17.3-13.1c8.7,0.2,13.4,4.6,14.9,13.7c1.9,11.2,1.8,11.2-9.5,11.2C203.8,307.9,202.8,307.9,201.8,307.9z
	 M198.1,301.9c2.2,0,4.3,0,6.5,0c1,0,2.2,0.1,2.1-1.4c-0.1-3.5-0.4-7.3-3.5-9.5c-3.1-2.2-6.7-2.2-9.9-0.1c-3.2,2.2-4.3,5.9-3.6,9.3
	c0.7,3.3,4.2,1,6.3,1.6C196.7,302,197.4,301.9,198.1,301.9z"/>
<path d="M230.7,289.3c3.3-3.1,5.8-5,8.9-5.8c8.6-2.2,15.4,2.1,15.9,10.9c0.5,9.8,0.2,19.6,0.3,29.4c0,3.7-2.7,2.4-4.6,2.7
	c-2.4,0.3-3.7-0.4-3.6-3.2c0.2-7.8,0.1-15.6,0-23.5c-0.1-4,0.3-8.4-5.3-9.2c-5-0.7-9.3,2.2-10.4,7.8c-1.6,7.7-0.5,15.6-0.6,23.4
	c0,3.2-0.4,4.7-4.2,4.8c-4.2,0-4-2.1-4-5c0.1-11,0-22,0.1-33c0-1.9-1-4.6,2.7-4.5C228.7,284.1,231.7,283.8,230.7,289.3z"/>
<path d="M356,321.3c-3.3,3.2-5.8,5.1-9,5.9c-9.2,2.4-16-2.6-16.2-12.1c-0.2-9.1,0.1-18.3-0.1-27.4c-0.1-3.6,1.8-3.5,4.3-3.6
	c2.5,0,4,0.3,3.9,3.5c-0.2,8,0,16-0.1,23.9c0,3.7,0.4,7.1,4.7,8.3c4.2,1.1,8.2-0.8,10.4-5c1.3-2.4,1.5-5.1,1.5-7.7
	c0-6.5,0.2-13-0.1-19.5c-0.1-3.6,1.9-3.5,4.4-3.5c2.6-0.1,4,0.4,3.9,3.5c-0.2,11.5,0,22.9-0.1,34.4c0,2,0.8,4.5-2.8,4.5
	C357.9,326.4,354.8,327,356,321.3z"/>
<path d="M85.6,312c3.1-8.1,6.1-16.1,9.2-24.1c0.6-1.4,0.5-3.6,2.7-3.7c2-0.1,4.4-0.9,5.7,0.5c1.2,1.2-0.5,3.1-1,4.5
	c-5.4,13.8-10.8,27.5-16.2,41.3c-2.2,5.5-5,10.3-11.9,10.4c-1.6,0-3.7,0.6-3.4-2.1c0.2-1.9-1.5-4.5,2.6-5.2c5-0.8,8.3-7.6,6.5-12.4
	c-3.9-10.8-7.9-21.5-11.7-32.4c-0.5-1.3-2.8-3.8-0.1-4.4c2.4-0.6,6.1-2,7.6,2.3c2.5,7.2,5.1,14.4,7.8,21.6
	C83.9,309.5,84,311,85.6,312z"/>
<path d="M158.4,327.8c-4.3-0.1-9.1-1.4-12.6-5.4c-1-1.2-3.4-2.9-1.3-4.4c1.7-1.3,4.1-4,6.8-0.7c3,3.7,7,4.3,11.3,3.2
	c2.2-0.5,4.1-1.6,4.3-4.2c0.2-2.5-1-4.2-3.2-5.2c-3.3-1.5-6.8-2.7-10.2-4.1c-6.9-2.9-9.3-6.5-8.7-12.8c0.5-5.8,4.3-9.6,11.2-10.8
	c6.2-1,12-0.4,16.5,4.7c0.9,1,3.1,2.6,0.6,3.9c-1.7,0.9-3.7,3.7-6,0.8c-2.7-3.3-6.1-3.6-9.9-3.1c-2.6,0.3-4.2,1.8-4.7,4.4
	c-0.4,2.5,0.7,4.3,2.9,5.2c2.6,1.2,5.2,2.2,7.9,3c9.1,3,12.7,7.7,11.4,14.9C173.5,323.8,167.8,327.7,158.4,327.8z"/>
<path d="M121.4,327.7c-4.6-0.2-9.5-1.5-13-5.9c-0.9-1.1-3-2.7-0.9-4.1c1.8-1.1,4-3.9,6.5-0.9c2.9,3.5,6.5,4.4,10.7,3.7
	c2.3-0.4,4.6-1.3,5-4.1c0.5-2.9-1-4.8-3.6-5.8c-3.4-1.4-6.8-2.6-10.2-4c-6.3-2.8-8.8-6.7-8.1-12.8c0.6-5.5,4.1-9.1,10.5-10.4
	c6.3-1.4,12.3-0.7,17.1,4.2c0.9,1,3.2,2.6,1.1,4c-1.7,1.1-3.8,4.1-6.4,1c-2.8-3.5-6.5-3.6-10.5-2.9c-2.2,0.4-3.6,1.7-4,3.9
	c-0.5,2.4,0.2,4.4,2.5,5.4c2.7,1.2,5.5,2.3,8.3,3.3c9.1,3.1,12.5,7.5,11.3,15C136.7,323.8,130.8,327.7,121.4,327.7z"/>
<path d="M5.6,304.7c0-3.3-0.1-6.7,0-10c0.1-2.5-0.2-4.3-3.3-4c-2.2,0.2-2.3-1.4-2.2-3c0-1.6-0.3-3.7,2.2-3.5
	c3.2,0.2,3.5-1.6,3.3-4.1c-0.1-2,0.1-4,0-6c-0.2-2.9-0.2-4.9,4-5c4.4,0,4.5,2.1,4.2,5.2c-0.1,1.3,0.1,2.7,0,4
	c-0.5,4.2,0.5,6.7,5.5,5.8c2.8-0.5,3.3,1.1,3.3,3.5c0,2.5-1,3.4-3.3,3c-4.9-0.9-5.7,1.6-5.5,5.8c0.3,5.6,0.1,11.3,0.1,17
	c0,4,1.7,6.5,5.9,6.3c2.8-0.1,3.2,1,3.3,3.5c0,2.7-1.1,3.4-3.5,3.5c-8.6,0.4-13.2-3.5-13.6-12.1c-0.2-3.3,0-6.6,0-10
	C5.7,304.7,5.6,304.7,5.6,304.7z"/>
<path d="M312,292.1c3-3.9,5.6-6.9,9.8-7.6c1.6-0.3,3.8-1.1,3.6,1.6c-0.2,2,2.1,5.1-1.9,6.1c-8.8,2.3-10.5,4.1-11.1,13.1
	c-0.4,5.8-0.3,11.6-0.1,17.4c0.1,3.3-1.3,3.8-4.1,3.8c-2.7,0-4.3-0.3-4.2-3.7c0.2-11.3,0.1-22.6,0-33.9c0-3,0-4.9,4.1-4.9
	c4.3,0,4,2.3,3.8,5.1C311.8,289.7,311.9,290.4,312,292.1z"/>
</svg>
