<?xml version="1.0" encoding="utf-8"?>
<!-- Generator: Adobe Illustrator 22.0.1, SVG Export Plug-In . SVG Version: 6.00 Build 0)  -->
<svg version="1.1" id="Layer_1" xmlns="http://www.w3.org/2000/svg" xmlns:xlink="http://www.w3.org/1999/xlink" x="0px" y="0px"
	 viewBox="0 0 834.3 918.9" style="enable-background:new 0 0 834.3 918.9;" xml:space="preserve">
<path d="M502.3,33.7c0-19.7,14.9-33,37.3-33c19.4,0,34.9,13.9,36.8,35.7c2.5,31.6-3,71.7-41.5,70.5c-12.2-0.5-24.1-4.2-31.6-19.9
	l20.5-8.8c2.8,5.9,7.2,8.1,11.9,8.1c15,0,19.3-15.8,18.8-29.6c-1.3,3.6-5.3,11.6-20.7,11.6C519.2,68.3,502.3,57.3,502.3,33.7z
	 M538.4,48.4c7.4,0,13.5-6.1,13.5-13.5c0-7.4-6.1-13.5-13.5-13.5S525,27.6,525,34.9C525,42.3,531.1,48.4,538.4,48.4z"/>
<path d="M20.8,489.4h165.7v70.9h-47.1v118.4H68.3V560.5H25.6c-1.6,0-3.2-0.3-4.9-0.4C20.8,536.5,20.8,512.9,20.8,489.4L20.8,489.4z
	 M20.8,721.9c1.5-0.1,3-0.2,4.4-0.2h165.1v48.5h-57.2v144.7h-55V770.2H20.7C20.8,754.1,20.8,738,20.8,721.9z M518.7,607.5
	c15.2,1.3,29,1,39.6-11.7c6.3-7.5,13.8-14,20.7-21c7.1-7.1,10.9-15.4,10.8-25.6c-0.2-18.2,0-36.4,0-54.5v-5H661v4.6
	c0,23.8-0.1,47.7,0,71.5c0.1,14.9-4.3,28.1-13.6,39.7c-0.3,0.4-0.6,0.9-1.2,1.9c1.3,0.2,2.2,0.5,3.2,0.5c8.3,0,16.7-0.1,25,0
	c9.5,0.1,17.3-3.2,23.9-10.1c7.4-7.8,15.1-15.2,22.7-22.8c7.4-7.3,11.1-15.9,11-26.4c-0.2-17.9-0.1-35.8-0.1-53.6v-5.2h71
	c0.1,1.4,0.2,2.9,0.2,4.3c0,24.1-0.1,48.3,0,72.4c0.1,17.4-5.7,32.2-18.3,44.4c-17.5,17-34.7,34.5-51.9,51.8
	c-9.9,9.9-22,15.6-35.9,16c-23.7,0.6-47.4,0.2-71.5,0.2v-50.7c-2,1.9-3.1,2.9-4.2,3.9c-10.2,10.2-20.5,20.4-30.7,30.6
	c-10.2,10.2-22.6,15.9-36.8,16c-34.9,0.5-69.7,0.2-104.6,0.2c-0.4,0-0.8-0.2-1.6-0.3V489.8h70.9
	C518.7,528.8,518.7,568.1,518.7,607.5L518.7,607.5z M423.7,678.7h-71v-5.5c0-18-0.1-36.1,0.1-54.1c0.1-10.2-3.7-18.5-10.7-25.6
	c-7.2-7.2-14.4-14.2-21.5-21.5c-7.7-7.9-16.8-12.1-27.9-11.6c-3.4,0.1-6.8,0-10.8,0v118.3h-71V489.3h4.8c31.9,0,63.8,0.1,95.7,0
	c17.4-0.1,32.2,5.7,44.5,18.3c16.6,17.1,33.6,33.9,50.6,50.6c11.4,11.1,17.3,24.6,17.5,40.3c0.3,26.1,0.1,52.2,0.1,78.2
	C424,677.3,423.8,677.9,423.7,678.7L423.7,678.7z M382.7,822.3c0.7-33.4,9.6-59.3,31.8-79.6c14-12.8,30.8-20.2,49.5-23
	c23-3.5,45.4-1.8,66.8,8.3c27.1,12.8,44,34.1,51,63c7.7,31.8,3.6,61.9-15.7,89c-14.1,19.8-33.9,31.4-57.6,36.1
	c-24.4,4.9-48.3,3.4-71.2-7.1c-27.9-12.9-44.5-35-51.4-64.6C383.9,835.9,383.4,827.1,382.7,822.3L382.7,822.3z M439.3,818.3
	c1,6,1.4,12.1,3,18c5,19,19.3,30.9,37.7,32.2c20.3,1.3,36.2-7.9,43.5-26c6.9-16.9,6.6-34.1-1.2-50.7c-13.9-29.6-52.1-28.9-68.1-12.3
	C443.8,790.3,440.1,803.6,439.3,818.3L439.3,818.3z M701.9,717.7c27.6,0.6,52.3,8.4,72.5,27.9c15.6,15.2,24.3,34,27.6,55.3
	c3.7,24.3,0.5,47.6-11.5,69.2c-14.6,26.4-37.6,41.3-66.8,46.6c-22.3,4-44.3,2.5-65.3-6.3c-26.6-11.2-44.2-31-52.3-58.5
	c-8.7-29.3-6.9-58.1,7.9-85.2c14.3-26.1,36.9-41,65.9-46.4C687,718.8,694.5,718.5,701.9,717.7L701.9,717.7z M657.4,818.2
	c1,6.1,1.5,12.4,3.1,18.4c4.9,18.2,18,29.5,36.2,31.7c18.1,2.2,34.8-5.7,42.8-21.4c9.8-19.5,10-39.6-0.9-58.6
	c-15.9-27.7-57.6-27.1-73.4,0.7C660,798,658.1,807.9,657.4,818.2L657.4,818.2z M353.5,721.9v48.5h-87.8c-1,7.3-2.1,14.3-3,20.7
	c7.8-2,15.5-4.9,23.4-5.9c21.2-2.5,41.3,1.4,57.6,16c20.6,18.5,23.8,42.3,16.6,67.6c-6.4,22.5-21.7,37.5-43.9,44.6
	c-27.9,8.9-55.3,7.6-81.1-7.1c-12.9-7.3-22.3-18.1-30.1-31.2c14.3-7.6,28.4-15.1,42.8-22.8c0.9,1.4,1.8,2.6,2.6,3.8
	c8.4,12.8,24.3,18.9,39,15.2c12-3.1,19.7-12.8,19.1-24.2c-0.6-11.6-9.1-20.4-21.4-22.1c-14.4-2.1-26.8,1.7-37,12.3
	c-1,1-3.5,1.7-4.8,1.2c-8.8-3.2-17.5-6.7-26.3-10c-2.2-0.8-2.9-1.9-2.7-4.3c1.8-25.1,3.4-50.2,5.1-75.3c0.5-7,0.9-14,1.4-21
	c0.1-1.9,0.3-3.8,0.5-5.9C267,721.9,310,721.9,353.5,721.9L353.5,721.9z M42.5,214.6c10,2.5,14.3,11.1,14.3,17.3
	c0,12.5-9.1,23.2-24.2,23.2H0v-75.8h30.4c13.6,0,22.4,8.1,22.4,21.1C52.8,205.4,50.3,211.7,42.5,214.6z M28.8,209.2
	c4.2,0,7-3.3,7-7.8c0-4.7-2.4-7.9-7.1-7.9H16.2v15.7C16.2,209.2,28.8,209.2,28.8,209.2z M16.2,222.5v18.4h15.5
	c5.4,0,8.1-4.8,8.1-9.3c0-4.3-2.8-9-8.5-9L16.2,222.5L16.2,222.5z M70.1,179.3h48v14.2h-32v17.3H114v14H86.1V241H119v14.2H70
	L70.1,179.3L70.1,179.3z M144.6,232.9c0.2,4.8,4.1,9.1,11.3,9.1c6.5,0,11-3.1,11.1-8c0.1-3.4-1.4-6.4-9.1-8.6l-9.1-2.5
	c-16.7-5.2-19.6-15-19.6-21.8c0-13.5,11.6-22.7,26.1-22.7c14.6,0,25.6,8.7,25.6,23.2h-16.1c0-5.1-3.4-8.6-9.8-8.6
	c-5.6,0-9.8,3.1-9.8,7.6c0,2,0.8,5.6,8.1,7.7l9,2.9c18.4,5.3,21,15.6,20.8,22.9c-0.2,15.1-13.9,22.2-27.3,22.2
	c-16.5,0-27.5-9.8-27.5-23.4H144.6z M190.1,179.3h57.2v14.5h-20.5v61.3h-16.3v-61.3H190v-14.5H190.1z M324.9,228v-48.7h16.2V228
	c0,17.2-13.8,28.2-29.3,28.2c-15.6,0-29.5-11-29.5-28.2v-48.7h16.4V228c0,7.8,6.3,13,13.1,13S324.9,235.9,324.9,228L324.9,228z
	 M415,255.1h-14.4l-26.4-45.9v45.9h-16.1v-75.8h14.7l26,45.3v-45.3H415V255.1z M432.8,255.1v-75.8h29.7c21.8,0,34.2,16.5,34.2,38.1
	c0,21.5-12.4,37.7-34.2,37.7L432.8,255.1L432.8,255.1z M448.9,240.5h13.6c12.1,0,18.2-10.7,18.2-23.1c0-12.5-6.1-23.4-18.2-23.4
	h-13.6V240.5z M510.6,179.3h48v14.2h-31.9v17.3h27.9v14h-27.9V241h32.9v14.2h-49L510.6,179.3L510.6,179.3z M630.1,255.1h-19.4
	l-16.9-26.2h-3.6v26.2H574v-75.8h31c17.2,0,25.2,12.4,25.2,24.9c0,10.8-5.9,21.3-18.9,24.1L630.1,255.1z M590.1,193.5v21.3h13.6
	c6.3,0,9.6-5.7,9.6-10.7c0-4.7-3.1-10.7-9.1-10.7L590.1,193.5L590.1,193.5z M667.6,255.1v-8.4l29.6-35.1c2.2-2.5,3.8-5.4,3.8-8.1
	c0-3.9-3.3-7.2-9-7.2c-5.5,0-9.4,4.3-10.2,10l-14.1-2.4c2.2-13.8,11.6-22.3,25.2-22.3c12.8,0,23.5,8.9,23.5,21.9
	c0,6.9-3.2,13.3-7.6,18.3l-16.6,18.8h22.2v14.5H667.6L667.6,255.1z M780.9,233c0,13.9-10.4,23.2-26.2,23.2
	c-13.6,0-24.5-9.8-25.9-25.1c-1.8-22.2,2.1-50.4,29.2-49.5c8.6,0.3,16.9,3,22.2,14l-14.4,6.2c-2-4.2-5.1-5.7-8.4-5.7
	c-10.6,0-13.5,11.1-13.2,20.8c0.9-2.5,5.5-8.1,14.5-8.1C769,208.7,780.9,216.4,780.9,233L780.9,233z M755.5,222.7
	c-5.2,0-9.5,4.3-9.5,9.5s4.3,9.5,9.5,9.5s9.5-4.3,9.5-9.5S760.6,222.7,755.5,222.7z M807.1,234c-15.4-4.2-15.5-12-15.4-16.7
	c0.1-7.6,9.2-14.6,20-14.6c10.2,0,21,4.5,21.1,17.1h-14.4c-0.1-3.9-3.4-4.5-5.8-4.5c-3.3,0-5.5,1.5-5.4,3.9c0.1,1.5,1.4,3.1,4.5,3.8
	l8.7,2.3c12.4,3.4,14,11.7,14,15c0,10.9-11.4,16.1-22.2,16.1c-10.5,0-21.3-6.3-21.5-17.7H805c0.1,3,3.4,5.9,7.6,5.9
	c3.4-0.1,6.3-1.7,6.3-4.3c0-2.2-1.3-3.4-5.1-4.4L807.1,234z M107.4,387.1H88.1l-16.9-26.2h-3.6v26.2H51.3v-75.8h31
	c17.2,0,25.2,12.4,25.2,24.9c0,10.8-5.9,21.3-18.9,24.1L107.4,387.1L107.4,387.1z M67.5,325.5v21.3h13.6c6.3,0,9.6-5.7,9.6-10.7
	c0-4.7-3.1-10.7-9.1-10.7H67.5V325.5z M121.4,311.3h48v14.2h-31.9v17.3h27.9v14h-27.9V373h32.9v14.2h-49L121.4,311.3L121.4,311.3z
	 M248.9,371.6c-6.6,10-18.1,16.6-31.9,16.6c-21.7,0-38.1-17.5-38.1-38.8c0-21.6,16.4-38.9,38.1-38.9c13.5,0,25,6.4,31.6,16.1
	l-13.1,9c-4.1-5.9-10.7-9.9-18.5-9.9c-12.6,0-21.9,10.6-21.9,23.8c0,13.1,9.2,23.7,21.9,23.7c7.9,0,14.9-4.3,18.9-10.5L248.9,371.6
	L248.9,371.6z M294.2,310.4c21.6,0,38.5,17.4,38.5,38.9c0,21.3-16.9,38.8-38.5,38.8c-21.5,0-38.4-17.5-38.4-38.8
	C255.8,327.8,272.7,310.4,294.2,310.4z M294.2,372.3c12.5,0,22.4-10.2,22.4-22.9c0-12.6-9.9-23-22.4-23s-22.3,10.3-22.3,23
	C271.9,362,281.7,372.3,294.2,372.3z M397.2,333.1c-4.2-4.7-10-7.7-16.6-7.7c-12.8,0-22.7,10.8-22.7,24c0,13.1,9.9,24.1,22.7,24.1
	c8.1,0,18.3-5.1,18.4-13.1h-20.4v-13.1h38.9c0,28.4-15.2,40.9-37,40.9s-38.8-17.5-38.8-38.8c0-21.6,17-38.9,38.8-38.9
	c11.7,0,21.9,4.8,28.5,12.4L397.2,333.1z M486.1,387.1h-14.4l-26.4-45.9v45.9h-16.1v-75.8H444l26,45.3v-45.3h16.2v75.8L486.1,387.1z
	 M520,311.3v75.8h-16v-75.8H520z M532,311.3h57.2v14.5h-20.5v61.3h-16.3v-61.3H532V311.3z M617.3,311.3v75.8h-16.1v-75.8H617.3z
	 M669.1,310.4c21.6,0,38.5,17.4,38.5,38.9c0,21.3-16.9,38.8-38.5,38.8c-21.5,0-38.4-17.5-38.4-38.8
	C630.7,327.8,647.6,310.4,669.1,310.4z M669.1,372.3c12.5,0,22.4-10.2,22.4-22.9c0-12.6-9.9-23-22.4-23s-22.3,10.3-22.3,23
	C646.7,362,656.5,372.3,669.1,372.3z M777.9,387.1h-14.4L737,341.2v45.9h-16v-75.8h14.7l26,45.3v-45.3h16.2V387.1L777.9,387.1z
	 M255.3,106.9V94.7l43-51c3.2-3.7,5.6-7.8,5.6-11.8c0-5.6-4.8-10.4-13.1-10.4c-8,0-13.6,6.2-14.9,14.6l-20.5-3.5
	c3.2-20,16.8-32.5,36.6-32.5c18.6,0,34.2,13,34.2,31.8c0,10.1-4.6,19.4-11,26.6L291,85.9h32.3V107L255.3,106.9L255.3,106.9z
	 M383.3,0c30.6,0,38.9,24.2,38.9,54.4c0,29.9-8.3,54.1-38.9,54.1s-39.2-24.2-39.2-54.1C344.1,24.2,352.8,0,383.3,0z M383.3,86.7
	c12.6,0,16.5-14.7,16.5-32.3c0-17.8-3.8-32.6-16.5-32.6c-12.8,0-16.8,14.9-16.8,32.6C366.5,72,370.5,86.7,383.3,86.7z M478,106.9
	h-22.4v-75l-17.9,7.7V19.8L478,0.6V106.9z"/>
</svg>
