<svg xmlns="http://www.w3.org/2000/svg" viewBox="0 0 834.3 918.9"><path d="M20.8 489.4h165.7v70.9h-47.1v118.4H68.3V560.5H25.6c-1.6 0-3.2-.3-4.9-.4.1-23.6.1-47.2.1-70.7zM20.8 721.9c1.5-.1 3-.2 4.4-.2h165.1v48.5h-57.2v144.7h-55V770.2H20.7c.1-16.1.1-32.2.1-48.3zM518.7 607.5c15.2 1.3 29 1 39.6-11.7 6.3-7.5 13.8-14 20.7-21 7.1-7.1 10.9-15.4 10.8-25.6-.2-18.2 0-36.4 0-54.5v-5H661v4.6c0 23.8-.1 47.7 0 71.5.1 14.9-4.3 28.1-13.6 39.7-.3.4-.6.9-1.2 1.9 1.3.2 2.2.5 3.2.5 8.3 0 16.7-.1 25 0 9.5.1 17.3-3.2 23.9-10.1 7.4-7.8 15.1-15.2 22.7-22.8 7.4-7.3 11.1-15.9 11-26.4-.2-17.9-.1-35.8-.1-53.6v-5.2h71c.1 1.4.2 2.9.2 4.3 0 24.1-.1 48.3 0 72.4.1 17.4-5.7 32.2-18.3 44.4-17.5 17-34.7 34.5-51.9 51.8-9.9 9.9-22 15.6-35.9 16-23.7.6-47.4.2-71.5.2v-50.7c-2 1.9-3.1 2.9-4.2 3.9-10.2 10.2-20.5 20.4-30.7 30.6-10.2 10.2-22.6 15.9-36.8 16-34.9.5-69.7.2-104.6.2-.4 0-.8-.2-1.6-.3V489.8h70.9c.2 39 .2 78.3.2 117.7zM423.7 678.7h-71v-5.5c0-18-.1-36.1.1-54.1.1-10.2-3.7-18.5-10.7-25.6-7.2-7.2-14.4-14.2-21.5-21.5-7.7-7.9-16.8-12.1-27.9-11.6-3.4.1-6.8 0-10.8 0v118.3h-71V489.3h4.8c31.9 0 63.8.1 95.7 0 17.4-.1 32.2 5.7 44.5 18.3 16.6 17.1 33.6 33.9 50.6 50.6 11.4 11.1 17.3 24.6 17.5 40.3.3 26.1.1 52.2.1 78.2-.1.6-.3 1.2-.4 2zM382.7 822.3c.7-33.4 9.6-59.3 31.8-79.6 14-12.8 30.8-20.2 49.5-23 23-3.5 45.4-1.8 66.8 8.3 27.1 12.8 44 34.1 51 63 7.7 31.8 3.6 61.9-15.7 89-14.1 19.8-33.9 31.4-57.6 36.1-24.4 4.9-48.3 3.4-71.2-7.1-27.9-12.9-44.5-35-51.4-64.6-2-8.5-2.5-17.3-3.2-22.1zm56.6-4c1 6 1.4 12.1 3 18 5 19 19.3 30.9 37.7 32.2 20.3 1.3 36.2-7.9 43.5-26 6.9-16.9 6.6-34.1-1.2-50.7-13.9-29.6-52.1-28.9-68.1-12.3-10.4 10.8-14.1 24.1-14.9 38.8zM701.9 717.7c27.6.6 52.3 8.4 72.5 27.9 15.6 15.2 24.3 34 27.6 55.3 3.7 24.3.5 47.6-11.5 69.2-14.6 26.4-37.6 41.3-66.8 46.6-22.3 4-44.3 2.5-65.3-6.3-26.6-11.2-44.2-31-52.3-58.5-8.7-29.3-6.9-58.1 7.9-85.2 14.3-26.1 36.9-41 65.9-46.4 7.1-1.5 14.6-1.8 22-2.6zm-44.5 100.5c1 6.1 1.5 12.4 3.1 18.4 4.9 18.2 18 29.5 36.2 31.7 18.1 2.2 34.8-5.7 42.8-21.4 9.8-19.5 10-39.6-.9-58.6-15.9-27.7-57.6-27.1-73.4.7-5.2 9-7.1 18.9-7.8 29.2zM353.5 721.9v48.5H265.7c-1 7.3-2.1 14.3-3 20.7 7.8-2 15.5-4.9 23.4-5.9 21.2-2.5 41.3 1.4 57.6 16 20.6 18.5 23.8 42.3 16.6 67.6-6.4 22.5-21.7 37.5-43.9 44.6-27.9 8.9-55.3 7.6-81.1-7.1-12.9-7.3-22.3-18.1-30.1-31.2 14.3-7.6 28.4-15.1 42.8-22.8.9 1.4 1.8 2.6 2.6 3.8 8.4 12.8 24.3 18.9 39 15.2 12-3.1 19.7-12.8 19.1-24.2-.6-11.6-9.1-20.4-21.4-22.1-14.4-2.1-26.8 1.7-37 12.3-1 1-3.5 1.7-4.8 1.2-8.8-3.2-17.5-6.7-26.3-10-2.2-.8-2.9-1.9-2.7-4.3 1.8-25.1 3.4-50.2 5.1-75.3.5-7 .9-14 1.4-21 .1-1.9.3-3.8.5-5.9 43.5-.1 86.5-.1 130-.1zM42.5 214.6c10 2.5 14.3 11.1 14.3 17.3 0 12.5-9.1 23.2-24.2 23.2H0v-75.8h30.4c13.6 0 22.4 8.1 22.4 21.1 0 5-2.5 11.3-10.3 14.2zm-13.7-5.4c4.2 0 7-3.3 7-7.8 0-4.7-2.4-7.9-7.1-7.9H16.2v15.7h12.6zm-12.6 13.3v18.4h15.5c5.4 0 8.1-4.8 8.1-9.3 0-4.3-2.8-9-8.5-9H16.2zM70.1 179.3h48v14.2h-32v17.3H114v14H86.1V241H119v14.2H70v-75.9zM144.6 232.9c.2 4.8 4.1 9.1 11.3 9.1 6.5 0 11-3.1 11.1-8 .1-3.4-1.4-6.4-9.1-8.6l-9.1-2.5c-16.7-5.2-19.6-15-19.6-21.8 0-13.5 11.6-22.7 26.1-22.7 14.6 0 25.6 8.7 25.6 23.2h-16.1c0-5.1-3.4-8.6-9.8-8.6-5.6 0-9.8 3.1-9.8 7.6 0 2 .8 5.6 8.1 7.7l9 2.9c18.4 5.3 21 15.6 20.8 22.9-.2 15.1-13.9 22.2-27.3 22.2-16.5 0-27.5-9.8-27.5-23.4h16.3zM190.1 179.3h57.2v14.5h-20.5v61.3h-16.3v-61.3H190v-14.5zM324.9 228v-48.7h16.2V228c0 17.2-13.8 28.2-29.3 28.2-15.6 0-29.5-11-29.5-28.2v-48.7h16.4V228c0 7.8 6.3 13 13.1 13s13.1-5.1 13.1-13zM415 255.1h-14.4l-26.4-45.9v45.9h-16.1v-75.8h14.7l26 45.3v-45.3H415v75.8zM432.8 255.1v-75.8h29.7c21.8 0 34.2 16.5 34.2 38.1 0 21.5-12.4 37.7-34.2 37.7h-29.7zm16.1-14.6h13.6c12.1 0 18.2-10.7 18.2-23.1 0-12.5-6.1-23.4-18.2-23.4h-13.6v46.5zM510.6 179.3h48v14.2h-31.9v17.3h27.9v14h-27.9V241h32.9v14.2h-49v-75.9zM630.1 255.1h-19.4l-16.9-26.2h-3.6v26.2H574v-75.8h31c17.2 0 25.2 12.4 25.2 24.9 0 10.8-5.9 21.3-18.9 24.1l18.8 26.8zm-40-61.6v21.3h13.6c6.3 0 9.6-5.7 9.6-10.7 0-4.7-3.1-10.7-9.1-10.7h-14.1zM667.6 255.1v-8.4l29.6-35.1c2.2-2.5 3.8-5.4 3.8-8.1 0-3.9-3.3-7.2-9-7.2-5.5 0-9.4 4.3-10.2 10l-14.1-2.4c2.2-13.8 11.6-22.3 25.2-22.3 12.8 0 23.5 8.9 23.5 21.9 0 6.9-3.2 13.3-7.6 18.3l-16.6 18.8h22.2v14.5h-46.8zM780.9 233c0 13.9-10.4 23.2-26.2 23.2-13.6 0-24.5-9.8-25.9-25.1-1.8-22.2 2.1-50.4 29.2-49.5 8.6.3 16.9 3 22.2 14l-14.4 6.2c-2-4.2-5.1-5.7-8.4-5.7-10.6 0-13.5 11.1-13.2 20.8.9-2.5 5.5-8.1 14.5-8.1 10.3-.1 22.2 7.6 22.2 24.2zm-25.4-10.3c-5.2 0-9.5 4.3-9.5 9.5s4.3 9.5 9.5 9.5 9.5-4.3 9.5-9.5-4.4-9.5-9.5-9.5zM807.1 234c-15.4-4.2-15.5-12-15.4-16.7.1-7.6 9.2-14.6 20-14.6 10.2 0 21 4.5 21.1 17.1h-14.4c-.1-3.9-3.4-4.5-5.8-4.5-3.3 0-5.5 1.5-5.4 3.9.1 1.5 1.4 3.1 4.5 3.8l8.7 2.3c12.4 3.4 14 11.7 14 15 0 10.9-11.4 16.1-22.2 16.1-10.5 0-21.3-6.3-21.5-17.7H805c.1 3 3.4 5.9 7.6 5.9 3.4-.1 6.3-1.7 6.3-4.3 0-2.2-1.3-3.4-5.1-4.4l-6.7-1.9zM107.4 387.1H88.1l-16.9-26.2h-3.6v26.2H51.3v-75.8h31c17.2 0 25.2 12.4 25.2 24.9 0 10.8-5.9 21.3-18.9 24.1l18.8 26.8zm-39.9-61.6v21.3h13.6c6.3 0 9.6-5.7 9.6-10.7 0-4.7-3.1-10.7-9.1-10.7H67.5zM121.4 311.3h48v14.2h-31.9v17.3h27.9v14h-27.9V373h32.9v14.2h-49v-75.9zM248.9 371.6c-6.6 10-18.1 16.6-31.9 16.6-21.7 0-38.1-17.5-38.1-38.8 0-21.6 16.4-38.9 38.1-38.9 13.5 0 25 6.4 31.6 16.1l-13.1 9c-4.1-5.9-10.7-9.9-18.5-9.9-12.6 0-21.9 10.6-21.9 23.8 0 13.1 9.2 23.7 21.9 23.7 7.9 0 14.9-4.3 18.9-10.5l13 8.9zM294.2 310.4c21.6 0 38.5 17.4 38.5 38.9 0 21.3-16.9 38.8-38.5 38.8-21.5 0-38.4-17.5-38.4-38.8 0-21.5 16.9-38.9 38.4-38.9zm0 61.9c12.5 0 22.4-10.2 22.4-22.9 0-12.6-9.9-23-22.4-23s-22.3 10.3-22.3 23c0 12.6 9.8 22.9 22.3 22.9zM397.2 333.1c-4.2-4.7-10-7.7-16.6-7.7-12.8 0-22.7 10.8-22.7 24 0 13.1 9.9 24.1 22.7 24.1 8.1 0 18.3-5.1 18.4-13.1h-20.4v-13.1h38.9c0 28.4-15.2 40.9-37 40.9s-38.8-17.5-38.8-38.8c0-21.6 17-38.9 38.8-38.9 11.7 0 21.9 4.8 28.5 12.4l-11.8 10.2zM486.1 387.1h-14.4l-26.4-45.9v45.9h-16.1v-75.8H444l26 45.3v-45.3h16.2v75.8zM520 311.3v75.8h-16v-75.8h16zM532 311.3h57.2v14.5h-20.5v61.3h-16.3v-61.3H532v-14.5zM617.3 311.3v75.8h-16.1v-75.8h16.1zM669.1 310.4c21.6 0 38.5 17.4 38.5 38.9 0 21.3-16.9 38.8-38.5 38.8-21.5 0-38.4-17.5-38.4-38.8 0-21.5 16.9-38.9 38.4-38.9zm0 61.9c12.5 0 22.4-10.2 22.4-22.9 0-12.6-9.9-23-22.4-23s-22.3 10.3-22.3 23c-.1 12.6 9.7 22.9 22.3 22.9zM777.9 387.1h-14.4L737 341.2v45.9h-16v-75.8h14.7l26 45.3v-45.3h16.2v75.8zM255.3 106.9V94.7l43-51c3.2-3.7 5.6-7.8 5.6-11.8 0-5.6-4.8-10.4-13.1-10.4-8 0-13.6 6.2-14.9 14.6l-20.5-3.5C258.6 12.6 272.2.1 292 .1c18.6 0 34.2 13 34.2 31.8 0 10.1-4.6 19.4-11 26.6L291 85.9h32.3V107h-68zM383.3 0c30.6 0 38.9 24.2 38.9 54.4 0 29.9-8.3 54.1-38.9 54.1s-39.2-24.2-39.2-54.1c0-30.2 8.7-54.4 39.2-54.4zm0 86.7c12.6 0 16.5-14.7 16.5-32.3 0-17.8-3.8-32.6-16.5-32.6-12.8 0-16.8 14.9-16.8 32.6 0 17.6 4 32.3 16.8 32.3zM478 106.9h-22.4v-75l-17.9 7.7V19.8L478 .6v106.3zM539.5 0C557.2 0 572 13.1 572 29.3c0 7.4-2.9 13.3-7.7 17.6 9.1 5.3 15 15 15 26.4 0 20-17.9 35.2-39.8 35.2s-39.8-15.2-39.8-35.2c0-11.5 5.9-21.1 15-26.4-4.6-4.5-7.5-10.4-7.5-17.6 0-16.2 14.5-29.3 32.3-29.3zm0 87.7c9.3 0 17.4-6.7 17.4-15.5 0-8-5.9-15.7-17.6-15.7-11.4 0-17.3 7.7-17.3 15.7 0 8.8 8.2 15.5 17.5 15.5zm0-47.7c7.2 0 10.7-4.8 10.7-10.1 0-5.1-3.8-9.8-10.7-9.8-6.9 0-10.7 4.6-10.7 9.8 0 5.3 3.5 10.1 10.7 10.1z"/></svg>